<svg width="15" height="15" viewBox="0 0 15 15" fill="none" xmlns="http://www.w3.org/2000/svg">
<path d="M5.75 9C4.36926 9 3.25 10.1193 3.25 11.5C3.25 12.8807 4.36926 14 5.75 14C7.13074 14 8.25 12.8807 8.25 11.5C8.24853 10.1199 7.13013 9.00146 5.75 9ZM5.75 13.5C4.64539 13.5 3.75 12.6046 3.75 11.5C3.75 10.3954 4.64539 9.5 5.75 9.5C6.85461 9.5 7.75 10.3954 7.75 11.5C7.74878 12.604 6.854 13.4988 5.75 13.5Z" fill="white"/>
<path d="M5.75 10.75C6.0553 10.75 6.25 10.8979 6.25 11H6.75C6.75 10.6448 6.4353 10.3571 6 10.275V10H5.5V10.275C5.0647 10.3564 4.75 10.6443 4.75 11C4.75 11.4208 5.18921 11.75 5.75 11.75C6.0553 11.75 6.25 11.8979 6.25 12C6.25 12.1021 6.0553 12.25 5.75 12.25C5.4447 12.25 5.25 12.1021 5.25 12H4.75C4.75 12.3552 5.0647 12.6429 5.5 12.725V13H6V12.725C6.4353 12.6436 6.75 12.3557 6.75 12C6.75 11.5792 6.31079 11.25 5.75 11.25C5.4447 11.25 5.25 11.1021 5.25 11C5.25 10.8979 5.4447 10.75 5.75 10.75Z" fill="white"/>
<path d="M12.75 14.5H2.25V8.5H6.25C6.66418 8.5 7 8.16418 7 7.75V1.5H9.75V4.5H12.75V8H13.25V4.14648L10.1035 1H7V0.75C7 0.335815 6.66418 0 6.25 0H0.75C0.335815 0 0 0.335815 0 0.75V7.75C0 8.16418 0.335815 8.5 0.75 8.5H1.75V15H13.25V11.5H12.75V14.5ZM10.25 1.85352L12.3965 4H10.25V1.85352ZM0.5 7.75V0.75C0.5 0.611938 0.611938 0.5 0.75 0.5H6.25C6.38806 0.5 6.5 0.611938 6.5 0.75V7.75C6.5 7.88806 6.38806 8 6.25 8H0.75C0.611938 8 0.5 7.88806 0.5 7.75Z" fill="white"/>
<path d="M8 6.25H8.5V6.75H8V6.25Z" fill="white"/>
<path d="M9 6.25H12V6.75H9V6.25Z" fill="white"/>
<path d="M8 5.25H8.5V5.75H8V5.25Z" fill="white"/>
<path d="M9 5.25H12V5.75H9V5.25Z" fill="white"/>
<path d="M8 7.25H8.5V7.75H8V7.25Z" fill="white"/>
<path d="M9 7.25H12V7.75H9V7.25Z" fill="white"/>
<path d="M8 8.25H8.5V8.75H8V8.25Z" fill="white"/>
<path d="M9 8.25H12V8.75H9V8.25Z" fill="white"/>
<path d="M6.25 0.75H0.75V2.5H6.25V0.75ZM5.75 2H1.25V1.25H5.75V2Z" fill="white"/>
<path d="M2 2.75H1.5C1.22388 2.75 1 2.97388 1 3.25V3.75C1 4.02612 1.22388 4.25 1.5 4.25H2C2.27612 4.25 2.5 4.02612 2.5 3.75V3.25C2.5 2.97388 2.27612 2.75 2 2.75ZM1.5 3.75V3.25H2V3.75H1.5Z" fill="white"/>
<path d="M3.75 2.75H3.25C2.97388 2.75 2.75 2.97388 2.75 3.25V3.75C2.75 4.02612 2.97388 4.25 3.25 4.25H3.75C4.02612 4.25 4.25 4.02612 4.25 3.75V3.25C4.25 2.97388 4.02612 2.75 3.75 2.75ZM3.25 3.75V3.25H3.75V3.75H3.25Z" fill="white"/>
<path d="M5.5 2.75H5C4.72388 2.75 4.5 2.97388 4.5 3.25V3.75C4.5 4.02612 4.72388 4.25 5 4.25H5.5C5.77612 4.25 6 4.02612 6 3.75V3.25C6 2.97388 5.77612 2.75 5.5 2.75ZM5 3.75V3.25H5.5V3.75H5Z" fill="white"/>
<path d="M2 4.5H1.5C1.22388 4.5 1 4.72388 1 5V5.5C1 5.77612 1.22388 6 1.5 6H2C2.27612 6 2.5 5.77612 2.5 5.5V5C2.5 4.72388 2.27612 4.5 2 4.5ZM1.5 5.5V5H2V5.5H1.5Z" fill="white"/>
<path d="M3.75 4.5H3.25C2.97388 4.5 2.75 4.72388 2.75 5V5.5C2.75 5.77612 2.97388 6 3.25 6H3.75C4.02612 6 4.25 5.77612 4.25 5.5V5C4.25 4.72388 4.02612 4.5 3.75 4.5ZM3.25 5.5V5H3.75V5.5H3.25Z" fill="white"/>
<path d="M5.5 4.5H5C4.72388 4.5 4.5 4.72388 4.5 5V5.5C4.5 5.77612 4.72388 6 5 6H5.5C5.77612 6 6 5.77612 6 5.5V5C6 4.72388 5.77612 4.5 5.5 4.5ZM5 5.5V5H5.5V5.5H5Z" fill="white"/>
<path d="M2 6.25H1.5C1.22388 6.25 1 6.47388 1 6.75V7.25C1 7.52612 1.22388 7.75 1.5 7.75H2C2.27612 7.75 2.5 7.52612 2.5 7.25V6.75C2.5 6.47388 2.27612 6.25 2 6.25ZM1.5 7.25V6.75H2V7.25H1.5Z" fill="white"/>
<path d="M3.75 6.25H3.25C2.97388 6.25 2.75 6.47388 2.75 6.75V7.25C2.75 7.52612 2.97388 7.75 3.25 7.75H3.75C4.02612 7.75 4.25 7.52612 4.25 7.25V6.75C4.25 6.47388 4.02612 6.25 3.75 6.25ZM3.25 7.25V6.75H3.75V7.25H3.25Z" fill="white"/>
<path d="M5.5 6.25H5C4.72388 6.25 4.5 6.47388 4.5 6.75V7.25C4.5 7.52612 4.72388 7.75 5 7.75H5.5C5.77612 7.75 6 7.52612 6 7.25V6.75C6 6.47388 5.77612 6.25 5.5 6.25ZM5 7.25V6.75H5.5V7.25H5Z" fill="white"/>
<path d="M14.7725 7.97714C14.4758 7.69382 14.0088 7.69382 13.7121 7.97714L9.42633 12.2628C9.40558 12.2838 9.38861 12.3082 9.37628 12.3351L8.77277 13.6456C8.72919 13.7406 8.74933 13.8528 8.8233 13.9266C8.89715 14.0006 9.00934 14.0207 9.10431 13.9771L10.4149 13.3736C10.4417 13.3613 10.4661 13.3445 10.4871 13.3236L14.7725 9.03781C15.0655 8.74496 15.0655 8.26999 14.7725 7.97714ZM10.1649 12.9381L9.50983 13.2398L9.81158 12.5848L13.007 9.38913L13.3605 9.74265L10.1649 12.9381ZM13.7148 9.38803L13.3613 9.03464L13.5363 8.85959L13.8898 9.2131L13.7148 9.38803ZM14.4199 8.68307L14.2431 8.85983L13.8896 8.50632L14.0666 8.32956C14.1653 8.23508 14.321 8.23508 14.4199 8.32956C14.5174 8.42722 14.5174 8.58542 14.4199 8.68307Z" fill="white"/>
</svg>
