<svg width="14" height="13" viewBox="0 0 14 13" fill="none" xmlns="http://www.w3.org/2000/svg">
<path d="M6.52055 9.98851C6.57407 10.0565 6.64567 10.1121 6.72921 10.1505C6.81274 10.189 6.90569 10.209 7.00005 10.209C7.09442 10.209 7.18737 10.189 7.2709 10.1505C7.35443 10.1121 7.42604 10.0565 7.47955 9.98851L12.7296 3.35309C12.7903 3.27656 12.826 3.18691 12.8326 3.0939C12.8392 3.00089 12.8166 2.90807 12.7672 2.82552C12.7177 2.74297 12.6434 2.67385 12.5522 2.62567C12.4611 2.5775 12.3566 2.5521 12.2501 2.55225H1.75005C1.6438 2.55263 1.53967 2.57835 1.44887 2.62665C1.35807 2.67494 1.28403 2.74398 1.23472 2.82634C1.18541 2.9087 1.16269 3.00126 1.169 3.09407C1.17532 3.18688 1.21043 3.27643 1.27055 3.35309L6.52055 9.98851Z" fill="#CCCCCC"/>
</svg>
