<svg width="16" height="16" viewBox="0 0 16 16" fill="none" xmlns="http://www.w3.org/2000/svg">
<path d="M12.4438 13.3334H7.11046V9.77783H6.22157V13.3334H3.5549V9.77783H2.66602V13.3334C2.66602 13.5691 2.75967 13.7952 2.92637 13.9619C3.09306 14.1286 3.31916 14.2223 3.5549 14.2223H12.4438C12.6795 14.2223 12.9056 14.1286 13.0723 13.9619C13.239 13.7952 13.3327 13.5691 13.3327 13.3334V9.77783H12.4438V13.3334Z" fill="white"/>
<path d="M15.0176 5.89783L13.2042 2.27117C13.1306 2.12307 13.0172 1.99844 12.8767 1.91129C12.7361 1.82414 12.574 1.77792 12.4087 1.77783H3.5909C3.42553 1.77792 3.26346 1.82414 3.12292 1.91129C2.98238 1.99844 2.86894 2.12307 2.79535 2.27117L0.982012 5.89783C0.920099 6.02205 0.888135 6.15904 0.888679 6.29783V7.66672C0.888273 7.87441 0.960607 8.07569 1.09312 8.23561C1.28897 8.46011 1.53086 8.63982 1.80234 8.76253C2.07382 8.88523 2.36854 8.94805 2.66646 8.94672C3.15258 8.94748 3.62387 8.77938 3.99979 8.47117C4.37571 8.77955 4.8469 8.9481 5.33312 8.9481C5.81935 8.9481 6.29054 8.77955 6.66646 8.47117C7.04237 8.77955 7.51356 8.9481 7.99979 8.9481C8.48602 8.9481 8.95721 8.77955 9.33312 8.47117C9.70904 8.77955 10.1802 8.9481 10.6665 8.9481C11.1527 8.9481 11.6239 8.77955 11.9998 8.47117C12.4194 8.81571 12.9563 8.98414 13.4975 8.94104C14.0388 8.89794 14.5422 8.64667 14.902 8.24006C15.0361 8.08075 15.1101 7.87941 15.1109 7.67117V6.29783C15.1114 6.15904 15.0795 6.02205 15.0176 5.89783ZM6.66646 6.40005V7.07561L6.30201 7.55561C6.19014 7.7081 6.04392 7.8321 5.87521 7.91757C5.7065 8.00304 5.52003 8.04757 5.3309 8.04757C5.14177 8.04757 4.95531 8.00304 4.78659 7.91757C4.61788 7.8321 4.47167 7.7081 4.35979 7.55561L3.99979 7.05783V6.40005L5.1509 2.66672H7.1109L6.66646 6.40005ZM11.9998 7.05783L11.6398 7.55561C11.5279 7.7081 11.3817 7.8321 11.213 7.91757C11.0443 8.00304 10.8578 8.04757 10.6687 8.04757C10.4796 8.04757 10.2931 8.00304 10.1244 7.91757C9.95566 7.8321 9.80944 7.7081 9.69757 7.55561L9.33312 7.05783V6.40005L8.88868 2.66672H10.8665L11.9998 6.40005V7.05783Z" fill="white"/>
</svg>
