<svg width="8" height="8" viewBox="0 0 8 8" fill="none" xmlns="http://www.w3.org/2000/svg">
<path d="M6.33343 6.66678H1.66677C1.57836 6.66678 1.49358 6.7019 1.43106 6.76441C1.36855 6.82693 1.33343 6.91171 1.33343 7.00012C1.33343 7.08852 1.36855 7.17331 1.43106 7.23582C1.49358 7.29833 1.57836 7.33345 1.66677 7.33345H6.33343C6.42184 7.33345 6.50662 7.29833 6.56913 7.23582C6.63165 7.17331 6.66677 7.08852 6.66677 7.00012C6.66677 6.91171 6.63165 6.82693 6.56913 6.76441C6.50662 6.7019 6.42184 6.66678 6.33343 6.66678ZM1.66677 6.00012H1.69677L3.08677 5.87345C3.23903 5.85828 3.38144 5.79119 3.4901 5.68345L6.4901 2.68345C6.60654 2.56044 6.66947 2.39628 6.66509 2.22696C6.66072 2.05764 6.5894 1.89695 6.46676 1.78012L5.55343 0.866782C5.43423 0.754814 5.27803 0.690568 5.11454 0.686266C4.95106 0.681964 4.79169 0.737905 4.66677 0.843449L1.66677 3.84345C1.55902 3.9521 1.49193 4.09452 1.47677 4.24678L1.33343 5.63678C1.32894 5.68561 1.33528 5.73482 1.35199 5.78091C1.36869 5.827 1.39537 5.86884 1.4301 5.90345C1.46125 5.93434 1.49818 5.95878 1.5388 5.97537C1.57941 5.99196 1.6229 6.00037 1.66677 6.00012ZM5.0901 1.33345L6.0001 2.24345L5.33343 2.89345L4.4401 2.00012L5.0901 1.33345ZM2.12343 4.30345L4.0001 2.44012L4.9001 3.34012L3.03343 5.20678L2.03343 5.30012L2.12343 4.30345Z" fill="white"/>
</svg>
