<svg width="67" height="64" viewBox="0 0 67 64" fill="none" xmlns="http://www.w3.org/2000/svg">
<path fill-rule="evenodd" clip-rule="evenodd" d="M0 0H66.8497C66.8497 32 66.8497 32 66.8497 32C66.8309 34.648 66.8336 37.2874 66.618 39.9281C66.2598 44.3163 65.3265 48.7429 63.1537 52.6065C62.5528 53.675 61.861 54.6918 61.0813 55.6361C60.3163 56.5625 59.4673 57.4179 58.5477 58.1885C57.2874 59.2447 55.8974 60.1389 54.428 60.8698C52.3679 61.8943 50.1622 62.5986 47.9155 63.0669C44.8811 63.6994 41.7721 63.9196 38.679 63.9741C37.4814 63.9951 36.2835 63.9913 35.0857 64H6C2.68629 64 0 61.3137 0 58V0Z" fill="#5C8C24"/>
<path fill-rule="evenodd" clip-rule="evenodd" d="M37.3933 34.5269L42.9383 40.1131C43.3415 40.5193 43.3415 41.1779 42.9383 41.5841C42.5351 41.991 41.8813 41.991 41.4781 41.5841L35.9331 35.9979" fill="#5C8C24"/>
<path d="M37.3933 34.5269L42.9383 40.1131C43.3415 40.5193 43.3415 41.1779 42.9383 41.5841C42.5351 41.991 41.8813 41.991 41.4781 41.5841L35.9331 35.9979" stroke="#4A6F1E"/>
<path fill-rule="evenodd" clip-rule="evenodd" d="M38.9219 29.9413C38.9219 34.1364 35.5456 37.5378 31.3813 37.5378C27.2164 37.5378 23.8408 34.1364 23.8408 29.9413C23.8408 25.7461 27.2164 22.3447 31.3813 22.3447C35.5456 22.3447 38.9219 25.7461 38.9219 29.9413Z" fill="#5C8C24" stroke="white" stroke-linecap="round" stroke-linejoin="round"/>
<path fill-rule="evenodd" clip-rule="evenodd" d="M31.8721 24.7125C30.4188 24.6642 28.9504 25.1939 27.8407 26.3111C26.7317 27.4284 26.2067 28.9077 26.2539 30.3718" fill="#5C8C24"/>
<path d="M31.8721 24.7125C30.4188 24.6642 28.9504 25.1939 27.8407 26.3111C26.7317 27.4284 26.2067 28.9077 26.2539 30.3718" stroke="#4A6F1E" stroke-linecap="round" stroke-linejoin="round"/>
</svg>
