<svg width="22" height="18" viewBox="0 0 22 18" fill="none" xmlns="http://www.w3.org/2000/svg">
<path d="M0.917969 7.99992C0.917969 7.99992 4.75697 2.49992 11.0013 2.49992C11.8694 2.49992 12.688 2.60992 13.4561 2.79509L7.66463 8.58659C7.44836 8.11485 7.33583 7.6022 7.33463 7.08325C7.33463 6.22434 7.64172 5.44517 8.13672 4.81909C5.94405 5.56525 4.27297 7.00717 3.31964 7.99992C4.13259 8.84628 5.05061 9.58502 6.0513 10.1981L4.72214 11.5291C2.29114 9.95242 0.917969 7.99992 0.917969 7.99992ZM21.0846 7.99992C21.0846 7.99992 17.2456 13.4999 11.0013 13.4999C10.1341 13.4999 9.3183 13.3863 8.5483 13.2038L4.58464 17.1666L3.20964 15.7916L18.793 0.208252L20.168 1.58325L17.2832 4.468C19.7096 6.04742 21.0846 7.99992 21.0846 7.99992ZM18.6875 8.00542C17.874 7.1558 16.9536 6.41536 15.9495 5.80267L14.668 7.08325C14.668 9.10909 13.0271 10.7499 11.0013 10.7499L10.1332 11.618C10.4174 11.6455 10.7052 11.6666 11.0013 11.6666C14.6478 11.6666 17.3657 9.39509 18.6875 8.00542Z" fill="#818181"/>
</svg>
