<svg width="16" height="16" viewBox="0 0 16 16" fill="none" xmlns="http://www.w3.org/2000/svg">
<path d="M14.75 2.25H1.25C0.56075 2.25 0 2.81075 0 3.5V12.5C0 13.1892 0.56075 13.75 1.25 13.75H14.75C15.4392 13.75 16 13.1892 16 12.5V3.5C16 2.81075 15.4392 2.25 14.75 2.25ZM0.5 12.5V4.25H3.75V13.25H1.25C0.836437 13.25 0.5 12.9135 0.5 12.5ZM14.75 13.25H4.25V4.25H14C14.1381 4.25 14.25 4.13806 14.25 4C14.25 3.86194 14.1381 3.75 14 3.75H0.5V3.5C0.5 3.08647 0.836437 2.75 1.25 2.75H14.75C15.1636 2.75 15.5 3.08647 15.5 3.5V3.75H15C14.8619 3.75 14.75 3.86194 14.75 4C14.75 4.13806 14.8619 4.25 15 4.25H15.5V12.5C15.5 12.9135 15.1636 13.25 14.75 13.25Z" fill="white"/>
<path d="M1.25 3C1.18438 3 1.11969 3.02656 1.07313 3.07312C1.02656 3.11969 1 3.18406 1 3.25C1 3.31591 1.02656 3.38031 1.07313 3.42688C1.11969 3.47341 1.18438 3.5 1.25 3.5C1.31563 3.5 1.38 3.47341 1.42687 3.42688C1.47344 3.38031 1.5 3.31591 1.5 3.25C1.5 3.18406 1.47344 3.11969 1.42687 3.07312C1.38031 3.02656 1.31563 3 1.25 3Z" fill="white"/>
<path d="M2 3C1.93438 3 1.86969 3.02656 1.82313 3.07312C1.77656 3.11969 1.75 3.18406 1.75 3.25C1.75 3.31591 1.77656 3.38031 1.82313 3.42688C1.86969 3.47341 1.93438 3.5 2 3.5C2.06563 3.5 2.13 3.47341 2.17688 3.42688C2.22344 3.38031 2.25 3.31591 2.25 3.25C2.25 3.18406 2.22344 3.11969 2.17688 3.07312C2.13031 3.02656 2.06563 3 2 3Z" fill="white"/>
<path d="M2.75 3C2.68438 3 2.61969 3.02656 2.57312 3.07312C2.52656 3.11969 2.5 3.18406 2.5 3.25C2.5 3.31591 2.52656 3.38031 2.57312 3.42688C2.61969 3.47341 2.68438 3.5 2.75 3.5C2.81563 3.5 2.88031 3.47341 2.92688 3.42688C2.97344 3.38031 3 3.31563 3 3.25C3 3.18434 2.97344 3.11969 2.92688 3.07312C2.88031 3.02656 2.81594 3 2.75 3Z" fill="white"/>
<path d="M1.25 5.25H3C3.13806 5.25 3.25 5.13806 3.25 5C3.25 4.86194 3.13806 4.75 3 4.75H1.25C1.11194 4.75 1 4.86194 1 5C1 5.13806 1.11194 5.25 1.25 5.25Z" fill="white"/>
<path d="M3 5.75H1.25C1.11194 5.75 1 5.86194 1 6C1 6.13806 1.11194 6.25 1.25 6.25H3C3.13806 6.25 3.25 6.13806 3.25 6C3.25 5.86194 3.13806 5.75 3 5.75Z" fill="white"/>
<path d="M3 6.75H1.25C1.11194 6.75 1 6.86194 1 7C1 7.13806 1.11194 7.25 1.25 7.25H3C3.13806 7.25 3.25 7.13806 3.25 7C3.25 6.86194 3.13806 6.75 3 6.75Z" fill="white"/>
<path d="M2.25 7.75H1.25C1.11194 7.75 1 7.86194 1 8C1 8.13806 1.11194 8.25 1.25 8.25H2.25C2.38806 8.25 2.5 8.13806 2.5 8C2.5 7.86194 2.38806 7.75 2.25 7.75Z" fill="white"/>
<path d="M2.25 8.75H1.25C1.11194 8.75 1 8.86194 1 9C1 9.13806 1.11194 9.25 1.25 9.25H2.25C2.38806 9.25 2.5 9.13806 2.5 9C2.5 8.86194 2.38806 8.75 2.25 8.75Z" fill="white"/>
<path d="M1.5 9.75H1.25C1.11194 9.75 1 9.86194 1 10C1 10.1381 1.11194 10.25 1.25 10.25H1.5C1.63806 10.25 1.75 10.1381 1.75 10C1.75 9.86194 1.63806 9.75 1.5 9.75Z" fill="white"/>
<path d="M6.74999 7.50013C7.08387 7.50013 7.39777 7.63013 7.63387 7.86625C7.73149 7.96384 7.88977 7.96384 7.9874 7.86625C8.08505 7.76859 8.08505 7.61034 7.9874 7.51269C7.30509 6.83037 6.19484 6.83044 5.51256 7.51269C5.18203 7.84322 5 8.28269 5 8.75013C5 9.21756 5.18203 9.65703 5.51256 9.9876C5.85372 10.3288 6.30184 10.4993 6.74999 10.4993C7.19815 10.4993 7.64627 10.3288 7.98743 9.9876C8.08508 9.88994 8.08508 9.73169 7.98743 9.63403C7.8898 9.53644 7.73152 9.53644 7.6339 9.63403C7.39777 9.87013 7.08387 10.0001 6.74999 10.0001C6.41612 10.0001 6.10222 9.87013 5.86612 9.634C5.63003 9.39791 5.5 9.08403 5.5 8.75013C5.5 8.41622 5.63003 8.10234 5.86612 7.86625C6.10222 7.63013 6.41612 7.50013 6.74999 7.50013Z" fill="white"/>
<path d="M10.2507 9.39587C10.6921 9.20275 11.0013 8.76181 11.0013 8.25C11.0013 7.56075 10.4405 7 9.75125 7H8.75C8.61194 7 8.5 7.11194 8.5 7.25C8.5 7.25837 8.50041 7.26666 8.50122 7.27484V10.25C8.50122 10.3881 8.61316 10.5 8.75122 10.5C8.88928 10.5 9.00122 10.3881 9.00122 10.25V7.5H9.75122C10.1648 7.5 10.5012 7.83647 10.5012 8.25C10.5012 8.66353 10.1648 9 9.75122 9C9.65009 9 9.55894 9.06091 9.52025 9.15431C9.48156 9.24772 9.50294 9.35528 9.57444 9.42678L10.5744 10.4268C10.6232 10.4756 10.6872 10.5 10.7512 10.5C10.8152 10.5 10.8792 10.4756 10.928 10.4268C11.0257 10.3291 11.0257 10.1709 10.928 10.0732L10.2507 9.39587Z" fill="white"/>
<path d="M14.3147 7.00804C14.2044 6.9796 14.0887 7.02904 14.0334 7.12863L13.002 8.98526L11.9705 7.12863C11.9152 7.02901 11.7995 6.97941 11.6892 7.00804C11.579 7.0366 11.502 7.13613 11.502 7.25004V10.25C11.502 10.3881 11.6139 10.5 11.752 10.5C11.89 10.5 12.002 10.3881 12.002 10.25V8.21482L12.7834 9.62145C12.8275 9.70083 12.9112 9.75005 13.002 9.75005C13.0927 9.75005 13.1764 9.70083 13.2205 9.62145L14.002 8.21482V10.25C14.002 10.3881 14.1139 10.5 14.2519 10.5C14.39 10.5 14.5019 10.3881 14.5019 10.25V7.25004C14.5019 7.1361 14.4249 7.0366 14.3147 7.00804Z" fill="white"/>
</svg>
