<svg width="16" height="16" viewBox="0 0 16 16" fill="none" xmlns="http://www.w3.org/2000/svg">
<path d="M15.1328 7.49205C15.0758 7.3015 14.9454 7.14139 14.7704 7.04695C14.5953 6.95252 14.3899 6.93149 14.1994 6.98849L7.4931 8.99496C7.45593 9.00611 7.42186 9.02574 7.39357 9.05231L6.57882 9.81793C6.54498 9.84972 6.52067 9.89031 6.5086 9.93514C6.49653 9.97997 6.49718 10.0273 6.51048 10.0718C6.52378 10.1162 6.54921 10.1561 6.58391 10.187C6.61861 10.2178 6.66121 10.2384 6.70695 10.2464L7.80829 10.4388C7.84653 10.4454 7.88579 10.4431 7.92298 10.432L13.3645 8.8039L13.388 9.31874L11.659 9.83606L11.8023 10.3151L13.7184 9.74181C13.7718 9.72584 13.8183 9.69247 13.8506 9.647C13.8829 9.60154 13.899 9.5466 13.8965 9.4909L13.8583 8.6564L14.6293 8.42571C14.8199 8.36869 14.98 8.23831 15.0744 8.06324C15.1688 7.88818 15.1898 7.68277 15.1328 7.49221V7.49205ZM7.83626 9.93612L7.28557 9.83993L7.69295 9.45709L8.83395 9.11578L8.97726 9.59478L7.83626 9.93612ZM9.45626 9.4514L9.31295 8.9724L13.3174 7.77424L13.3409 8.28912L9.45626 9.4514ZM14.6344 7.82568C14.6189 7.85463 14.5978 7.88021 14.5723 7.90096C14.5468 7.9217 14.5175 7.93719 14.486 7.94652L13.8347 8.14137L13.8112 7.62652L14.3427 7.46749C14.3901 7.45332 14.4406 7.45352 14.4878 7.46805C14.5351 7.48258 14.577 7.5108 14.6082 7.54914C14.6394 7.58748 14.6586 7.63422 14.6632 7.68344C14.6679 7.73266 14.6579 7.78216 14.6344 7.82568Z" fill="white"/>
<path d="M10 11H5.75V7.25C5.75 7.1837 5.72366 7.12011 5.67678 7.07322C5.62989 7.02634 5.5663 7 5.5 7H1C0.933696 7 0.870107 7.02634 0.823223 7.07322C0.776339 7.12011 0.75 7.1837 0.75 7.25V15.25C0.75 15.3163 0.776339 15.3799 0.823223 15.4268C0.870107 15.4737 0.933696 15.5 1 15.5H10C10.0663 15.5 10.1299 15.4737 10.1768 15.4268C10.2237 15.3799 10.25 15.3163 10.25 15.25V11.25C10.25 11.1837 10.2237 11.1201 10.1768 11.0732C10.1299 11.0263 10.0663 11 10 11ZM7.25 11.5H8.25V12.5H7.25V11.5ZM2.75 7.5H3.75V8.5H2.75V7.5ZM1.25 7.5H2.25V8.75C2.25 8.8163 2.27634 8.87989 2.32322 8.92678C2.37011 8.97366 2.4337 9 2.5 9H4C4.0663 9 4.12989 8.97366 4.17678 8.92678C4.22366 8.87989 4.25 8.8163 4.25 8.75V7.5H5.25V11H1.25V7.5ZM2.75 11.5H3.75V12.5H2.75V11.5ZM1.25 11.5H2.25V12.75C2.25 12.8163 2.27634 12.8799 2.32322 12.9268C2.37011 12.9737 2.4337 13 2.5 13H4C4.0663 13 4.12989 12.9737 4.17678 12.9268C4.22366 12.8799 4.25 12.8163 4.25 12.75V11.5H5.25V15H1.25V11.5ZM9.75 15H5.75V11.5H6.75V12.75C6.75 12.8163 6.77634 12.8799 6.82322 12.9268C6.87011 12.9737 6.9337 13 7 13H8.5C8.5663 13 8.62989 12.9737 8.67678 12.9268C8.72366 12.8799 8.75 12.8163 8.75 12.75V11.5H9.75V15Z" fill="white"/>
<path d="M8.75 14H9.25V14.5H8.75V14Z" fill="white"/>
<path d="M4.25 14H4.75V14.5H4.25V14Z" fill="white"/>
<path d="M4.25 10H4.75V10.5H4.25V10Z" fill="white"/>
<path d="M4.75 2.5C4.75016 2.36744 4.80289 2.24035 4.89662 2.14662C4.99035 2.05289 5.11744 2.00016 5.25 2H6.75V2.5H5.5C5.4337 2.5 5.37011 2.52634 5.32322 2.57322C5.27634 2.62011 5.25 2.6837 5.25 2.75V6.5H5.75V3H11.75V7H12.25V2.75C12.25 2.6837 12.2237 2.62011 12.1768 2.57322C12.1299 2.52634 12.0663 2.5 12 2.5H10.75V2H12.25C12.3826 2.00016 12.5096 2.05289 12.6034 2.14662C12.6971 2.24035 12.7498 2.36744 12.75 2.5V6.75H13.25V2.5C13.2497 2.23487 13.1442 1.98069 12.9568 1.79322C12.7693 1.60575 12.5151 1.5003 12.25 1.5H9.82019L9.99253 0.810625C10.0017 0.773768 10.0024 0.735297 9.99455 0.698133C9.98667 0.660969 9.97042 0.62609 9.94704 0.596146C9.92366 0.566202 9.89377 0.54198 9.85962 0.52532C9.82548 0.50866 9.78799 0.500001 9.75 0.5H7.75C7.71201 0.500001 7.67452 0.50866 7.64038 0.52532C7.60623 0.54198 7.57634 0.566202 7.55296 0.596146C7.52958 0.62609 7.51333 0.660969 7.50545 0.698133C7.49756 0.735297 7.49826 0.773768 7.50747 0.810625L7.67981 1.5H5.25C4.98487 1.5003 4.73069 1.60575 4.54322 1.79322C4.35575 1.98069 4.2503 2.23487 4.25 2.5V6.5H4.75V2.5ZM7.25 2H8C8.03799 2 8.07548 1.99134 8.10962 1.97468C8.14377 1.95802 8.17366 1.9338 8.19704 1.90385C8.22042 1.87391 8.23667 1.83903 8.24455 1.80187C8.25244 1.7647 8.25174 1.72623 8.24253 1.68938L8.07019 1H9.42981L9.25747 1.68938C9.24826 1.72623 9.24756 1.7647 9.25545 1.80187C9.26333 1.83903 9.27958 1.87391 9.30296 1.90385C9.32634 1.9338 9.35623 1.95802 9.39038 1.97468C9.42452 1.99134 9.46201 2 9.5 2H10.25V2.5H7.25V2Z" fill="white"/>
<path d="M12.75 12.75C12.7498 12.8826 12.6971 13.0096 12.6034 13.1034C12.5096 13.1971 12.3826 13.2498 12.25 13.25H10.75V13.75H12.25C12.5151 13.7497 12.7693 13.6442 12.9568 13.4568C13.1442 13.2693 13.2497 13.0151 13.25 12.75V10.5H12.75V12.75Z" fill="white"/>
<path d="M12.25 12.5V10.75H11.75V12.25H10.75V12.75H12C12.0663 12.75 12.1299 12.7237 12.1768 12.6768C12.2237 12.6299 12.25 12.5663 12.25 12.5Z" fill="white"/>
<path d="M7.75 3.75C7.75 3.6837 7.72366 3.62011 7.67678 3.57322C7.62989 3.52634 7.5663 3.5 7.5 3.5H6.5C6.4337 3.5 6.37011 3.52634 6.32322 3.57322C6.27634 3.62011 6.25 3.6837 6.25 3.75V4.75C6.25 4.8163 6.27634 4.87989 6.32322 4.92678C6.37011 4.97366 6.4337 5 6.5 5H7.5C7.5663 5 7.62989 4.97366 7.67678 4.92678C7.72366 4.87989 7.75 4.8163 7.75 4.75V3.75ZM7.25 4.5H6.75V4H7.25V4.5Z" fill="white"/>
<path d="M7.5 5.75H6.5C6.4337 5.75 6.37011 5.77634 6.32322 5.82322C6.27634 5.87011 6.25 5.9337 6.25 6V7C6.25 7.0663 6.27634 7.12989 6.32322 7.17678C6.37011 7.22366 6.4337 7.25 6.5 7.25H7.5C7.5663 7.25 7.62989 7.22366 7.67678 7.17678C7.72366 7.12989 7.75 7.0663 7.75 7V6C7.75 5.9337 7.72366 5.87011 7.67678 5.82322C7.62989 5.77634 7.5663 5.75 7.5 5.75ZM7.25 6.75H6.75V6.25H7.25V6.75Z" fill="white"/>
<path d="M8.25 3.5H8.75V4H8.25V3.5Z" fill="white"/>
<path d="M8.25 4.5H11.25V5H8.25V4.5Z" fill="white"/>
<path d="M9.25 3.5H11.25V4H9.25V3.5Z" fill="white"/>
<path d="M8.25 5.75H8.75V6.25H8.25V5.75Z" fill="white"/>
<path d="M8.25 6.75H11.25V7.25H8.25V6.75Z" fill="white"/>
<path d="M9.25 5.75H11.25V6.25H9.25V5.75Z" fill="white"/>
</svg>
