<svg width="16" height="16" viewBox="0 0 16 16" fill="none" xmlns="http://www.w3.org/2000/svg">
<path d="M0.72631 6.99175H2.06849C2.14787 7.27801 2.26222 7.5534 2.40927 7.81149L1.4593 8.76109C1.41394 8.80645 1.38842 8.86797 1.38842 8.93224C1.38842 8.9965 1.41394 9.05803 1.4593 9.10339L2.48564 10.13C2.58014 10.2243 2.73324 10.2243 2.82775 10.13L3.77782 9.17984C4.03591 9.3268 4.31102 9.44125 4.59728 9.52054V10.8627C4.59728 10.9963 4.70558 11.1046 4.83921 11.1046H6.29083C6.42446 11.1046 6.53276 10.9963 6.53276 10.8627V9.52054C6.81902 9.44125 7.09413 9.3268 7.35222 9.17984L8.30229 10.13C8.39831 10.2207 8.54848 10.2207 8.64441 10.13L9.67093 9.10339C9.71629 9.05803 9.74181 8.9965 9.74181 8.93224C9.74181 8.86797 9.71629 8.80645 9.67093 8.76109L8.72077 7.81149C8.86782 7.5534 8.98217 7.27801 9.06155 6.99175H10.4037C10.5374 6.99175 10.6457 6.88344 10.6457 6.74981V5.2982C10.6457 5.16466 10.5374 5.05626 10.4037 5.05626H9.06155C8.98217 4.7701 8.86782 4.49471 8.72077 4.23661L9.67074 3.28701C9.7161 3.24165 9.74162 3.18013 9.74162 3.11586C9.74162 3.0516 9.7161 2.99008 9.67074 2.94471L8.64441 1.91809C8.5499 1.82368 8.3968 1.82368 8.30229 1.91809L7.35222 2.86826C7.09413 2.7214 6.81893 2.60695 6.53276 2.52756V1.18529C6.53276 1.05176 6.42446 0.943359 6.29083 0.943359H4.83921C4.70558 0.943359 4.59728 1.05176 4.59728 1.18529V2.52756C4.31111 2.60695 4.03591 2.7214 3.77782 2.86826L2.82775 1.91809C2.73173 1.82737 2.58156 1.82737 2.48564 1.91809L1.45911 2.94471C1.41375 2.99008 1.38823 3.0516 1.38823 3.11586C1.38823 3.18013 1.41375 3.24165 1.45911 3.28701L2.40927 4.23661C2.26222 4.49471 2.14787 4.7701 2.06849 5.05626H0.72631C0.592679 5.05626 0.484375 5.16466 0.484375 5.2982V6.74981C0.484375 6.88344 0.592679 6.99175 0.72631 6.99175ZM0.968246 5.54013H2.25778C2.37147 5.54013 2.46985 5.46103 2.49414 5.34999C2.57353 4.98765 2.71708 4.64233 2.918 4.33046C2.97933 4.23482 2.96573 4.10922 2.8853 4.02879L1.97228 3.11577L2.65669 2.43126L3.56952 3.34429C3.64995 3.4249 3.77564 3.43851 3.87147 3.37708C4.18344 3.17625 4.52867 3.0327 4.891 2.95322C5.00195 2.92884 5.08115 2.83046 5.08115 2.71677V1.42723H6.04889V2.71677C6.04889 2.83046 6.12809 2.92884 6.23904 2.95322C6.60137 3.0327 6.9466 3.17625 7.25857 3.37708C7.3544 3.43851 7.48009 3.4249 7.56051 3.34429L8.47335 2.43126L9.15757 3.11577L8.24474 4.02851C8.16413 4.10903 8.15061 4.23472 8.21204 4.33046C8.41296 4.64251 8.55632 4.98775 8.63562 5.35018C8.66 5.46122 8.75838 5.54042 8.87198 5.54042H10.1618V6.50816H8.87198C8.75838 6.50816 8.66 6.58726 8.63562 6.69831C8.55632 7.06064 8.41287 7.40587 8.21204 7.71755C8.15071 7.81329 8.16431 7.93889 8.24474 8.01931L9.15776 8.93214L8.47335 9.61684L7.56051 8.70372C7.48009 8.6232 7.3544 8.6096 7.25857 8.67102C6.94679 8.87194 6.60166 9.0155 6.23932 9.09488C6.12818 9.11908 6.04889 9.21755 6.04889 9.33124V10.6208H5.08115V9.33124C5.08115 9.21755 5.00186 9.11908 4.89072 9.09488C4.52838 9.0155 4.18325 8.87194 3.87147 8.67102C3.77564 8.6096 3.64995 8.6232 3.56952 8.70372L2.65669 9.61684L1.97247 8.93233L2.8853 8.0195C2.96591 7.93907 2.97943 7.81338 2.918 7.71755C2.71708 7.40559 2.57353 7.06026 2.49414 6.69783C2.46976 6.58679 2.37147 6.50788 2.25778 6.50788H0.968246V5.54013Z" fill="white"/>
<path d="M5.56439 7.95935C6.63335 7.95935 7.49988 7.09292 7.49988 6.02387C7.49988 4.95491 6.63335 4.08838 5.56439 4.08838C4.49543 4.08838 3.62891 4.95491 3.62891 6.02387C3.63004 7.09226 4.496 7.95822 5.56439 7.95935ZM5.56439 4.57225C6.36599 4.57225 7.01601 5.22226 7.01601 6.02387C7.01601 6.82556 6.36599 7.47548 5.56439 7.47548C4.76279 7.47548 4.11278 6.82556 4.11278 6.02387C4.11363 5.22245 4.76298 4.5731 5.56439 4.57225Z" fill="white"/>
<path d="M5.56559 8.68537C7.03534 8.68537 8.22687 7.49393 8.22687 6.02408C8.22687 4.55432 7.03534 3.36279 5.56559 3.36279C4.09583 3.36279 2.9043 4.55432 2.9043 6.02408C2.90609 7.49318 4.09649 8.68367 5.56559 8.68537ZM5.56559 3.84666C6.76817 3.84666 7.743 4.82149 7.743 6.02408C7.743 7.22667 6.76817 8.2015 5.56559 8.2015C4.363 8.2015 3.38817 7.22667 3.38817 6.02408C3.38949 4.82215 4.36356 3.84799 5.56559 3.84666Z" fill="white"/>
<path d="M14.2747 12.0726V10.1371C14.2747 10.0036 14.1664 9.89519 14.0328 9.89519H13.5489V7.95971C13.5489 7.82617 13.4406 7.71777 13.307 7.71777H11.1295C10.9959 7.71777 10.8876 7.82617 10.8876 7.95971V9.89519H9.67792C9.54429 9.89519 9.43599 10.0036 9.43599 10.1371V12.0726H1.69405C1.02627 12.0735 0.485226 12.6145 0.484375 13.2823V13.7662C0.485226 14.434 1.02627 14.9751 1.69405 14.9758H14.2747C14.9425 14.9751 15.4835 14.434 15.4844 13.7662V13.2823C15.4835 12.6145 14.9425 12.0735 14.2747 12.0726ZM13.7908 12.0726H12.0973V10.3791H13.7908V12.0726ZM11.3715 8.20164H13.065V9.89519H11.3715V8.20164ZM9.91986 10.3791H11.6134V12.0726H9.91986V10.3791ZM15.0005 13.7662C15.0005 14.167 14.6755 14.492 14.2747 14.492H1.69405C1.29325 14.492 0.968246 14.167 0.968246 13.7662V13.2823C0.968246 12.8815 1.29325 12.5565 1.69405 12.5565H14.2747C14.6755 12.5565 15.0005 12.8815 15.0005 13.2823V13.7662Z" fill="white"/>
<path d="M7.98362 12.7983C7.58282 12.7983 7.25781 13.1233 7.25781 13.5241C7.25781 13.925 7.58282 14.2499 7.98362 14.2499C8.38442 14.2499 8.70943 13.925 8.70943 13.5241C8.70943 13.1233 8.38442 12.7983 7.98362 12.7983ZM7.98362 13.7661C7.84999 13.7661 7.74168 13.6578 7.74168 13.5241C7.74168 13.3906 7.84999 13.2822 7.98362 13.2822C8.11725 13.2822 8.22556 13.3906 8.22556 13.5241C8.22556 13.6578 8.11725 13.7661 7.98362 13.7661Z" fill="white"/>
<path d="M5.5637 12.7983C5.1629 12.7983 4.83789 13.1233 4.83789 13.5241C4.83789 13.925 5.1629 14.2499 5.5637 14.2499C5.96449 14.2499 6.2895 13.925 6.2895 13.5241C6.2895 13.1233 5.96449 12.7983 5.5637 12.7983ZM5.5637 13.7661C5.43006 13.7661 5.32176 13.6578 5.32176 13.5241C5.32176 13.3906 5.43006 13.2822 5.5637 13.2822C5.69733 13.2822 5.80563 13.3906 5.80563 13.5241C5.80563 13.6578 5.69733 13.7661 5.5637 13.7661Z" fill="white"/>
<path d="M10.4035 12.7983C10.0027 12.7983 9.67773 13.1233 9.67773 13.5241C9.67773 13.925 10.0027 14.2499 10.4035 14.2499C10.8043 14.2499 11.1293 13.925 11.1293 13.5241C11.1293 13.1233 10.8043 12.7983 10.4035 12.7983ZM10.4035 13.7661C10.2699 13.7661 10.1616 13.6578 10.1616 13.5241C10.1616 13.3906 10.2699 13.2822 10.4035 13.2822C10.5372 13.2822 10.6455 13.3906 10.6455 13.5241C10.6455 13.6578 10.5372 13.7661 10.4035 13.7661Z" fill="white"/>
<path d="M3.14573 12.7983C2.74493 12.7983 2.41992 13.1233 2.41992 13.5241C2.41992 13.925 2.74493 14.2499 3.14573 14.2499C3.54653 14.2499 3.87153 13.925 3.87153 13.5241C3.87153 13.1233 3.54653 12.7983 3.14573 12.7983ZM3.14573 13.7661C3.0121 13.7661 2.90379 13.6578 2.90379 13.5241C2.90379 13.3906 3.0121 13.2822 3.14573 13.2822C3.27936 13.2822 3.38766 13.3906 3.38766 13.5241C3.38766 13.6578 3.27936 13.7661 3.14573 13.7661Z" fill="white"/>
<path d="M12.8215 12.7983C12.4207 12.7983 12.0957 13.1233 12.0957 13.5241C12.0957 13.925 12.4207 14.2499 12.8215 14.2499C13.2223 14.2499 13.5473 13.925 13.5473 13.5241C13.5473 13.1233 13.2223 12.7983 12.8215 12.7983ZM12.8215 13.7661C12.6879 13.7661 12.5796 13.6578 12.5796 13.5241C12.5796 13.3906 12.6879 13.2822 12.8215 13.2822C12.9551 13.2822 13.0634 13.3906 13.0634 13.5241C13.0634 13.6578 12.9551 13.7661 12.8215 13.7661Z" fill="white"/>
</svg>
