<svg width="16" height="16" viewBox="0 0 16 16" fill="none" xmlns="http://www.w3.org/2000/svg">
<g clip-path="url(#clip0)">
<path d="M0.296569 16H11.9119C12.0656 16 12.1743 15.8582 12.1743 15.7043V9.69986L15.8933 5.98057C16.0028 5.87296 16.0045 5.69701 15.897 5.58736L14.4171 4.10557C14.3058 3.99701 14.1282 3.99687 14.0168 4.1053L12.1743 5.93668V3.11128C12.1773 3.03845 12.1506 2.96753 12.1006 2.9144L9.28896 0.0900815C9.23923 0.0354619 9.1698 0.00298913 9.09603 0H0.296569C0.143037 0 0.0351562 0.141848 0.0351562 0.295516V15.7045C0.0351562 15.8582 0.143037 16 0.296569 16ZM9.17999 9.96916L10.0373 10.8265L8.74942 11.2571L9.17999 9.96916ZM10.5519 10.5539L9.45241 9.45462L12.9834 5.93152L14.075 7.0231L10.5519 10.5539ZM14.2221 4.69565L15.3108 5.78437L14.4679 6.62921L13.3774 5.53845L14.2221 4.69565ZM9.39168 0.967255L11.2402 2.81739H9.39168V0.967255ZM0.591678 0.556522H8.83516V3.11128C8.8319 3.18166 8.85812 3.25014 8.90785 3.3C8.95744 3.35 9.02565 3.37677 9.09603 3.37391H11.6178V6.49198L8.85418 9.2572C8.82497 9.28573 8.80323 9.32092 8.79086 9.35978L8.39847 10.5391H2.38991C2.23624 10.5391 2.11165 10.6637 2.11165 10.8174C2.11165 10.9711 2.23624 11.0957 2.38991 11.0957H8.2126L8.04494 11.6035C8.01152 11.7024 8.0376 11.812 8.11206 11.8852C8.13162 11.9048 8.15377 11.9304 8.17728 11.9304H2.38991C2.23624 11.9304 2.11165 12.055 2.11165 12.2087C2.11165 12.3624 2.23624 12.487 2.38991 12.487H9.79874C9.95255 12.487 10.077 12.3624 10.077 12.2087C10.077 12.055 9.95255 11.9304 9.79874 11.9304H8.45296L10.6403 11.2053C10.6788 11.1927 10.7136 11.1705 10.7413 11.1412L11.6178 10.2576V15.4435H0.591678V0.556522Z" fill="white"/>
<path d="M9.79842 13.3218H2.38959C2.23592 13.3218 2.11133 13.4464 2.11133 13.6C2.11133 13.7537 2.23592 13.8783 2.38959 13.8783H9.79842C9.95222 13.8783 10.0767 13.7537 10.0767 13.6C10.0767 13.4464 9.95222 13.3218 9.79842 13.3218Z" fill="white"/>
<path d="M2.38959 9.70447H6.32016C6.47396 9.70447 6.59842 9.57988 6.59842 9.42621C6.59842 9.27254 6.47396 9.14795 6.32016 9.14795H2.38959C2.23592 9.14795 2.11133 9.27254 2.11133 9.42621C2.11133 9.57988 2.23592 9.70447 2.38959 9.70447Z" fill="white"/>
</g>
<defs>
<clipPath id="clip0">
<rect width="16" height="16" fill="white"/>
</clipPath>
</defs>
</svg>
