<svg width="8" height="8" viewBox="0 0 8 8" fill="none" xmlns="http://www.w3.org/2000/svg">
<path d="M2.33317 1.99984V0.999837C2.33317 0.911432 2.36829 0.826647 2.4308 0.764135C2.49331 0.701623 2.5781 0.666504 2.6665 0.666504H5.33317C5.42158 0.666504 5.50636 0.701623 5.56887 0.764135C5.63139 0.826647 5.6665 0.911432 5.6665 0.999837V1.99984H7.33317V2.6665H6.6665V6.99984C6.6665 7.08824 6.63139 7.17303 6.56887 7.23554C6.50636 7.29805 6.42158 7.33317 6.33317 7.33317H1.6665C1.5781 7.33317 1.49331 7.29805 1.4308 7.23554C1.36829 7.17303 1.33317 7.08824 1.33317 6.99984V2.6665H0.666504V1.99984H2.33317ZM4.47117 4.6665L5.0605 4.07717L4.58917 3.60584L3.99984 4.19517L3.4105 3.60584L2.93917 4.07717L3.5285 4.6665L2.93917 5.25584L3.4105 5.72717L3.99984 5.13784L4.58917 5.72717L5.0605 5.25584L4.47117 4.6665ZM2.99984 1.33317V1.99984H4.99984V1.33317H2.99984Z" fill="white"/>
</svg>
