<svg width="16" height="16" viewBox="0 0 16 16" fill="none" xmlns="http://www.w3.org/2000/svg">
<g clip-path="url(#clip0)">
<path d="M14.9129 8.35868C14.1776 7.62674 13.3277 8.31181 13.3277 8.31181V4.45863C13.3277 4.32924 13.2228 4.22426 13.0934 4.22426C12.9639 4.22426 12.859 4.32924 12.859 4.45863V8.64152C12.859 8.64152 11.7415 9.52251 11.2611 9.73784V2.80006C11.2611 2.47754 11.5235 2.21521 11.846 2.21521H12.2742C12.5967 2.21521 12.859 2.47754 12.859 2.80006V3.49916C12.859 3.62867 12.9639 3.73353 13.0934 3.73353C13.2228 3.73353 13.3277 3.62867 13.3277 3.49916V2.80006C13.3277 2.21912 12.8551 1.74658 12.2742 1.74658H11.846C11.265 1.74658 10.7924 2.21912 10.7924 2.80006V9.92363C10.6526 9.96282 10.5092 9.98943 10.3634 10.0035V5.0624C10.3634 4.47853 9.88844 4.00355 9.3047 4.00355H8.88685C8.3031 4.00355 7.82812 4.47853 7.82812 5.0624V7.45035L7.39904 7.67814V6.88345C7.39904 6.35781 6.97143 5.9302 6.44591 5.9302H5.817C5.29137 5.9302 4.86387 6.35781 4.86387 6.88345V9.02385L4.09861 9.42998L1.94967 10.0441C1.57577 10.1509 1.26351 10.3958 1.07064 10.7335C0.877643 11.0712 0.825275 11.4645 0.923176 11.8409L1.16353 12.7657C1.196 12.8909 1.32393 12.966 1.4493 12.9335C1.57455 12.9009 1.64974 12.773 1.61715 12.6476L1.37679 11.723C1.23739 11.1866 1.54562 10.647 2.07858 10.4948L4.04331 9.93328L5.52 13.8745C5.61888 14.1384 5.60326 14.8913 4.82212 15.1688L3.33737 15.5061C2.81992 15.6235 2.31002 15.3133 2.17648 14.7996L1.87509 13.6398C1.84249 13.5146 1.71456 13.4394 1.58932 13.4719C1.46395 13.5045 1.38888 13.6324 1.42135 13.7578L1.72286 14.9177C1.8923 15.5693 2.47116 15.9998 3.11557 15.9998C3.58909 15.9998 4.92601 15.6258 4.92601 15.6258C5.33287 15.5335 5.6798 15.2699 5.87767 14.9027C6.041 14.5997 6.08947 14.251 6.0194 13.9189L11.1561 12.6613C11.581 12.5572 11.9843 12.3554 12.3222 12.0777L14.8219 10.0237C15.584 9.34782 15.137 8.58171 14.9129 8.35868ZM8.88685 4.47231H9.3047C9.63002 4.47231 9.89466 4.73708 9.89466 5.0624V10.0152L8.41577 10.0146C8.27991 10.0134 8.3739 9.92363 8.38135 9.91753L8.80726 9.57256C9.2046 9.25065 9.46412 8.80314 9.5785 8.24223C9.65113 7.88639 9.51539 7.53019 9.22449 7.31265C8.95276 7.10953 8.60328 7.07047 8.29688 7.20474V5.0624C8.29688 4.73708 8.56153 4.47231 8.88685 4.47231ZM5.33263 6.88345C5.33263 6.61636 5.54991 6.39895 5.817 6.39895H6.44591C6.71301 6.39895 6.93041 6.61636 6.93041 6.88345V7.92692L5.3325 8.77507V6.88345H5.33263ZM14.5245 9.66167L12.0246 11.7156C11.7406 11.949 11.4018 12.1186 11.0447 12.206L5.8701 13.473L4.47849 9.7592L8.45191 7.65006C8.61341 7.56424 8.79737 7.57853 8.94373 7.68802C9.09009 7.79752 9.15577 7.96964 9.11927 8.1486C9.02711 8.60014 8.82288 8.95671 8.51221 9.2083L8.0863 9.55339C7.91174 9.69475 7.84741 9.9229 7.92236 10.1347C7.99731 10.3464 8.19092 10.4833 8.41553 10.4833L10.1232 10.4841H10.1244C10.7323 10.4841 11.3165 10.2992 11.8139 9.94951L13.7223 8.60746C13.9895 8.41947 14.3493 8.45268 14.5776 8.68632C14.709 8.8206 14.9664 9.21965 14.5245 9.66167Z" fill="white"/>
<path d="M4.62208 14.025C4.62208 13.5159 4.20789 13.1016 3.69874 13.1016C3.18958 13.1016 2.77539 13.5159 2.77539 14.025C2.77539 14.5341 3.18958 14.9484 3.69874 14.9484C4.20789 14.9484 4.62208 14.5341 4.62208 14.025ZM3.24414 14.025C3.24414 13.7743 3.448 13.5703 3.69874 13.5703C3.94935 13.5703 4.15333 13.7743 4.15333 14.025C4.15333 14.2756 3.94947 14.4796 3.69874 14.4796C3.448 14.4796 3.24414 14.2756 3.24414 14.025Z" fill="white"/>
<path d="M2.01359 7.35881L5.4206 3.92556L6.18696 4.32192C6.4615 4.46389 6.7956 4.41531 7.01826 4.20095L8.87277 2.41579C8.87277 2.41579 8.82174 3.33266 9.59384 3.33266C9.9913 3.33266 10.3148 3.00917 10.3148 2.61159V0.720951C10.3148 0.718754 10.3147 0.716435 10.3147 0.714116C10.3121 0.220826 9.95138 0 9.59384 0H7.71968C7.3221 0 6.99873 0.323488 6.99873 0.720951C6.99873 1.51344 7.80525 1.4419 7.80525 1.4419L6.39045 2.80373L5.61298 2.40163C5.33185 2.25612 4.9931 2.30946 4.76996 2.53407L0.990149 6.34305C0.710118 6.62528 0.711827 7.08268 0.994056 7.36271C1.13004 7.4976 1.5944 7.778 2.01359 7.35881ZM1.32279 6.67326L5.1026 2.86427C5.15143 2.8152 5.2298 2.72926 5.39765 2.81801L6.32429 3.29726C6.41352 3.3434 6.52216 3.32766 6.59455 3.25795L8.54915 1.37647C8.618 1.31019 8.63973 1.20863 8.60396 1.12C8.5682 1.03126 8.48226 0.973272 8.38656 0.973272H7.71968C7.58064 0.973272 7.46748 0.860112 7.46748 0.720951C7.46748 0.581913 7.58064 0.468753 7.71968 0.468753H9.59384C9.66281 0.468753 9.84592 0.468753 9.84592 0.719487C9.84592 0.721562 9.84604 0.723637 9.84604 0.725834V2.61159C9.84604 2.75063 9.73288 2.86379 9.59384 2.86379C9.45468 2.86379 9.34152 2.75063 9.34152 2.61159V1.86488C9.34152 1.77088 9.28537 1.68592 9.19894 1.64918C9.11251 1.61231 9.01241 1.63087 8.94466 1.69605L6.69319 3.8633C6.6153 3.93826 6.49836 3.95535 6.40241 3.90566L5.48322 3.4302C5.39228 3.3832 5.28131 3.40065 5.20917 3.47329L1.68095 7.02861C1.52714 7.18242 1.37174 7.07719 1.32414 7.02995C1.2255 6.93193 1.22489 6.77189 1.32279 6.67326Z" fill="white"/>
</g>
<defs>
<clipPath id="clip0">
<rect width="16" height="16" fill="white"/>
</clipPath>
</defs>
</svg>
