<svg width="40" height="44" viewBox="0 0 40 44" fill="none" xmlns="http://www.w3.org/2000/svg">
<path d="M0 5.45906C0 4.01122 0.575149 2.62269 1.59892 1.59892C2.62269 0.575149 4.01123 0 5.45906 0L21.8362 0C23.2841 0 24.6726 0.575149 25.6964 1.59892C26.7201 2.62269 27.2953 4.01122 27.2953 5.45906V38.2134C27.2953 39.6612 26.7201 41.0498 25.6964 42.0735C24.6726 43.0973 23.2841 43.6725 21.8362 43.6725H5.45906C4.01123 43.6725 2.62269 43.0973 1.59892 42.0735C0.575149 41.0498 0 39.6612 0 38.2134V5.45906ZM16.3772 35.4839C16.3772 34.76 16.0896 34.0657 15.5777 33.5538C15.0658 33.0419 14.3716 32.7543 13.6476 32.7543C12.9237 32.7543 12.2295 33.0419 11.7176 33.5538C11.2057 34.0657 10.9181 34.76 10.9181 35.4839C10.9181 36.2078 11.2057 36.9021 11.7176 37.4139C12.2295 37.9258 12.9237 38.2134 13.6476 38.2134C14.3716 38.2134 15.0658 37.9258 15.5777 37.4139C16.0896 36.9021 16.3772 36.2078 16.3772 35.4839Z" fill="#5C8C24"/>
<path d="M24.5932 25.3691L24.8128 24.7109H24.1189H17.7665C16.2858 24.7109 15.0903 23.5154 15.0903 22.0347V9.32999C15.0903 7.84931 16.2858 6.65381 17.7665 6.65381H36.8236C38.3043 6.65381 39.4998 7.84931 39.4998 9.32999V22.0347C39.4998 23.5154 38.3043 24.7109 36.8236 24.7109H31.5283H31.3769L31.2509 24.7949L22.9354 30.3386L24.5932 25.3691Z" fill="#5C8C24" stroke="white"/>
<path d="M22.9165 19.9975L32.0451 16.0844C32.1395 16.0442 32.22 15.9772 32.2765 15.8916C32.3331 15.806 32.3632 15.7057 32.3632 15.6032C32.3632 15.5006 32.3331 15.4003 32.2765 15.3147C32.22 15.2291 32.1395 15.1621 32.0451 15.1219L22.9165 11.2088C22.8374 11.1744 22.751 11.1601 22.6651 11.1674C22.5792 11.1746 22.4964 11.2031 22.4243 11.2504C22.3521 11.2976 22.2928 11.3621 22.2518 11.4379C22.2108 11.5138 22.1893 11.5987 22.1893 11.6849L22.1841 14.0965C22.1841 14.3581 22.3776 14.5831 22.6392 14.6144L30.0311 15.6032L22.6392 16.5867C22.3776 16.6233 22.1841 16.8482 22.1841 17.1098L22.1893 19.5214C22.1893 19.8929 22.5712 20.1492 22.9165 19.9975Z" fill="white"/>
</svg>
