<svg width="16" height="16" viewBox="0 0 16 16" fill="none" xmlns="http://www.w3.org/2000/svg">
<g clip-path="url(#clip0)">
<path d="M3.73281 10.5332C2.85041 10.5332 2.13281 11.2508 2.13281 12.1332C2.13281 13.0156 2.85041 13.7332 3.73281 13.7332C4.61522 13.7332 5.33281 13.0156 5.33281 12.1332C5.33281 11.2508 4.61519 10.5332 3.73281 10.5332ZM3.73281 13.1999C3.14453 13.1999 2.66616 12.7215 2.66616 12.1332C2.66616 11.5449 3.14456 11.0665 3.73281 11.0665C4.32106 11.0665 4.79947 11.545 4.79947 12.1332C4.79947 12.7215 4.32106 13.1999 3.73281 13.1999Z" fill="white"/>
<path d="M12.7992 10.5332C11.9168 10.5332 11.1992 11.2508 11.1992 12.1332C11.1992 13.0156 11.9168 13.7332 12.7992 13.7332C13.6816 13.7332 14.3992 13.0156 14.3992 12.1332C14.3992 11.2508 13.6816 10.5332 12.7992 10.5332ZM12.7992 13.1999C12.2109 13.1999 11.7326 12.7215 11.7326 12.1332C11.7326 11.5449 12.211 11.0665 12.7992 11.0665C13.3875 11.0665 13.8659 11.545 13.8659 12.1332C13.8659 12.7215 13.3875 13.1999 12.7992 13.1999Z" fill="white"/>
<path d="M15.9571 9.05546L13.5571 5.32211C13.508 5.24583 13.4235 5.19971 13.3328 5.19971H10.3995C10.252 5.19971 10.1328 5.31918 10.1328 5.46636V12.133C10.1328 12.2805 10.252 12.3997 10.3995 12.3997H11.4661V11.8663H10.6661V5.73305H13.1872L15.4661 9.27811V11.8664H14.1328V12.3997H15.7328C15.8802 12.3997 15.9994 12.2805 15.9994 12.1331V9.19971C15.9995 9.14877 15.9848 9.09836 15.9571 9.05546Z" fill="white"/>
<path d="M11.7325 8.6666V6.79995H13.8659V6.2666H11.4659C11.3184 6.2666 11.1992 6.38607 11.1992 6.53326V8.93326C11.1992 9.08073 11.3184 9.19992 11.4659 9.19992H15.4659V8.66657H11.7325V8.6666Z" fill="white"/>
<path d="M10.4 3.3335H0.266656C0.119469 3.3335 0 3.45296 0 3.60015V12.1335C0 12.281 0.119469 12.4002 0.266656 12.4002H2.4V11.8668H0.533344V3.86681H10.1333V11.8668H5.06666V12.4002H10.4C10.5475 12.4002 10.6667 12.281 10.6667 12.1335V3.60015C10.6667 3.45296 10.5475 3.3335 10.4 3.3335Z" fill="white"/>
<path d="M1.86563 10.8003H0.265625V11.3336H1.86563V10.8003Z" fill="white"/>
<path d="M10.1329 10.8003H5.59961V11.3336H10.1329V10.8003Z" fill="white"/>
<path d="M15.7327 10.8003H14.666V11.3336H15.7327V10.8003Z" fill="white"/>
<path d="M10.3997 4.3999H1.06641V4.93325H10.3997V4.3999Z" fill="white"/>
<path d="M4.00014 11.8667H3.4668V12.4H4.00014V11.8667Z" fill="white"/>
<path d="M13.0665 11.8667H12.5332V12.4H13.0665V11.8667Z" fill="white"/>
<path d="M4.79975 2.2666H1.06641V2.79995H4.79975V2.2666Z" fill="white"/>
<path d="M0.533344 2.2666H0V2.79995H0.533344V2.2666Z" fill="white"/>
</g>
<defs>
<clipPath id="clip0">
<rect width="16" height="16" fill="white"/>
</clipPath>
</defs>
</svg>
