<svg width="13" height="13" viewBox="0 0 13 13" fill="none" xmlns="http://www.w3.org/2000/svg">
<path d="M1.35737 8.44785L1.34005 7.61922C1.33534 7.39379 1.33333 7.15935 1.33333 6.91667C1.33333 5.43587 1.92158 4.01573 2.96865 2.96865C4.01573 1.92158 5.43587 1.33333 6.91667 1.33333C7.20594 1.33333 7.37538 1.35464 8.13843 1.46943L1.35737 8.44785ZM1.35737 8.44785L1.80114 7.74786M1.35737 8.44785L1.80114 7.74786M1.80114 7.74786C2.57148 6.53278 3.68869 5.55169 5.16057 4.68072M1.80114 7.74786L5.16057 4.68072M5.16057 4.68072L5.57389 5.40404C3.75723 6.48103 2.51491 7.72882 1.86597 9.49721L1.74262 9.83333H2.10067H4.25C6.3128 9.83333 8.03123 9.15002 9.24144 7.78851C10.4477 6.43143 11.122 4.43109 11.1646 1.84612L11.1693 1.56615L10.8905 1.59317C10.0034 1.67916 9.17543 1.62501 8.13852 1.46945L5.16057 4.68072ZM12 0.565692V1.58333C12 4.74635 11.118 7.01187 9.7251 8.48499C8.33283 9.95739 6.4033 10.6667 4.25 10.6667H1.74533H1.53441L1.4989 10.8746C1.39773 11.4669 1.34267 12.0661 1.33417 12.6667H0.502016C0.514964 11.8709 0.590195 11.1452 0.725661 10.4784L0.73514 10.4318L0.726809 10.3849C0.577182 9.5431 0.5 8.38906 0.5 6.91667C0.5 3.37274 3.37274 0.5 6.91667 0.5C7.23054 0.5 7.54858 0.539245 7.90113 0.59109C7.97394 0.601797 8.04832 0.61306 8.1243 0.624566C8.41205 0.668138 8.72281 0.715195 9.05846 0.748759C9.84972 0.827885 10.7872 0.833443 12 0.565692Z" stroke="white" stroke-width="0.5"/>
</svg>
