<svg width="16" height="16" viewBox="0 0 16 16" fill="none" xmlns="http://www.w3.org/2000/svg">
<path d="M1.42614 7.05005L1.38512 7.3356H1.6736H2.4C2.54587 7.3356 2.68576 7.39355 2.78891 7.49669C2.89205 7.59984 2.95 7.73973 2.95 7.8856V12C2.95 12.1459 2.89205 12.2858 2.78891 12.3889C2.68576 12.4921 2.54587 12.55 2.4 12.55H1.6C0.837894 12.55 0.25 11.9784 0.25 11.3144V8C0.25 3.72687 3.72687 0.25 8 0.25C12.2731 0.25 15.75 3.72687 15.75 8V11.3144C15.75 11.9784 15.1621 12.55 14.4 12.55H14.15V12.8C14.15 14.4267 12.8267 15.75 11.2 15.75H6.65V13.85H9.35V14.4V14.65H9.6H11.2C12.2205 14.65 13.05 13.8205 13.05 12.8V7.8856C13.05 7.73973 13.1079 7.59984 13.2111 7.49669C13.3142 7.39355 13.4541 7.3356 13.6 7.3356H14.3264H14.6149L14.5739 7.05005C14.1117 3.8333 11.3443 1.35 8 1.35C4.65572 1.35 1.88829 3.8333 1.42614 7.05005Z" stroke="white" stroke-width="0.5"/>
</svg>
