<svg width="14" height="14" viewBox="0 0 14 14" fill="none" xmlns="http://www.w3.org/2000/svg">
<path d="M1.00051 7.66647H1.66718V12.3331C1.66718 13.0685 2.26518 13.6665 3.00051 13.6665H11.0005C11.7358 13.6665 12.3338 13.0685 12.3338 12.3331V7.66647H13.0005C13.1323 7.66645 13.2612 7.62733 13.3708 7.55408C13.4804 7.48082 13.5658 7.37671 13.6163 7.25491C13.6667 7.13311 13.6799 6.99909 13.6542 6.86979C13.6285 6.74049 13.565 6.62171 13.4718 6.52848L7.47184 0.528475C7.40998 0.466511 7.33651 0.417353 7.25564 0.383812C7.17476 0.350272 7.08806 0.333008 7.00051 0.333008C6.91295 0.333008 6.82626 0.350272 6.74538 0.383812C6.6645 0.417353 6.59103 0.466511 6.52918 0.528475L0.529176 6.52848C0.435969 6.62171 0.372498 6.74049 0.346787 6.86979C0.321075 6.99909 0.334277 7.13311 0.384724 7.25491C0.43517 7.37671 0.520597 7.48082 0.630203 7.55408C0.73981 7.62733 0.868675 7.66645 1.00051 7.66647ZM5.66718 12.3331V8.99981H8.33384V12.3331H5.66718ZM7.00051 1.94248L11.0005 5.94247V8.99981L11.0012 12.3331H9.66718V8.99981C9.66718 8.26447 9.06918 7.66647 8.33384 7.66647H5.66718C4.93184 7.66647 4.33384 8.26447 4.33384 8.99981V12.3331H3.00051V5.94247L7.00051 1.94248Z" fill="white"/>
</svg>
