<svg width="64" height="64" viewBox="0 0 64 64" fill="none" xmlns="http://www.w3.org/2000/svg">
<g clip-path="url(#clip0_1652_1711)">
<path d="M53.1878 5.13445C48.2976 5.13445 44.4338 9.05862 44.4338 13.9487C44.4338 18.8389 48.358 22.7027 53.1878 22.7027C58.0175 22.7027 62.0021 18.7785 62.0021 13.8884C62.0021 8.99825 58.0779 5.13445 53.1878 5.13445ZM53.1878 20.7708C49.3843 20.7708 46.3054 17.6918 46.3054 13.8884C46.3054 10.0849 49.4447 7.06635 53.1878 7.06635C56.9912 7.06635 60.0702 10.1453 60.0702 13.9487C60.0702 17.7522 56.9912 20.7708 53.1878 20.7708Z" fill="#5C8C24"/>
<path d="M55.9647 15.277C55.9043 15.0959 55.9043 14.9752 55.7836 14.794C55.7232 14.6733 55.6629 14.4922 55.5421 14.3714C55.4214 14.2507 55.361 14.1299 55.2403 14.0092C55.1195 13.8885 54.9988 13.7677 54.8177 13.7073C54.6969 13.5866 54.5158 13.5262 54.395 13.4659C54.2139 13.4055 54.0932 13.2847 53.9121 13.2244C53.731 13.164 53.5498 13.1036 53.4291 13.0433C53.3687 13.0433 53.248 12.9829 53.1876 12.9225C53.1272 12.8621 53.0065 12.8621 52.9461 12.8018C52.8857 12.7414 52.765 12.7414 52.7046 12.681C52.6443 12.6207 52.5839 12.5603 52.5235 12.4999C52.4631 12.4395 52.4028 12.3792 52.4028 12.2584C52.3424 12.198 52.3424 12.0773 52.3424 12.0169C52.3424 11.8962 52.3424 11.8358 52.3424 11.7151C52.3424 11.6547 52.4028 11.534 52.4028 11.4736C52.4631 11.4132 52.4631 11.2925 52.5235 11.2321C52.5839 11.1717 52.6443 11.1114 52.7046 11.051C52.765 10.9906 52.8858 10.9302 53.0065 10.9302C53.1272 10.8699 53.1876 10.8699 53.3084 10.8699C53.3687 10.8699 53.4291 10.8699 53.4895 10.8699C53.5498 10.8699 53.6102 10.8699 53.6706 10.8699C53.7913 10.8699 53.8517 10.8699 53.9724 10.9302C54.0932 10.9302 54.2139 10.9906 54.2743 10.9906C54.3347 10.9906 54.4554 11.051 54.5158 11.051C54.6365 11.051 54.6969 11.1114 54.7573 11.1114L55.0591 11.2321L55.1195 10.8699L55.2403 9.90392V9.66243L54.9988 9.60206C54.9384 9.60206 54.8177 9.54168 54.7573 9.54168C54.6969 9.54168 54.6365 9.48131 54.5158 9.48131C54.4554 9.48131 54.3347 9.42094 54.2139 9.42094C54.0932 9.42094 54.0328 9.36057 53.9121 9.36057H53.8517V8.51536V8.2135H53.5498H52.7046H52.4028V8.51536V9.42094H52.3424C52.1613 9.48131 51.9802 9.54168 51.7991 9.66243C51.6179 9.7228 51.4972 9.84354 51.3764 9.96429C51.2557 10.085 51.135 10.2058 51.0142 10.3869C50.8935 10.5076 50.8331 10.6887 50.7727 10.8699C50.7124 11.051 50.652 11.2321 50.5916 11.4132C50.5312 11.5943 50.5312 11.8358 50.5312 12.0169C50.5312 12.198 50.5312 12.3188 50.5916 12.4999C50.652 12.681 50.652 12.8018 50.7727 12.9829C50.8331 13.1036 50.9538 13.2847 51.0142 13.4055C51.135 13.5262 51.1953 13.647 51.3161 13.7677C51.4368 13.8885 51.5576 14.0092 51.7387 14.0696C51.8594 14.1903 52.0405 14.2507 52.1613 14.3111C52.3424 14.3714 52.5235 14.4922 52.6443 14.5526C52.8254 14.6129 53.0065 14.6733 53.1272 14.7337C53.1876 14.7337 53.3084 14.794 53.3687 14.8544C53.4291 14.9148 53.5498 14.9148 53.6102 14.9752C53.6706 15.0355 53.731 15.0959 53.7913 15.0959C53.8517 15.1563 53.9121 15.2166 53.9724 15.277C54.0328 15.3374 54.0328 15.3978 54.0932 15.5185C54.0932 15.5789 54.1536 15.6996 54.1536 15.8204C54.1536 15.9411 54.1536 16.0015 54.1536 16.1222C54.1536 16.1826 54.0932 16.3033 54.0328 16.3637C53.9724 16.4241 53.9121 16.4845 53.8517 16.5448C53.7913 16.6052 53.731 16.6656 53.6102 16.7259C53.5498 16.7863 53.4291 16.7863 53.3687 16.8467C53.3084 16.8467 53.1876 16.9071 53.0669 16.9071C53.0065 16.9071 52.9461 16.9071 52.8254 16.9071C52.765 16.9071 52.6443 16.9071 52.5839 16.9071C52.4631 16.9071 52.3424 16.9071 52.282 16.9071C52.1613 16.9071 52.0405 16.8467 51.9802 16.8467C51.8594 16.8467 51.7387 16.7863 51.6179 16.7259C51.4972 16.6656 51.3765 16.6656 51.2557 16.6052C51.1953 16.6052 51.135 16.5448 51.0746 16.5448C51.0142 16.5448 50.9538 16.4845 50.8935 16.4845L50.5312 16.3033L50.4709 16.7259L50.3501 17.8126V17.9938L50.5312 18.0541C50.7727 17.9938 50.8935 18.0541 51.0746 18.1145C51.1953 18.1749 51.3765 18.2352 51.4972 18.2352C51.6179 18.2956 51.7991 18.2956 51.9802 18.356C52.1613 18.4164 52.282 18.4164 52.4631 18.4164H52.5839V19.3219V19.6238H52.8857H53.731H54.0328V19.3219V18.356H54.0932C54.2743 18.2956 54.4554 18.2352 54.6365 18.1145C54.8177 18.0541 54.9384 17.9334 55.1195 17.8126C55.2403 17.6919 55.361 17.5711 55.4817 17.39C55.6025 17.2693 55.6629 17.0882 55.7836 16.9071C55.844 16.7259 55.9043 16.5448 55.9647 16.3637C56.0251 16.1826 56.0251 16.0015 56.0251 15.76C56.0251 15.5789 56.0251 15.4581 55.9647 15.277Z" fill="#5C8C24"/>
<path d="M48.9616 23.8497C48.6598 23.4271 47.9957 23.3667 47.5731 23.6686L37.7928 31.4566L25.1751 26.2042C24.8732 26.0835 24.511 26.1439 24.2695 26.325L10.7462 35.9845C10.3236 36.2863 10.2029 36.8901 10.5047 37.3127C10.6858 37.6145 10.9877 37.7353 11.2896 37.7353C11.4707 37.7353 11.6518 37.6749 11.8329 37.5542L24.9336 28.1965L37.6117 33.4489C37.9136 33.5696 38.3362 33.5092 38.5777 33.3281L48.7805 25.2383C49.2031 24.9364 49.2635 24.2723 48.9616 23.8497Z" fill="#5C8C24"/>
<path d="M63.0887 56.9337H58.6212V28.9815C58.6212 28.4381 58.1986 28.0155 57.6552 28.0155H48.7806C48.2372 28.0155 47.8146 28.4381 47.8146 28.9815V56.9337H44.5545V38.641C44.5545 38.0977 44.1319 37.6751 43.5886 37.6751H34.6535C34.1102 37.6751 33.6876 38.0977 33.6876 38.641V56.9337H30.4275V37.1921C30.4275 36.6487 30.0049 36.2261 29.4615 36.2261H20.5868C20.0435 36.2261 19.6209 36.6487 19.6209 37.1921V56.9337H16.3608V42.867C16.3608 42.3237 15.9382 41.9011 15.3949 41.9011H6.4598C5.91645 41.9011 5.49385 42.3237 5.49385 42.867V56.9337H0.965952C0.422604 56.9337 0 57.3563 0 57.8997C0 58.443 0.422604 58.8656 0.965952 58.8656H6.39943H15.2741H20.5868H29.4615H34.6535H43.5282H48.7202H57.5949H63.0283C63.5717 58.8656 63.9943 58.443 63.9943 57.8997C64.0547 57.3563 63.6321 56.9337 63.0887 56.9337ZM14.3685 56.9337H7.42575V43.833H14.3685V56.9337ZM28.4956 56.9337H21.5528V38.158H28.4956V56.9337ZM42.5622 56.9337H35.6195V39.607H42.5622V56.9337ZM56.6893 56.9337H49.7465V29.9474H56.6893V56.9337Z" fill="#5C8C24"/>
</g>
<defs>
<clipPath id="clip0_1652_1711">
<rect width="64" height="64" fill="white"/>
</clipPath>
</defs>
</svg>
