<svg width="64" height="64" viewBox="0 0 64 64" fill="none" xmlns="http://www.w3.org/2000/svg">
<path d="M405.808 54C406.03 54 406.244 54.0885 406.402 54.246C406.559 54.4036 406.648 54.6172 406.648 54.84V56.4108H415.668V54.8508C415.668 54.628 415.757 54.4144 415.914 54.2568C416.072 54.0993 416.285 54.0108 416.508 54.0108C416.731 54.0108 416.944 54.0993 417.102 54.2568C417.26 54.4144 417.348 54.628 417.348 54.8508V56.4108H420.6C421.236 56.4108 421.847 56.6635 422.297 57.1133C422.747 57.5631 423 58.1733 423 58.8096V75.6012C423 76.2375 422.747 76.8477 422.297 77.2975C421.847 77.7473 421.236 78 420.6 78H401.4C400.764 78 400.153 77.7473 399.703 77.2975C399.253 76.8477 399 76.2375 399 75.6012V58.8096C399 58.1733 399.253 57.5631 399.703 57.1133C400.153 56.6635 400.764 56.4108 401.4 56.4108H404.968V54.8388C404.968 54.6162 405.057 54.4029 405.214 54.2456C405.372 54.0883 405.585 54 405.808 54V54ZM400.68 63.2904V75.6012C400.68 75.6958 400.699 75.7894 400.735 75.8767C400.771 75.9641 400.824 76.0435 400.891 76.1103C400.958 76.1772 401.037 76.2302 401.124 76.2664C401.212 76.3026 401.305 76.3212 401.4 76.3212H420.6C420.695 76.3212 420.788 76.3026 420.876 76.2664C420.963 76.2302 421.042 76.1772 421.109 76.1103C421.176 76.0435 421.229 75.9641 421.265 75.8767C421.301 75.7894 421.32 75.6958 421.32 75.6012V63.3072L400.68 63.2904ZM407 71.5428V73.542H405V71.5428H407ZM412 71.5428V73.542H410V71.5428H412ZM417 71.5428V73.542H415V71.5428H417ZM407 66.7704V68.7696H405V66.7704H407ZM412 66.7704V68.7696H410V66.7704H412ZM417 66.7704V68.7696H415V66.7704H417ZM404.968 58.0896H401.4C401.305 58.0896 401.212 58.1082 401.124 58.1444C401.037 58.1806 400.958 58.2336 400.891 58.3005C400.824 58.3673 400.771 58.4467 400.735 58.5341C400.699 58.6214 400.68 58.715 400.68 58.8096V61.6116L421.32 61.6284V58.8096C421.32 58.715 421.301 58.6214 421.265 58.5341C421.229 58.4467 421.176 58.3673 421.109 58.3005C421.042 58.2336 420.963 58.1806 420.876 58.1444C420.788 58.1082 420.695 58.0896 420.6 58.0896H417.348V59.2044C417.348 59.4272 417.26 59.6408 417.102 59.7984C416.944 59.9559 416.731 60.0444 416.508 60.0444C416.285 60.0444 416.072 59.9559 415.914 59.7984C415.757 59.6408 415.668 59.4272 415.668 59.2044V58.0896H406.648V59.1936C406.648 59.4164 406.559 59.63 406.402 59.7876C406.244 59.9451 406.03 60.0336 405.808 60.0336C405.585 60.0336 405.371 59.9451 405.214 59.7876C405.056 59.63 404.968 59.4164 404.968 59.1936V58.0896V58.0896Z" fill="#5C8C24"/>
</svg>