<svg width="64" height="64" viewBox="0 0 64 64" fill="none" xmlns="http://www.w3.org/2000/svg">
<path d="M27.5776 32.9073L29.2601 32.1275L27.6841 31.1501C24.8523 29.394 22.8521 25.8578 22.8521 21.7041C22.8521 15.6706 27.0121 11.0527 31.8318 11.0527C36.6515 11.0527 40.8116 15.6706 40.8116 21.7042C40.8116 25.752 38.9101 29.2154 36.1901 31.0139L34.7105 31.9923L36.3136 32.7517L40.2088 34.5971L40.2143 34.5997L49.5873 39.1102C49.9055 39.2705 50.1011 39.4617 50.2245 39.6715C50.3511 39.8868 50.4387 40.1848 50.4387 40.6099V51.3291C50.4266 52.2294 49.9494 52.8585 49.1332 52.9473H14.5447C14.0152 52.9343 13.4202 52.3878 13.3485 51.3046V40.6099C13.3485 40.1848 13.4361 39.8868 13.5628 39.6715C13.6854 39.463 13.8794 39.2729 14.1942 39.1131L23.918 34.6033L23.9182 34.6032L27.5776 32.9073ZM10.8216 17.5439C12.0797 16.1104 13.6972 15.2339 15.7502 15.1501C16.6397 15.1595 17.5959 15.4229 18.5224 15.88C16.9189 20.5895 17.3407 25.8067 19.9703 30.2983C19.6958 30.5417 19.4206 30.7437 19.1456 30.9073L11.925 34.3423C11.9239 34.3429 11.9228 34.3434 11.9217 34.3439C9.47369 35.4899 8.16756 37.8298 8.03263 40.5606L8.03141 40.5852V40.6099V48.7142H1.77156C1.54219 48.7094 1.39848 48.6233 1.28075 48.4695C1.14298 48.2896 1.02511 47.9839 1 47.5689V38.9888C1 38.5845 1.07447 38.3477 1.15041 38.2147C1.21549 38.1008 1.30784 38.014 1.47979 37.9495L1.51552 37.9361L1.55012 37.92L12.4863 32.8379L14.1638 32.0584L12.5928 31.0818C10.2063 29.5982 8.78461 26.7017 8.69008 23.5231C8.70719 21.4278 9.4001 19.3232 10.8216 17.5439ZM62.1863 48.7143H55.7558L55.7559 40.61L55.7558 40.6004C55.7313 38.0373 54.4428 35.7164 51.9905 34.3715L51.965 34.3574L51.9386 34.3449L44.9898 31.0449C44.6201 30.8298 44.2456 30.5438 43.8692 30.1788C46.3216 25.9457 46.8077 20.7307 45.243 15.9861C46.1411 15.4916 47.1476 15.1748 48.1988 15.1501C50.0437 15.1699 51.7588 16.0141 53.194 17.5643C54.5326 19.1505 55.2357 21.2341 55.3079 23.5444C55.2777 26.4111 54.0068 29.1934 51.4815 31.0553L50.1398 32.0446L51.6442 32.7627L62.4312 37.9112C62.6466 38.0203 62.7709 38.1476 62.8496 38.2854C62.9329 38.4312 63 38.6509 63 38.9889V47.5911C62.9955 47.9506 62.901 48.2312 62.7705 48.4079C62.6633 48.5529 62.4982 48.6792 62.1863 48.7143Z" fill="#F4F5F6" stroke="#5C8C24" stroke-width="2"/>
</svg>
