<svg width="64" height="64" viewBox="0 0 64 64" fill="none" xmlns="http://www.w3.org/2000/svg">
<path fill-rule="evenodd" clip-rule="evenodd" d="M8 8H49.3333V14.6667H46.6667V10.6667H10.6667V41.3333H39.1827V44H8V8ZM48 25.3333C49.0609 25.3333 50.0783 24.9119 50.8284 24.1618C51.5786 23.4116 52 22.3942 52 21.3333C52 20.2725 51.5786 19.255 50.8284 18.5049C50.0783 17.7548 49.0609 17.3333 48 17.3333C46.9391 17.3333 45.9217 17.7548 45.1716 18.5049C44.4214 19.255 44 20.2725 44 21.3333C44 22.3942 44.4214 23.4116 45.1716 24.1618C45.9217 24.9119 46.9391 25.3333 48 25.3333ZM50.708 28.0133C52.44 28.0133 53.8107 28.792 54.708 29.9947C55.5467 31.1213 55.9013 32.5147 55.9813 33.8013C56.0627 35.1067 55.8747 36.4747 55.452 37.6947C55.052 38.8547 54.376 40.0547 53.3333 40.8773V54C53.3343 54.5025 53.1461 54.9869 52.8061 55.357C52.4661 55.727 51.9993 55.9555 51.4985 55.997C50.9978 56.0385 50.4997 55.89 50.1035 55.581C49.7072 55.272 49.4418 54.8251 49.36 54.3293L47.64 44H47.2427L45.2987 54.368C45.2064 54.8573 44.9348 55.2946 44.5372 55.5944C44.1395 55.8941 43.6444 56.0347 43.1485 55.9887C42.6527 55.9427 42.1919 55.7133 41.8561 55.3455C41.5204 54.9778 41.334 54.498 41.3333 54V34.9773C41.0667 35.3835 40.8036 35.792 40.544 36.2027L40.44 36.3667L40.4133 36.4093L40.4067 36.4213C40.227 36.7099 39.9767 36.9478 39.6795 37.1128C39.3823 37.2777 39.0479 37.3642 38.708 37.364H32.0413C31.5109 37.364 31.0022 37.1533 30.6271 36.7782C30.252 36.4031 30.0413 35.8944 30.0413 35.364C30.0413 34.8336 30.252 34.3249 30.6271 33.9498C31.0022 33.5747 31.5109 33.364 32.0413 33.364H37.6107C37.9347 32.8627 38.3613 32.212 38.8093 31.5587C39.276 30.8773 39.7907 30.156 40.2493 29.5907C40.472 29.3147 40.7213 29.0267 40.972 28.7907C41.0947 28.6747 41.2653 28.524 41.4733 28.3907C41.8404 28.1497 42.2689 28.0192 42.708 28.0147H50.708V28.0133Z" fill="#5C8C24"/>
</svg>
