<svg width="64" height="64" viewBox="0 0 64 64" fill="none" xmlns="http://www.w3.org/2000/svg">
<path d="M57.3332 44V25.3333H6.66656V54.6667C6.66656 55.3739 6.94752 56.0522 7.44761 56.5523C7.94771 57.0524 8.62599 57.3333 9.33323 57.3333H31.9999" stroke="#5C8C24" stroke-width="2.5" stroke-linecap="round" stroke-linejoin="round"/>
<path d="M6.66656 13.3333C6.66656 12.6261 6.94752 11.9478 7.44761 11.4477C7.94771 10.9476 8.62599 10.6667 9.33323 10.6667H54.6666C55.3738 10.6667 56.0521 10.9476 56.5522 11.4477C57.0523 11.9478 57.3332 12.6261 57.3332 13.3333V25.3333H6.66656V13.3333Z" stroke="#5C8C24" stroke-width="2.5" stroke-linejoin="round"/>
<path d="M21.3331 6.66667V17.3333" stroke="#5C8C24" stroke-width="2.5" stroke-linecap="round"/>
<path d="M42.6666 6.66667V17.3333" stroke="#5C8C24" stroke-width="2.5" stroke-linecap="round"/>
<path d="M39.9999 52C45.1546 52 49.3332 47.8213 49.3332 42.6667C49.3332 37.512 45.1546 33.3333 39.9999 33.3333C34.8452 33.3333 30.6666 37.512 30.6666 42.6667C30.6666 47.8213 34.8452 52 39.9999 52Z" stroke="#5C8C24" stroke-width="2.5"/>
<path d="M48 49.3333L56 56" stroke="#5C8C24" stroke-width="2.5" stroke-linecap="round" stroke-linejoin="round"/>
</svg>
