<svg width="64" height="64" viewBox="0 0 64 64" fill="none" xmlns="http://www.w3.org/2000/svg">
<path d="M59 9H5C2.243 9 0 11.243 0 14V50C0 52.757 2.243 55 5 55H59C61.757 55 64 52.757 64 50V14C64 11.243 61.757 9 59 9ZM2 50V17H15V53H5C3.34575 53 2 51.6541 2 50ZM59 53H17V17H56C56.5522 17 57 16.5522 57 16C57 15.4478 56.5522 15 56 15H2V14C2 12.3459 3.34575 11 5 11H59C60.6543 11 62 12.3459 62 14V15H60C59.4478 15 59 15.4478 59 16C59 16.5522 59.4478 17 60 17H62V50C62 51.6541 60.6543 53 59 53Z" fill="#5C8C24"/>
<path d="M5 12C4.7375 12 4.47875 12.1062 4.2925 12.2925C4.10625 12.4787 4 12.7363 4 13C4 13.2636 4.10625 13.5213 4.2925 13.7075C4.47875 13.8936 4.7375 14 5 14C5.2625 14 5.52 13.8936 5.7075 13.7075C5.89375 13.5213 6 13.2636 6 13C6 12.7363 5.89375 12.4787 5.7075 12.2925C5.52125 12.1062 5.2625 12 5 12Z" fill="#5C8C24"/>
<path d="M8 12C7.7375 12 7.47875 12.1062 7.2925 12.2925C7.10625 12.4787 7 12.7363 7 13C7 13.2636 7.10625 13.5213 7.2925 13.7075C7.47875 13.8936 7.7375 14 8 14C8.2625 14 8.52 13.8936 8.7075 13.7075C8.89375 13.5213 9 13.2636 9 13C9 12.7363 8.89375 12.4787 8.7075 12.2925C8.52125 12.1062 8.2625 12 8 12Z" fill="#5C8C24"/>
<path d="M11 12C10.7375 12 10.4787 12.1062 10.2925 12.2925C10.1062 12.4787 10 12.7363 10 13C10 13.2636 10.1062 13.5213 10.2925 13.7075C10.4787 13.8936 10.7375 14 11 14C11.2625 14 11.5213 13.8936 11.7075 13.7075C11.8938 13.5213 12 13.2625 12 13C12 12.7374 11.8938 12.4787 11.7075 12.2925C11.5213 12.1062 11.2637 12 11 12Z" fill="#5C8C24"/>
<path d="M5 21H12C12.5522 21 13 20.5523 13 20C13 19.4477 12.5522 19 12 19H5C4.44775 19 4 19.4477 4 20C4 20.5523 4.44775 21 5 21Z" fill="#5C8C24"/>
<path d="M12 23H5C4.44775 23 4 23.4477 4 24C4 24.5523 4.44775 25 5 25H12C12.5522 25 13 24.5523 13 24C13 23.4477 12.5522 23 12 23Z" fill="#5C8C24"/>
<path d="M12 27H5C4.44775 27 4 27.4477 4 28C4 28.5523 4.44775 29 5 29H12C12.5522 29 13 28.5523 13 28C13 27.4477 12.5522 27 12 27Z" fill="#5C8C24"/>
<path d="M9 31H5C4.44775 31 4 31.4477 4 32C4 32.5523 4.44775 33 5 33H9C9.55225 33 10 32.5523 10 32C10 31.4477 9.55225 31 9 31Z" fill="#5C8C24"/>
<path d="M9 35H5C4.44775 35 4 35.4477 4 36C4 36.5523 4.44775 37 5 37H9C9.55225 37 10 36.5523 10 36C10 35.4477 9.55225 35 9 35Z" fill="#5C8C24"/>
<path d="M6 39H5C4.44775 39 4 39.4477 4 40C4 40.5523 4.44775 41 5 41H6C6.55225 41 7 40.5523 7 40C7 39.4477 6.55225 39 6 39Z" fill="#5C8C24"/>
<path d="M27 30.0001C28.3355 30.0001 29.5911 30.5201 30.5355 31.4646C30.926 31.855 31.5591 31.855 31.9496 31.4646C32.3402 31.074 32.3402 30.441 31.9496 30.0504C29.2203 27.3211 24.7794 27.3214 22.0502 30.0504C20.7281 31.3725 20 33.1304 20 35.0001C20 36.8699 20.7281 38.6277 22.0502 39.95C23.4149 41.3146 25.2074 41.9969 27 41.9969C28.7926 41.9969 30.5851 41.3146 31.9497 39.95C32.3403 39.5594 32.3403 38.9264 31.9497 38.5357C31.5592 38.1454 30.9261 38.1454 30.5356 38.5357C29.5911 39.4801 28.3355 40.0001 27 40.0001C25.6645 40.0001 24.4089 39.4801 23.4645 38.5356C22.5201 37.5912 22 36.3357 22 35.0001C22 33.6645 22.5201 32.409 23.4645 31.4646C24.4089 30.5201 25.6645 30.0001 27 30.0001Z" fill="#5C8C24"/>
<path d="M41.0026 37.5835C42.7682 36.811 44.005 35.0472 44.005 33C44.005 30.243 41.762 28 39.005 28H35C34.4477 28 34 28.4477 34 29C34 29.0335 34.0016 29.0666 34.0049 29.0994V41C34.0049 41.5522 34.4526 42 35.0049 42C35.5571 42 36.0049 41.5522 36.0049 41V30H39.0049C40.659 30 42.0049 31.3459 42.0049 33C42.0049 34.6541 40.659 36 39.0049 36C38.6004 36 38.2358 36.2436 38.081 36.6172C37.9263 36.9909 38.0117 37.4211 38.2977 37.7071L42.2977 41.7071C42.493 41.9024 42.7489 42 43.0049 42C43.2609 42 43.5168 41.9024 43.712 41.7071C44.1026 41.3165 44.1026 40.6835 43.712 40.2929L41.0026 37.5835Z" fill="#5C8C24"/>
<path d="M57.2559 28.0319C56.8148 27.9181 56.3522 28.1159 56.1309 28.5143L52.0051 35.9408L47.8792 28.5143C47.6579 28.1158 47.1954 27.9174 46.7542 28.0319C46.3131 28.1461 46.0051 28.5443 46.0051 28.9999V40.9999C46.0051 41.5522 46.4528 41.9999 47.0051 41.9999C47.5573 41.9999 48.0051 41.5522 48.0051 40.9999V32.859L51.1309 38.4855C51.3073 38.803 51.6419 38.9999 52.0051 38.9999C52.3682 38.9999 52.7029 38.803 52.8792 38.4855L56.0051 32.859V40.9999C56.0051 41.5522 56.4528 41.9999 57.0051 41.9999C57.5573 41.9999 58.0051 41.5522 58.0051 40.9999V28.9999C58.0051 28.5441 57.6971 28.1461 57.2559 28.0319Z" fill="#5C8C24"/>
</svg>
