<svg width="64" height="64" viewBox="0 0 64 64" fill="none" xmlns="http://www.w3.org/2000/svg">
<path d="M60.5314 29.9677C60.3034 29.2054 59.7819 28.565 59.0816 28.1872C58.3814 27.8095 57.5598 27.7254 56.7975 27.9534L29.9725 35.9793C29.8239 36.0239 29.6876 36.1024 29.5744 36.2087L26.3154 39.2712C26.1801 39.3983 26.0828 39.5607 26.0345 39.74C25.9862 39.9193 25.9888 40.1085 26.042 40.2865C26.0952 40.4644 26.1969 40.624 26.3358 40.7474C26.4746 40.8708 26.645 40.9531 26.8279 40.985L31.2333 41.7545C31.3862 41.7812 31.5433 41.7719 31.692 41.7275L53.458 35.215L53.5523 37.2744L46.636 39.3437L47.2093 41.2599L54.8735 38.9667C55.0872 38.9028 55.2734 38.7693 55.4025 38.5875C55.5316 38.4056 55.5962 38.1858 55.586 37.963L55.4332 34.625L58.5173 33.7023C59.2795 33.4742 59.9199 32.9527 60.2977 32.2524C60.6754 31.5522 60.7595 30.7305 60.5314 29.9683V29.9677ZM31.3452 39.7439L29.1424 39.3592L30.7719 37.8278L35.3359 36.4625L35.9092 38.3785L31.3452 39.7439ZM37.8252 37.805L37.2519 35.889L53.2697 31.0964L53.3639 33.1559L37.8252 37.805ZM58.5377 31.3022C58.4756 31.418 58.3912 31.5203 58.2893 31.6033C58.1874 31.6862 58.0701 31.7482 57.9442 31.7855L55.339 32.5649L55.2448 30.5055L57.3709 29.8694C57.5604 29.8127 57.7624 29.8135 57.9515 29.8716C58.1405 29.9298 58.308 30.0426 58.4329 30.196C58.5578 30.3494 58.6344 30.5363 58.6531 30.7332C58.6717 30.9301 58.6315 31.1281 58.5377 31.3022Z" fill="#5C8C24"/>
<path d="M40 44H23V29C23 28.7348 22.8946 28.4804 22.7071 28.2929C22.5196 28.1054 22.2652 28 22 28H4C3.73478 28 3.48043 28.1054 3.29289 28.2929C3.10536 28.4804 3 28.7348 3 29V61C3 61.2652 3.10536 61.5196 3.29289 61.7071C3.48043 61.8946 3.73478 62 4 62H40C40.2652 62 40.5196 61.8946 40.7071 61.7071C40.8946 61.5196 41 61.2652 41 61V45C41 44.7348 40.8946 44.4804 40.7071 44.2929C40.5196 44.1054 40.2652 44 40 44ZM29 46H33V50H29V46ZM11 30H15V34H11V30ZM5 30H9V35C9 35.2652 9.10536 35.5196 9.29289 35.7071C9.48043 35.8946 9.73478 36 10 36H16C16.2652 36 16.5196 35.8946 16.7071 35.7071C16.8946 35.5196 17 35.2652 17 35V30H21V44H5V30ZM11 46H15V50H11V46ZM5 46H9V51C9 51.2652 9.10536 51.5196 9.29289 51.7071C9.48043 51.8946 9.73478 52 10 52H16C16.2652 52 16.5196 51.8946 16.7071 51.7071C16.8946 51.5196 17 51.2652 17 51V46H21V60H5V46ZM39 60H23V46H27V51C27 51.2652 27.1054 51.5196 27.2929 51.7071C27.4804 51.8946 27.7348 52 28 52H34C34.2652 52 34.5196 51.8946 34.7071 51.7071C34.8946 51.5196 35 51.2652 35 51V46H39V60Z" fill="#5C8C24"/>
<path d="M35 56H37V58H35V56Z" fill="#5C8C24"/>
<path d="M17 56H19V58H17V56Z" fill="#5C8C24"/>
<path d="M17 40H19V42H17V40Z" fill="#5C8C24"/>
<path d="M19 10C19.0006 9.46976 19.2115 8.96142 19.5865 8.58648C19.9614 8.21154 20.4698 8.00063 21 8H27V10H22C21.7348 10 21.4804 10.1054 21.2929 10.2929C21.1054 10.4804 21 10.7348 21 11V26H23V12H47V28H49V11C49 10.7348 48.8946 10.4804 48.7071 10.2929C48.5196 10.1054 48.2652 10 48 10H43V8H49C49.5302 8.00063 50.0386 8.21154 50.4135 8.58648C50.7885 8.96142 50.9994 9.46976 51 10V27H53V10C52.9988 8.9395 52.577 7.92278 51.8271 7.17289C51.0772 6.423 50.0605 6.00119 49 6H39.2808L39.9701 3.2425C40.007 3.09507 40.0097 2.94119 39.9782 2.79253C39.9467 2.64388 39.8817 2.50436 39.7882 2.38458C39.6947 2.26481 39.5751 2.16792 39.4385 2.10128C39.3019 2.03464 39.152 2 39 2H31C30.848 2 30.6981 2.03464 30.5615 2.10128C30.4249 2.16792 30.3053 2.26481 30.2118 2.38458C30.1183 2.50436 30.0533 2.64388 30.0218 2.79253C29.9903 2.94119 29.993 3.09507 30.0299 3.2425L30.7192 6H21C19.9395 6.00119 18.9228 6.423 18.1729 7.17289C17.423 7.92278 17.0012 8.9395 17 10V26H19V10ZM29 8H32C32.152 8 32.3019 7.96536 32.4385 7.89872C32.5751 7.83208 32.6947 7.73519 32.7882 7.61542C32.8817 7.49564 32.9467 7.35612 32.9782 7.20747C33.0097 7.05881 33.007 6.90493 32.9701 6.7575L32.2808 4H37.7192L37.0299 6.7575C36.993 6.90493 36.9903 7.05881 37.0218 7.20747C37.0533 7.35612 37.1183 7.49564 37.2118 7.61542C37.3053 7.73519 37.4249 7.83208 37.5615 7.89872C37.6981 7.96536 37.848 8 38 8H41V10H29V8Z" fill="#5C8C24"/>
<path d="M51 51C50.9994 51.5302 50.7885 52.0386 50.4135 52.4135C50.0386 52.7885 49.5302 52.9994 49 53H43V55H49C50.0605 54.9988 51.0772 54.577 51.8271 53.8271C52.577 53.0772 52.9988 52.0605 53 51V42H51V51Z" fill="#5C8C24"/>
<path d="M49 50V43H47V49H43V51H48C48.2652 51 48.5196 50.8946 48.7071 50.7071C48.8946 50.5196 49 50.2652 49 50Z" fill="#5C8C24"/>
<path d="M31 15C31 14.7348 30.8946 14.4804 30.7071 14.2929C30.5196 14.1054 30.2652 14 30 14H26C25.7348 14 25.4804 14.1054 25.2929 14.2929C25.1054 14.4804 25 14.7348 25 15V19C25 19.2652 25.1054 19.5196 25.2929 19.7071C25.4804 19.8946 25.7348 20 26 20H30C30.2652 20 30.5196 19.8946 30.7071 19.7071C30.8946 19.5196 31 19.2652 31 19V15ZM29 18H27V16H29V18Z" fill="#5C8C24"/>
<path d="M30 23H26C25.7348 23 25.4804 23.1054 25.2929 23.2929C25.1054 23.4804 25 23.7348 25 24V28C25 28.2652 25.1054 28.5196 25.2929 28.7071C25.4804 28.8946 25.7348 29 26 29H30C30.2652 29 30.5196 28.8946 30.7071 28.7071C30.8946 28.5196 31 28.2652 31 28V24C31 23.7348 30.8946 23.4804 30.7071 23.2929C30.5196 23.1054 30.2652 23 30 23ZM29 27H27V25H29V27Z" fill="#5C8C24"/>
<path d="M33 14H35V16H33V14Z" fill="#5C8C24"/>
<path d="M33 18H45V20H33V18Z" fill="#5C8C24"/>
<path d="M37 14H45V16H37V14Z" fill="#5C8C24"/>
<path d="M33 23H35V25H33V23Z" fill="#5C8C24"/>
<path d="M33 27H45V29H33V27Z" fill="#5C8C24"/>
<path d="M37 23H45V25H37V23Z" fill="#5C8C24"/>
</svg>
