<svg width="64" height="38" viewBox="0 0 64 38" fill="none" xmlns="http://www.w3.org/2000/svg">
<rect x="1.00012" y="1" width="62" height="36" rx="2" fill="#F4F5F7" stroke="#5C8C24" stroke-width="2"/>
<path d="M9.00795 3.00795C9.00795 6.32166 6.32166 9.00795 3.00795 9.00795C-0.305758 9.00795 0.00795058 7.32166 0.00795058 4.00795C0.00795058 0.694242 -0.305758 0.00795058 3.00795 0.00795058C6.32166 0.00795058 9.00795 -0.305758 9.00795 3.00795Z" fill="#5C8C24"/>
<path d="M9.00795 34.992C9.00795 31.6783 6.32166 28.992 3.00795 28.992C-0.305758 28.992 0.00795058 30.6783 0.00795058 33.992C0.00795058 37.3058 -0.305758 37.992 3.00795 37.992C6.32166 37.992 9.00795 38.3058 9.00795 34.992Z" fill="#5C8C24"/>
<path d="M54.992 34.992C54.992 31.6783 57.6783 28.992 60.992 28.992C64.3058 28.992 63.992 30.6783 63.992 33.992C63.992 37.3058 64.3058 37.992 60.992 37.992C57.6783 37.992 54.992 38.3058 54.992 34.992Z" fill="#5C8C24"/>
<path d="M54.992 3.00797C54.992 6.32167 57.6783 9.00797 60.992 9.00797C64.3058 9.00797 63.992 7.32167 63.992 4.00797C63.992 0.694257 64.3058 0.00796583 60.992 0.00796583C57.6783 0.00796583 54.992 -0.305743 54.992 3.00797Z" fill="#5C8C24"/>
<circle cx="32.0001" cy="19" r="11" fill="#5C8C24"/>
<path d="M28.2501 23.5V15.289C28.2501 15.1145 28.308 14.9449 28.4148 14.8069C28.5215 14.6689 28.6711 14.5702 28.8401 14.5264C29.009 14.4827 29.1877 14.4962 29.3481 14.565C29.5084 14.6338 29.6414 14.7539 29.7261 14.9065L34.2741 23.0935C34.3588 23.2461 34.4918 23.3662 34.6522 23.435C34.8126 23.5038 34.9913 23.5173 35.1602 23.4736C35.3291 23.4298 35.4787 23.3311 35.5855 23.1931C35.6923 23.0551 35.7502 22.8855 35.7501 22.711V14.5" stroke="#F4F5F7" stroke-width="1.4" stroke-linecap="round" stroke-linejoin="round"/>
<path d="M26.7501 17.5H37.2501" stroke="#F4F5F7" stroke-width="1.4" stroke-linecap="round" stroke-linejoin="round"/>
<path d="M26.7501 20.5H37.2501" stroke="#F4F5F7" stroke-width="1.4" stroke-linecap="round" stroke-linejoin="round"/>
</svg>
