<svg width="64" height="64" viewBox="0 0 64 64" fill="none" xmlns="http://www.w3.org/2000/svg">
<path d="M2.90317 27.9676H8.27187C8.58941 29.1127 9.04682 30.2142 9.63502 31.2466L5.83512 35.045C5.65367 35.2265 5.5516 35.4726 5.5516 35.7296C5.5516 35.9867 5.65367 36.2328 5.83512 36.4142L9.94046 40.5207C10.3185 40.898 10.9309 40.898 11.3089 40.5207L15.1092 36.72C16.1416 37.3079 17.242 37.7657 18.387 38.0828V43.4515C18.387 43.986 18.8203 44.4193 19.3548 44.4193H25.1612C25.6958 44.4193 26.129 43.986 26.129 43.4515V38.0828C27.274 37.7657 28.3744 37.3079 29.4068 36.72L33.2071 40.5207C33.5912 40.8836 34.1918 40.8836 34.5755 40.5207L38.6816 36.4142C38.8631 36.2328 38.9652 35.9867 38.9652 35.7296C38.9652 35.4726 38.8631 35.2265 38.6816 35.045L34.881 31.2466C35.4692 30.2142 35.9266 29.1127 36.2441 27.9676H41.6128C42.1474 27.9676 42.5806 27.5344 42.5806 26.9999V21.1935C42.5806 20.6593 42.1474 20.2257 41.6128 20.2257H36.2441C35.9266 19.0811 35.4692 17.9795 34.881 16.9471L38.6809 13.1487C38.8623 12.9673 38.9644 12.7212 38.9644 12.4641C38.9644 12.2071 38.8623 11.961 38.6809 11.7795L34.5755 7.67304C34.1975 7.29539 33.5851 7.29539 33.2071 7.67304L29.4068 11.4737C28.3744 10.8862 27.2736 10.4285 26.129 10.1109V4.74184C26.129 4.20769 25.6958 3.7741 25.1612 3.7741H19.3548C18.8203 3.7741 18.387 4.20769 18.387 4.74184V10.1109C17.2424 10.4285 16.1416 10.8862 15.1092 11.4737L11.3089 7.67304C10.9248 7.31014 10.3242 7.31014 9.94046 7.67304L5.83437 11.7795C5.65291 11.961 5.55085 12.2071 5.55085 12.4641C5.55085 12.7212 5.65291 12.9673 5.83437 13.1487L9.63502 16.9471C9.04682 17.9795 8.58941 19.0811 8.27187 20.2257H2.90317C2.36864 20.2257 1.93542 20.6593 1.93542 21.1935V26.9999C1.93542 27.5344 2.36864 27.9676 2.90317 27.9676ZM3.87091 22.1612H9.02905C9.48381 22.1612 9.87734 21.8448 9.97449 21.4006C10.292 19.9513 10.8662 18.57 11.6699 17.3225C11.9153 16.9399 11.8608 16.4375 11.5391 16.1158L7.88704 12.4637L10.6247 9.72571L14.276 13.3778C14.5977 13.7003 15.1005 13.7547 15.4838 13.509C16.7317 12.7057 18.1126 12.1315 19.5619 11.8135C20.0057 11.716 20.3225 11.3225 20.3225 10.8677V5.70958H24.1935V10.8677C24.1935 11.3225 24.5103 11.716 24.9541 11.8135C26.4034 12.1315 27.7843 12.7057 29.0322 13.509C29.4155 13.7547 29.9183 13.7003 30.24 13.3778L33.8913 9.72571L36.6282 12.4637L32.9769 16.1147C32.6544 16.4368 32.6004 16.9395 32.8461 17.3225C33.6498 18.5707 34.2232 19.9516 34.5404 21.4014C34.6379 21.8455 35.0314 22.1623 35.4858 22.1623H40.6451V26.0333H35.4858C35.0314 26.0333 34.6379 26.3497 34.5404 26.7939C34.2232 28.2432 33.6494 29.6241 32.8461 30.8709C32.6007 31.2538 32.6552 31.7562 32.9769 32.0779L36.629 35.7292L33.8913 38.468L30.24 34.8156C29.9183 34.4935 29.4155 34.439 29.0322 34.6848C27.7851 35.4884 26.4046 36.0627 24.9552 36.3802C24.5107 36.477 24.1935 36.8709 24.1935 37.3256V42.4838H20.3225V37.3256C20.3225 36.8709 20.0054 36.477 19.5608 36.3802C18.1115 36.0627 16.7309 35.4884 15.4838 34.6848C15.1005 34.439 14.5977 34.4935 14.276 34.8156L10.6247 38.468L7.88779 35.73L11.5391 32.0787C11.8616 31.757 11.9156 31.2542 11.6699 30.8709C10.8662 29.623 10.292 28.2417 9.97449 26.792C9.87696 26.3478 9.48381 26.0322 9.02905 26.0322H3.87091V22.1612Z" fill="#5C8C24"/>
<path d="M22.2582 31.8385C26.534 31.8385 30.0001 28.3728 30.0001 24.0966C30.0001 19.8208 26.534 16.3546 22.2582 16.3546C17.9823 16.3546 14.5162 19.8208 14.5162 24.0966C14.5208 28.3702 17.9846 31.834 22.2582 31.8385ZM22.2582 18.2901C25.4646 18.2901 28.0646 20.8902 28.0646 24.0966C28.0646 27.3034 25.4646 29.9031 22.2582 29.9031C19.0518 29.9031 16.4517 27.3034 16.4517 24.0966C16.4551 20.8909 19.0525 18.2935 22.2582 18.2901Z" fill="#5C8C24"/>
<path d="M22.2581 34.7417C28.1372 34.7417 32.9033 29.976 32.9033 24.0966C32.9033 18.2175 28.1372 13.4514 22.2581 13.4514C16.3791 13.4514 11.613 18.2175 11.613 24.0966C11.6202 29.973 16.3817 34.7349 22.2581 34.7417ZM22.2581 15.3869C27.0685 15.3869 30.9678 19.2862 30.9678 24.0966C30.9678 28.9069 27.0685 32.8062 22.2581 32.8062C17.4478 32.8062 13.5485 28.9069 13.5485 24.0966C13.5538 19.2889 17.45 15.3922 22.2581 15.3869Z" fill="#5C8C24"/>
<path d="M57.0967 48.2902V40.5483C57.0967 40.0141 56.6635 39.5805 56.129 39.5805H54.1935V31.8386C54.1935 31.3045 53.7603 30.8709 53.2257 30.8709H44.5161C43.9815 30.8709 43.5483 31.3045 43.5483 31.8386V39.5805H38.7096C38.1751 39.5805 37.7419 40.0141 37.7419 40.5483V48.2902H6.77413C4.10302 48.2936 1.93883 50.4578 1.93542 53.1289V55.0644C1.93883 57.7359 4.10302 59.9001 6.77413 59.9031H57.0967C59.7678 59.9001 61.932 57.7359 61.9354 55.0644V53.1289C61.932 50.4578 59.7678 48.2936 57.0967 48.2902ZM55.1612 48.2902H48.387V41.516H55.1612V48.2902ZM45.4838 32.8064H52.258V39.5805H45.4838V32.8064ZM39.6774 41.516H46.4516V48.2902H39.6774V41.516ZM59.9999 55.0644C59.9999 56.668 58.6999 57.9676 57.0967 57.9676H6.77413C5.17093 57.9676 3.87091 56.668 3.87091 55.0644V53.1289C3.87091 51.5257 5.17093 50.2257 6.77413 50.2257H57.0967C58.6999 50.2257 59.9999 51.5257 59.9999 53.1289V55.0644Z" fill="#5C8C24"/>
<path d="M31.9355 51.1935C30.3323 51.1935 29.0322 52.4935 29.0322 54.0967C29.0322 55.7003 30.3323 57 31.9355 57C33.5387 57 34.8387 55.7003 34.8387 54.0967C34.8387 52.4935 33.5387 51.1935 31.9355 51.1935ZM31.9355 55.0645C31.4009 55.0645 30.9677 54.6313 30.9677 54.0967C30.9677 53.5626 31.4009 53.129 31.9355 53.129C32.47 53.129 32.9032 53.5626 32.9032 54.0967C32.9032 54.6313 32.47 55.0645 31.9355 55.0645Z" fill="#5C8C24"/>
<path d="M22.2581 51.1935C20.6549 51.1935 19.3549 52.4935 19.3549 54.0967C19.3549 55.7003 20.6549 57 22.2581 57C23.8613 57 25.1613 55.7003 25.1613 54.0967C25.1613 52.4935 23.8613 51.1935 22.2581 51.1935ZM22.2581 55.0645C21.7236 55.0645 21.2903 54.6313 21.2903 54.0967C21.2903 53.5626 21.7236 53.129 22.2581 53.129C22.7926 53.129 23.2258 53.5626 23.2258 54.0967C23.2258 54.6313 22.7926 55.0645 22.2581 55.0645Z" fill="#5C8C24"/>
<path d="M41.613 51.1935C40.0098 51.1935 38.7098 52.4935 38.7098 54.0967C38.7098 55.7003 40.0098 57 41.613 57C43.2162 57 44.5162 55.7003 44.5162 54.0967C44.5162 52.4935 43.2162 51.1935 41.613 51.1935ZM41.613 55.0645C41.0785 55.0645 40.6453 54.6313 40.6453 54.0967C40.6453 53.5626 41.0785 53.129 41.613 53.129C42.1475 53.129 42.5807 53.5626 42.5807 54.0967C42.5807 54.6313 42.1475 55.0645 41.613 55.0645Z" fill="#5C8C24"/>
<path d="M12.5805 51.1935C10.9773 51.1935 9.67731 52.4935 9.67731 54.0967C9.67731 55.7003 10.9773 57 12.5805 57C14.1837 57 15.4838 55.7003 15.4838 54.0967C15.4838 52.4935 14.1837 51.1935 12.5805 51.1935ZM12.5805 55.0645C12.046 55.0645 11.6128 54.6313 11.6128 54.0967C11.6128 53.5626 12.046 53.129 12.5805 53.129C13.1151 53.129 13.5483 53.5626 13.5483 54.0967C13.5483 54.6313 13.1151 55.0645 12.5805 55.0645Z" fill="#5C8C24"/>
<path d="M51.2903 51.1935C49.6871 51.1935 48.387 52.4935 48.387 54.0967C48.387 55.7003 49.6871 57 51.2903 57C52.8935 57 54.1935 55.7003 54.1935 54.0967C54.1935 52.4935 52.8935 51.1935 51.2903 51.1935ZM51.2903 55.0645C50.7557 55.0645 50.3225 54.6313 50.3225 54.0967C50.3225 53.5626 50.7557 53.129 51.2903 53.129C51.8248 53.129 52.258 53.5626 52.258 54.0967C52.258 54.6313 51.8248 55.0645 51.2903 55.0645Z" fill="#5C8C24"/>
</svg>
