<svg width="64" height="64" viewBox="0 0 64 64" fill="none" xmlns="http://www.w3.org/2000/svg">
<g clip-path="url(#clip0_1650_3020)">
<path d="M52.2601 55.855C52.2601 55.855 51.6651 33.77 63.5201 29.41C63.5201 29.41 59.5351 33.015 56.4501 39.19C53.4551 45.18 53.0151 48.45 52.2601 55.855Z" fill="#5C8C24"/>
<path d="M51.7898 57.58C51.7898 57.58 47.4198 28.4 63.5148 22.48C63.5148 22.48 57.2798 26.67 54.9948 33.525C52.2048 41.905 51.7748 48.445 51.7898 57.58Z" fill="#5C8C24"/>
<path d="M46.6299 63H5.05994V60.545C5.05994 57.0989 7.40834 54.5166 11.3711 52.7421C15.328 50.9702 20.6622 50.1324 26.0113 50.125C31.3759 50.1176 36.6232 51.0622 40.4896 52.8892C44.372 54.7237 46.6299 57.3146 46.6299 60.545V63Z" fill="#F4F5F7" stroke="#5C8C24" stroke-width="2"/>
<path d="M22 51.195V46.625H26.04H30.085V51.195C30.085 53.2112 28.4565 54.845 26.455 54.845H25.63C23.6281 54.845 22 53.2158 22 51.195Z" fill="#F4F5F7" stroke="#5C8C24"/>
<path d="M20.1637 49.9792L21.0473 49.879L25.0835 55.2383L21.8529 57.5702L20.1637 49.9792Z" fill="#F4F5F7" stroke="#5C8C24"/>
<path d="M31.4666 49.959L29.776 57.5734L26.5092 55.2373L30.5866 49.859L31.4666 49.959Z" fill="#F4F5F7" stroke="#5C8C24"/>
<path d="M51.5999 55.93C51.3499 55.93 51.1349 55.735 51.1199 55.485L50.8299 51.695C50.8199 51.565 50.8599 51.44 50.9449 51.345C51.0299 51.25 51.1449 51.19 51.2749 51.18H51.2799C51.5649 51.18 51.7749 51.375 51.7949 51.625L52.0849 55.415C52.1049 55.68 51.9049 55.915 51.6399 55.935C51.6299 55.93 51.6099 55.93 51.5999 55.93Z" fill="#5C8C24"/>
<path d="M51.3098 51.425C51.4298 51.425 51.5348 51.52 51.5448 51.64L51.8348 55.43C51.8448 55.56 51.7498 55.67 51.6198 55.68H51.5998C51.4798 55.68 51.3748 55.585 51.3648 55.465L51.0748 51.675C51.0648 51.545 51.1598 51.435 51.2898 51.425H51.3098ZM51.3098 50.925H51.2548C50.8498 50.955 50.5498 51.31 50.5798 51.715L50.8698 55.505C50.8998 55.885 51.2198 56.18 51.5998 56.18H51.6548C52.0598 56.15 52.3598 55.795 52.3298 55.39L52.0398 51.6C52.0248 51.4165 51.9415 51.2454 51.8063 51.1204C51.6711 50.9954 51.4939 50.9257 51.3098 50.925Z" fill="#5C8C24"/>
<path d="M54.2201 28.16C54.1501 28.16 54.0801 28.13 54.0301 28.075C53.9201 27.95 53.6701 26.8 53.7301 26.285C53.7951 25.665 54.1701 24.86 54.6651 24.29C55.2901 23.55 56.4801 22.735 57.5301 22.615H57.5601C57.6501 22.615 57.7401 22.665 57.7801 22.75C58.0501 23.27 58.0101 23.995 57.6601 24.905C57.3251 25.76 56.5801 26.515 55.8951 27.145C55.5401 27.46 54.6951 27.935 54.4201 28.09L54.3551 28.125C54.3343 28.14 54.3104 28.1503 54.2851 28.155C54.2651 28.16 54.2451 28.16 54.2201 28.16Z" fill="#E0E0E0"/>
<path d="M53.9374 27.9828C53.8651 27.8401 53.8579 26.4031 53.9741 25.8622C54.1175 25.1505 54.5393 24.3034 55.0168 23.7588C55.6581 23.0134 56.9927 22.5335 57.9053 22.6765C57.9883 22.6905 57.8457 22.5383 57.8818 22.6097C57.8931 22.632 57.8983 22.652 57.9053 22.6765C58.0755 23.5151 57.7603 24.4986 57.4616 25.1712C57.0542 26.0895 56.327 26.7831 55.6649 27.3485C55.3669 27.5947 54.7647 27.8719 54.3417 28.0638L54.2445 28.1074C54.1322 28.1532 53.9985 28.1032 53.9374 27.9828Z" fill="#F4F5F7"/>
<path d="M57.56 22.865C57.845 23.41 57.665 24.19 57.425 24.815C57.12 25.6 56.42 26.325 55.725 26.96C55.33 27.315 54.215 27.915 54.215 27.915C54.21 27.915 53.91 26.86 53.975 26.315C54.035 25.72 54.4 24.97 54.85 24.455C55.445 23.765 56.57 22.98 57.56 22.865ZM57.565 22.365C57.545 22.365 57.525 22.365 57.505 22.37C56.34 22.51 55.12 23.38 54.48 24.135C53.95 24.745 53.56 25.58 53.49 26.265C53.43 26.75 53.665 28.035 53.85 28.245C53.9103 28.3138 53.9884 28.3647 54.0757 28.3921C54.163 28.4194 54.2562 28.4222 54.345 28.4C54.395 28.385 54.445 28.365 54.485 28.34L54.54 28.31C55.315 27.875 55.81 27.555 56.065 27.335C56.775 26.685 57.545 25.905 57.9 25C58.28 24.015 58.315 23.22 58.01 22.635C57.92 22.465 57.745 22.365 57.565 22.365Z" fill="#5C8C24"/>
<path d="M50.9247 46.925C50.7647 46.925 49.4797 46.26 49.0497 45.9C48.4797 45.435 47.9147 44.65 47.6447 43.955C47.2697 43.015 47.1697 41.655 47.7097 40.88C47.7597 40.81 47.8347 40.775 47.9147 40.775C47.9397 40.775 47.9597 40.78 47.9847 40.785C48.8097 41.02 49.5447 41.77 50.0097 42.36C50.6447 43.165 50.9347 44.16 51.1397 45.035C51.2247 45.425 51.1997 46.11 51.1797 46.59L51.1747 46.7C51.1647 46.825 51.0597 46.925 50.9247 46.925Z" fill="#F4F5F7"/>
<path d="M47.915 41.025C48.655 41.235 49.34 41.915 49.815 42.515C50.41 43.27 50.695 44.22 50.895 45.09C51 45.58 50.92 46.675 50.925 46.675C50.92 46.675 49.71 46.125 49.21 45.71C48.66 45.26 48.125 44.51 47.875 43.87C47.535 43.015 47.42 41.74 47.915 41.025ZM47.915 40.525C47.755 40.525 47.6 40.6 47.505 40.74C46.885 41.63 47.02 43.08 47.41 44.055C47.695 44.785 48.29 45.605 48.89 46.1C49.255 46.4 50.635 47.18 50.92 47.18C51.185 47.18 51.405 46.975 51.42 46.71V46.675L51.425 46.605C51.45 46.07 51.47 45.405 51.38 44.99C51.17 44.08 50.87 43.05 50.205 42.21C49.715 41.59 48.94 40.805 48.05 40.55C48.0076 40.5312 47.9613 40.5226 47.915 40.525Z" fill="#5C8C24"/>
<path d="M52.025 46.93C51.665 46.93 51.245 45.255 51.24 45.11C51.17 44.015 51.395 43.11 51.89 42.5C52.45 41.81 53.2 41.365 53.9 41.305H53.92C54.005 41.305 54.085 41.345 54.13 41.42C54.655 42.225 54.645 43.43 54.48 44.22C54.335 44.865 53.975 45.55 53.565 45.97C53.25 46.285 52.555 46.68 52.17 46.89C52.12 46.915 52.075 46.93 52.025 46.93Z" fill="#F4F5F7"/>
<path d="M53.9151 41.56C54.3951 42.3 54.3901 43.42 54.2251 44.17C54.0951 44.735 53.7751 45.39 53.3751 45.795C53.0101 46.16 52.0201 46.68 52.0201 46.68C52.0151 46.68 51.5051 45.59 51.4851 45.1C51.4301 44.24 51.5451 43.31 52.0801 42.66C52.5001 42.14 53.1751 41.62 53.9151 41.56ZM53.9151 41.06H53.8751C53.1101 41.12 52.2901 41.605 51.6901 42.345C51.1551 43 50.9101 43.965 50.9851 45.13C50.9951 45.38 51.0951 45.755 51.2901 46.25C51.5601 46.94 51.6501 47.175 52.0201 47.175C52.1101 47.175 52.1951 47.15 52.2651 47.11C52.7651 46.84 53.4101 46.46 53.7301 46.145C54.1751 45.695 54.5601 44.96 54.7151 44.275C54.9051 43.395 54.9001 42.155 54.3351 41.28C54.2451 41.145 54.0851 41.06 53.9151 41.06Z" fill="#5C8C24"/>
<path d="M51.0301 51.235C50.8701 51.235 49.7201 50.625 49.3701 50.33C48.8651 49.92 48.3651 49.225 48.1251 48.615C47.8001 47.81 47.6851 46.615 48.1851 45.89C48.2351 45.82 48.3101 45.785 48.3901 45.785C48.4151 45.785 48.4351 45.79 48.4601 45.795C49.1951 46.005 49.8401 46.665 50.2551 47.185C50.8151 47.895 51.0701 48.775 51.2501 49.545C51.3251 49.895 51.3051 50.495 51.2851 50.92L51.2801 51.005C51.2751 51.13 51.1651 51.235 51.0301 51.235Z" fill="#F4F5F7"/>
<path d="M48.395 46.03C49.045 46.215 49.645 46.81 50.06 47.335C50.585 48 50.83 48.83 51.005 49.595C51.095 50.025 51.025 50.985 51.03 50.985C51.025 50.985 49.96 50.5 49.525 50.14C49.04 49.745 48.575 49.09 48.355 48.525C48.06 47.775 47.955 46.655 48.395 46.03ZM48.395 45.53C48.235 45.53 48.08 45.605 47.985 45.745C47.425 46.545 47.545 47.84 47.895 48.71C48.15 49.365 48.67 50.08 49.215 50.525C49.515 50.775 50.755 51.485 51.035 51.485C51.1634 51.4851 51.287 51.4359 51.38 51.3475C51.4731 51.259 51.5286 51.1382 51.535 51.01V50.975L51.54 50.915C51.56 50.44 51.58 49.855 51.5 49.485C51.315 48.68 51.045 47.77 50.455 47.02C50.02 46.47 49.33 45.77 48.535 45.545C48.485 45.535 48.44 45.53 48.395 45.53Z" fill="#5C8C24"/>
<path d="M52.0199 51.24C51.6549 51.24 51.3049 49.685 51.2999 49.615C51.2349 48.65 51.4349 47.845 51.8749 47.305C52.3699 46.695 53.0399 46.295 53.6599 46.245H53.6799C53.7649 46.245 53.8449 46.285 53.8899 46.36C54.3549 47.075 54.3499 48.14 54.1999 48.84C54.0699 49.415 53.7499 50.02 53.3899 50.39C53.1149 50.665 52.4999 51.015 52.1599 51.2C52.1199 51.225 52.0699 51.24 52.0199 51.24Z" fill="#F4F5F7"/>
<path d="M53.6801 46.5C54.1001 47.145 54.0951 48.13 53.9551 48.79C53.8451 49.285 53.5601 49.86 53.2101 50.215C52.8901 50.535 52.0201 50.99 52.0201 50.99C52.0151 50.99 51.5701 50.035 51.5501 49.605C51.5001 48.85 51.6051 48.035 52.0701 47.465C52.4401 47.01 53.0351 46.55 53.6801 46.5ZM53.6801 46H53.6401C52.9501 46.055 52.2201 46.485 51.6801 47.15C51.2001 47.74 50.9801 48.6 51.0501 49.635C51.0501 49.645 51.3401 51.49 52.0201 51.49C52.1101 51.49 52.1951 51.465 52.2651 51.425C52.7101 51.185 53.2801 50.85 53.5601 50.57C53.9551 50.165 54.3001 49.51 54.4401 48.9C54.6101 48.115 54.6051 47.005 54.0951 46.225C54.0509 46.1552 53.9895 46.0979 53.9169 46.0586C53.8442 46.0192 53.7628 45.999 53.6801 46Z" fill="#5C8C24"/>
<path d="M50.3703 41.925C50.1803 41.925 48.9803 41.095 48.6603 40.75C48.1753 40.235 47.7553 39.41 47.6153 38.695C47.4153 37.735 47.5753 36.39 48.2603 35.675C48.3103 35.625 48.3753 35.6 48.4403 35.6C48.4703 35.6 48.5003 35.605 48.5303 35.615C49.3303 35.915 49.9253 36.72 50.2853 37.34C50.7753 38.195 50.8753 39.21 50.9103 40.09C50.9153 40.49 50.7603 41.17 50.6403 41.65L50.6253 41.72C50.6003 41.835 50.4953 41.925 50.3703 41.925C50.3703 41.925 50.3753 41.925 50.3703 41.925Z" fill="#F4F5F7"/>
<path d="M48.4352 35.845C49.1402 36.11 49.7002 36.835 50.0652 37.46C50.5202 38.255 50.6252 39.215 50.6552 40.095C50.6652 40.59 50.3652 41.675 50.3752 41.675C50.3702 41.675 49.2602 41.03 48.8452 40.58C48.3802 40.09 47.9902 39.305 47.8602 38.645C47.6802 37.775 47.8002 36.505 48.4352 35.845ZM48.4352 35.345C48.3002 35.345 48.1702 35.4 48.0752 35.5C47.2952 36.315 47.1652 37.755 47.3702 38.75C47.5202 39.515 47.9552 40.37 48.4802 40.925C48.7452 41.21 50.0502 42.18 50.3752 42.18C50.6152 42.18 50.8252 42.005 50.8652 41.77L50.8802 41.705C51.0002 41.215 51.1602 40.51 51.1552 40.09C51.1202 39.17 51.0152 38.115 50.5002 37.215C50.1152 36.555 49.4802 35.705 48.6152 35.38C48.5582 35.3564 48.497 35.3445 48.4352 35.345Z" fill="#5C8C24"/>
<path d="M51.4704 42C51.4004 42 51.3304 41.97 51.2804 41.915C51.1654 41.78 50.9304 40.545 50.9954 40.1C51.1354 39.01 51.5304 38.14 52.1404 37.585C52.3954 37.35 53.3154 36.58 54.3654 36.575C54.4654 36.575 54.5554 36.635 54.5954 36.72C54.9754 37.565 54.7354 38.755 54.4104 39.52C54.1404 40.145 53.6504 40.79 53.1604 41.17C52.8104 41.435 52.1154 41.75 51.5954 41.965C51.5754 41.98 51.5504 41.985 51.5204 41.995C51.5054 42 51.4904 42 51.4704 42Z" fill="#F4F5F7"/>
<path d="M54.3652 36.825C54.7102 37.59 54.4902 38.695 54.1802 39.43C53.9402 39.98 53.4902 40.605 53.0052 40.98C52.5652 41.315 51.4652 41.755 51.4702 41.755C51.4652 41.755 51.1702 40.625 51.2452 40.14C51.3552 39.28 51.6552 38.375 52.3152 37.77C52.8302 37.285 53.6102 36.825 54.3652 36.825ZM54.3652 36.325C53.5952 36.325 52.7002 36.73 51.9702 37.4C51.3202 37.995 50.8952 38.92 50.7452 40.07C50.6752 40.525 50.9052 41.86 51.0902 42.075C51.1852 42.185 51.3252 42.25 51.4702 42.25C51.5002 42.25 51.5352 42.245 51.5702 42.24C51.6052 42.235 51.6402 42.22 51.6702 42.21C52.2252 41.98 52.9402 41.66 53.3102 41.375C53.8352 40.97 54.3552 40.285 54.6402 39.625C55.0002 38.77 55.2352 37.535 54.8202 36.62C54.7815 36.5317 54.7177 36.4568 54.6369 36.4044C54.556 36.3519 54.4616 36.3243 54.3652 36.325Z" fill="#5C8C24"/>
<path d="M50.745 37.15C50.53 37.15 49.425 36.165 49.2 35.85C48.8 35.305 48.52 34.455 48.505 33.74C48.475 32.785 48.865 31.485 49.67 30.845C49.715 30.81 49.77 30.79 49.825 30.79C49.86 30.79 49.9 30.8 49.93 30.815C50.69 31.175 51.155 32.01 51.41 32.65C51.76 33.53 51.68 34.535 51.555 35.405C51.49 35.795 51.215 36.455 51.01 36.915L50.98 36.99C50.945 37.08 50.85 37.15 50.745 37.15Z" fill="#F4F5F7"/>
<path d="M49.8249 31.04C50.4899 31.355 50.9249 32.1 51.1799 32.74C51.4999 33.55 51.4349 34.495 51.3099 35.365C51.2299 35.85 50.7399 36.895 50.7449 36.9C50.7399 36.9 49.7399 36.18 49.3999 35.705C49.0199 35.185 48.7649 34.385 48.7549 33.735C48.7249 32.865 49.0699 31.635 49.8249 31.04ZM49.8249 30.54C49.7149 30.54 49.6049 30.575 49.5149 30.65C48.6049 31.37 48.2249 32.76 48.2549 33.75C48.2699 34.52 48.5599 35.405 48.9999 36C49.1699 36.24 50.3749 37.4 50.7449 37.4C50.9549 37.4 51.1399 37.27 51.2149 37.075L51.2399 37.015C51.4499 36.54 51.7349 35.865 51.8049 35.445C51.9349 34.535 52.0149 33.49 51.6449 32.555C51.3699 31.875 50.8699 30.98 50.0349 30.585C49.9691 30.5548 49.8974 30.5395 49.8249 30.54Z" fill="#5C8C24"/>
<path d="M52.1099 37.29C52.0299 37.29 51.9549 37.25 51.9049 37.185C51.7949 37.035 51.7899 35.765 51.9299 35.355C52.2649 34.3 52.8099 33.48 53.5149 32.99C54.2349 32.48 55.0699 32.175 55.7399 32.175C55.7949 32.175 55.8549 32.175 55.9099 32.18C56.0149 32.19 56.1049 32.26 56.1349 32.365C56.3699 33.22 55.9399 34.335 55.4599 35.095C55.0799 35.68 54.4799 36.275 53.9199 36.61C53.4749 36.87 52.5699 37.165 52.1999 37.275C52.1999 37.275 52.1899 37.28 52.1849 37.28C52.1603 37.2861 52.1352 37.2895 52.1099 37.29Z" fill="#F4F5F7"/>
<path d="M55.7449 32.425C55.7949 32.425 55.8449 32.425 55.8949 32.43C56.1049 33.2 55.6899 34.265 55.2499 34.96C54.9149 35.48 54.3449 36.065 53.7949 36.395C53.2899 36.69 52.1099 37.04 52.1099 37.045C52.1049 37.045 52.0099 35.91 52.1699 35.44C52.4349 34.605 52.8949 33.735 53.6599 33.2C54.2299 32.79 55.0249 32.425 55.7449 32.425ZM55.7449 31.925C54.7049 31.925 53.7399 32.525 53.3749 32.785C52.6199 33.315 52.0499 34.155 51.6949 35.285C51.5749 35.64 51.5049 37.055 51.7049 37.335C51.7664 37.4215 51.8538 37.4861 51.9546 37.5193C52.0553 37.5526 52.164 37.5529 52.2649 37.52C52.7549 37.37 53.6049 37.09 54.0499 36.83C54.6399 36.475 55.2749 35.85 55.6699 35.24C56.1799 34.43 56.6299 33.24 56.3749 32.305C56.3478 32.2055 56.2904 32.1169 56.2107 32.0515C56.1309 31.9861 56.0328 31.9471 55.9299 31.94C55.8699 31.925 55.8099 31.925 55.7449 31.925Z" fill="#5C8C24"/>
<path d="M52.0054 32.365C51.7704 32.365 50.8154 31.28 50.6504 30.965C50.3404 30.4 50.2104 29.545 50.3254 28.845C50.4654 27.925 51.0854 26.7 52.0004 26.16C52.038 26.1368 52.0813 26.1245 52.1254 26.1245C52.1696 26.1245 52.2129 26.1368 52.2504 26.16C52.9604 26.575 53.2854 27.425 53.4304 28.07C53.6254 28.95 53.3654 29.92 53.0854 30.755C52.9504 31.13 52.5554 31.745 52.2654 32.18L52.2204 32.245C52.1854 32.315 52.1004 32.365 52.0054 32.365C52.0104 32.365 52.0104 32.365 52.0054 32.365Z" fill="#F4F5F7"/>
<path d="M52.1302 26.375C52.7402 26.73 53.0452 27.485 53.1902 28.12C53.3702 28.925 53.1302 29.84 52.8502 30.67C52.6852 31.135 52.0002 32.115 52.0052 32.115C52.0002 32.115 51.1252 31.335 50.8702 30.845C50.5802 30.31 50.4702 29.515 50.5702 28.88C50.7002 28.045 51.2652 26.885 52.1302 26.375ZM52.1302 25.875C52.0402 25.875 51.9552 25.9 51.8752 25.945C50.8452 26.555 50.2252 27.86 50.0802 28.81C49.9552 29.565 50.0952 30.465 50.4352 31.085C50.5252 31.26 51.5752 32.615 52.0102 32.615C52.1902 32.615 52.3552 32.52 52.4402 32.37L52.4802 32.31C52.7752 31.865 53.1852 31.23 53.3252 30.835C53.6202 29.96 53.8852 28.95 53.6802 28.01C53.5252 27.315 53.1702 26.395 52.3852 25.94C52.3052 25.895 52.2152 25.875 52.1302 25.875Z" fill="#5C8C24"/>
<path d="M53.3549 32.57C53.2699 32.57 53.1849 32.525 53.1399 32.445C53.0299 32.255 53.2949 30.99 53.4849 30.64C54.0149 29.635 54.6849 28.91 55.4849 28.49C55.8299 28.305 56.7349 27.88 57.6449 27.88C57.7749 27.88 57.8999 27.89 58.0199 27.905C58.1349 27.92 58.2199 28.015 58.2299 28.125C58.3149 28.965 57.6899 30.01 57.0699 30.705C56.5849 31.24 55.8799 31.765 55.2649 32.045C54.7749 32.265 53.8149 32.475 53.4249 32.555H53.4199C53.3999 32.57 53.3749 32.57 53.3549 32.57Z" fill="#F4F5F7"/>
<path d="M57.6451 28.13C57.7601 28.13 57.8751 28.14 57.9851 28.155C58.0601 28.91 57.4551 29.905 56.8901 30.545C56.4601 31.025 55.7851 31.545 55.1701 31.82C54.6101 32.07 53.3601 32.32 53.3601 32.32C53.3551 32.32 53.4651 31.21 53.7101 30.76C54.1251 29.97 54.7401 29.165 55.6101 28.71C56.1901 28.4 56.9601 28.13 57.6451 28.13ZM57.6451 27.63C56.6801 27.63 55.7301 28.08 55.3701 28.27C54.5251 28.715 53.8151 29.475 53.2651 30.53C53.1151 30.8 52.7351 32.245 52.9301 32.575C53.0201 32.73 53.1851 32.82 53.3601 32.82C53.3951 32.82 53.4351 32.815 53.4701 32.805C53.9901 32.695 54.8901 32.49 55.3751 32.275C56.0201 31.98 56.7601 31.435 57.2601 30.875C57.9151 30.135 58.5751 29.02 58.4851 28.1C58.4601 27.875 58.2901 27.69 58.0651 27.655C57.9251 27.64 57.7851 27.63 57.6451 27.63Z" fill="#5C8C24"/>
<path d="M41.3499 27.14H42.1546C42.1691 27.1432 42.1878 27.1476 42.2101 27.1531C42.2774 27.17 42.3772 27.1979 42.4987 27.2408C42.743 27.327 43.0666 27.4706 43.3874 27.6991C44.013 28.1447 44.6499 28.9235 44.6499 30.325C44.6499 31.5808 44.1759 32.4072 43.4995 32.9326C42.9217 33.3814 42.1631 33.6351 41.3499 33.7079V27.14Z" fill="#F4F5F7" stroke="#5C8C24"/>
<path d="M10.9199 27.14V33.7079C10.1067 33.6351 9.34806 33.3814 8.77034 32.9326C8.09385 32.4072 7.61987 31.5808 7.61987 30.325C7.61987 28.9235 8.25682 28.1447 8.88244 27.6991C9.20324 27.4706 9.52678 27.327 9.77109 27.2408C9.89255 27.1979 9.99239 27.17 10.0597 27.1531C10.082 27.1476 10.1007 27.1432 10.1152 27.14H10.9199Z" fill="#F4F5F7" stroke="#5C8C24"/>
<path d="M10.6147 29.535C10.6147 22.6391 11.4465 16.8322 13.7953 12.7611C14.9637 10.7361 16.5059 9.14363 18.5125 8.05377C20.5216 6.96252 23.0245 6.36002 26.1347 6.36002C29.245 6.36002 31.7479 6.96252 33.757 8.05377C35.7636 9.14363 37.3058 10.7361 38.4742 12.7611C40.823 16.8322 41.6547 22.6391 41.6547 29.535C41.6547 36.6447 39.3685 41.0058 36.3343 43.5986C33.2844 46.2049 29.4084 47.085 26.1347 47.085C22.813 47.085 18.9372 46.1783 15.8994 43.5589C12.8765 40.9522 10.6147 36.5903 10.6147 29.535Z" fill="#F4F5F7" stroke="#5C8C24"/>
<path d="M20.8598 30.815C20.8598 32.245 19.9048 33.4 18.7198 33.4C17.5398 33.4 16.5748 32.24 16.5748 30.815C16.5748 29.385 17.5348 28.225 18.7198 28.225C19.9048 28.23 20.8598 29.385 20.8598 30.815Z" fill="#5C8C24"/>
<path d="M31.4047 30.815C31.4047 32.245 32.3597 33.4 33.5497 33.4C34.7297 33.4 35.6897 32.24 35.6897 30.815C35.6897 29.385 34.7297 28.225 33.5497 28.225C32.3647 28.23 31.4047 29.385 31.4047 30.815Z" fill="#5C8C24"/>
<path d="M30.7701 39.555H26.1351H21.5001C20.9701 39.555 20.7401 39.91 21.0901 40.45C21.5801 41.2 23.4101 42.64 26.1351 42.64C28.8601 42.64 30.6901 41.2 31.1801 40.45C31.5301 39.91 31.3051 39.555 30.7701 39.555Z" fill="#5C8C24"/>
<path d="M28.3749 35.61C27.5849 35.835 26.7649 35.94 26.1349 35.94C25.5049 35.94 24.6849 35.83 23.8949 35.61C23.5599 35.515 23.4249 35.835 23.5449 36.045C23.7949 36.485 24.8049 37.375 26.1349 37.375C27.4649 37.375 28.4749 36.485 28.7249 36.045C28.8449 35.835 28.7099 35.515 28.3749 35.61Z" fill="#5C8C24"/>
<path d="M26.5053 4.55492L26.4948 4.55472L26.5053 4.55492ZM26.5053 4.55492C33.2547 4.68297 37.5782 6.77307 40.2128 9.46945C42.8542 12.1728 43.8446 15.5327 43.8398 18.2791V18.28C43.8398 21.0599 43.8385 23.4697 43.8373 25.1847C43.8368 25.8516 43.8363 26.4134 43.8359 26.851C43.6509 26.7252 43.4718 26.6247 43.3298 26.5517C43.2344 26.5026 43.1534 26.4647 43.0952 26.4386C43.0661 26.4255 43.0425 26.4154 43.0256 26.4082L43.0052 26.3997L42.999 26.3972L42.9969 26.3963L42.9961 26.396L42.9958 26.3959L42.9956 26.3958C42.9955 26.3958 42.9955 26.3958 42.8098 26.86M26.5053 4.55492L42.8098 26.86M42.8098 26.86L42.9955 26.3958L42.4083 26.1609L42.3152 26.7865L41.8656 29.8103M42.8098 26.86L41.8656 29.8103M41.8656 29.8103L38.0058 21.7442L38.0001 21.7322L37.9937 21.7206C37.874 21.5011 37.6319 21.3557 37.3614 21.3765L37.353 21.3771L37.3447 21.3781L34.64 21.678L41.8656 29.8103ZM26.2725 22.1309L26.508 22.13C29.2214 22.1201 31.9386 21.976 34.6397 21.6781L26.2725 22.1309ZM26.2725 22.1309L26.2508 22.1308C26.2196 22.1304 26.1875 22.13 26.1548 22.13C26.1297 22.13 26.1049 22.1302 26.0806 22.1305L25.8007 22.13C23.0885 22.125 20.3716 21.976 17.6699 21.6781L26.2725 22.1309ZM17.6696 21.678L14.972 21.3789C14.673 21.3391 14.421 21.5096 14.3076 21.7364L14.3075 21.7364L14.3038 21.7442L10.444 29.8103L9.99435 26.7865L9.90219 26.1667L9.31833 26.3941L9.49979 26.86C9.31833 26.3941 9.31826 26.3941 9.31818 26.3942L9.31803 26.3942L9.31768 26.3944L9.31686 26.3947L9.31469 26.3955L9.3083 26.3981L9.28762 26.4065C9.27046 26.4136 9.24666 26.4236 9.21727 26.4366C9.15859 26.4624 9.07702 26.5001 8.98107 26.5491C8.8386 26.6219 8.65912 26.7224 8.47367 26.8496L17.6696 21.678Z" fill="#F4F5F7" stroke="#5C8C24"/>
<path d="M50.8103 54.2904L50.8087 54.29C50.3742 54.1814 49.7155 54.1475 49.2636 54.1921C48.2033 54.3156 47.6951 54.6606 47.3152 54.9183C47.2778 54.9438 47.2415 54.9684 47.2062 54.9918L46.93 54.575M50.8103 54.2904L45.4059 61.3719C45.1749 60.4203 45.2293 59.2664 45.2393 59.0762L45.2394 59.0763L45.2396 59.0695C45.2786 58.0713 45.4079 57.3026 45.6993 56.6637C45.9854 56.0364 46.4444 55.4981 47.2068 54.9914L46.93 54.575M50.8103 54.2904C51.368 54.428 51.7517 54.8203 52.0492 55.4063L52.2174 55.7378L52.5834 55.6721C53.4061 55.5243 54.8046 55.3814 55.1766 55.3898C55.431 55.3976 55.594 55.4189 55.7086 55.4871C55.7814 55.5305 55.9103 55.637 55.9529 56.0282C55.9807 56.2915 55.9355 56.4556 55.8704 56.5491C55.816 56.6272 55.6951 56.7322 55.3779 56.7622L55.3776 56.7622C55.0735 56.7912 54.7571 56.8107 54.4416 56.8255L53.7956 56.8558L53.9875 57.4734L54.1025 57.8434L54.2138 58.2012L54.5885 58.1949C54.7179 58.1927 54.8354 58.1898 54.9429 58.1871C55.0949 58.1833 55.227 58.18 55.345 58.18V58.18L55.3509 58.1799C55.6924 58.1759 55.8802 58.2646 55.984 58.3673C56.0878 58.47 56.185 58.663 56.185 59.03C56.185 59.2663 56.0898 59.4233 55.9579 59.5344C55.8132 59.6563 55.6222 59.7216 55.4708 59.7308M50.8103 54.2904L55.4708 59.7308M46.93 54.575C45.275 55.675 44.82 57 44.74 59.05L49.21 53.695C48.0257 53.8321 47.4352 54.2327 47.037 54.5029C46.9998 54.5282 46.9642 54.5523 46.93 54.575ZM55.4708 59.7308C55.2481 59.7432 54.5451 59.7075 53.8127 59.6373L53.4664 59.604L53.3149 59.9172L53.2549 60.0412M55.4708 59.7308L53.2549 60.0412M53.2549 60.0412L53.244 60.0576L52.8083 60.7111L53.5848 60.8293C54.0392 60.8984 54.4747 60.9726 54.7819 61.0271C55.1084 61.0859 55.298 61.2135 55.3987 61.3391C55.4961 61.4605 55.5449 61.6218 55.5151 61.8287L55.5151 61.8288C55.4804 62.0701 55.3675 62.1984 55.2326 62.2794C55.0793 62.3715 54.8775 62.4106 54.7002 62.4052L54.6985 62.4052C54.3791 62.3965 53.1193 62.201 52.249 62.0159L51.9238 61.9467L51.7342 62.2199L51.5642 62.4649L51.1142 63.1134L51.8928 63.2432C51.956 63.2537 52.0235 63.2641 52.0953 63.2744C52.107 63.2766 52.1228 63.2793 52.1417 63.2814L52.2955 63.3078L52.3375 63.315H52.3448C52.3508 63.3157 52.3573 63.3165 52.3642 63.3172C52.385 63.3204 52.4078 63.3245 52.4371 63.3297L52.4401 63.3302C52.4732 63.3361 52.5156 63.3437 52.5593 63.3499L52.5945 63.355H52.6042C52.6517 63.3623 52.703 63.3725 52.767 63.3853L52.8155 63.395H52.8317C52.8337 63.3953 52.8359 63.3955 52.8383 63.3958L52.9878 63.4215L52.9987 63.4237C53.0065 63.4253 53.0187 63.4277 53.0328 63.43C53.048 63.4326 53.0656 63.4351 53.0854 63.4369C53.1222 63.4442 53.1684 63.4528 53.2153 63.4589L53.272 63.4703C53.2769 63.4712 53.2826 63.4724 53.2891 63.4738C53.3219 63.4805 53.3731 63.491 53.4259 63.4983L53.4718 63.5081C53.511 63.5171 53.5502 63.5244 53.5785 63.5298C53.5814 63.5303 53.5841 63.5308 53.5867 63.5313C53.6213 63.5378 53.64 63.5416 53.6537 63.545L53.6632 63.5474L53.6726 63.5494C54.0124 63.6205 54.1475 63.7149 54.1982 63.7739C54.23 63.8109 54.2738 63.884 54.2411 64.0924L54.2408 64.0944C54.2037 64.3364 54.076 64.4718 53.9075 64.5588C53.719 64.6561 53.4908 64.6819 53.3442 64.6674L53.3442 64.6674L53.3388 64.6669C53.1462 64.65 52.6772 64.5676 52.1776 64.4568C51.6786 64.3462 51.225 64.2237 51.0215 64.1367L50.9436 64.0978L50.5578 63.9048L50.3104 64.2582L50.3 64.2731C49.3532 64.1796 48.5374 63.9452 47.9424 63.7249C47.6169 63.6043 47.3596 63.4887 47.1857 63.4043C47.0988 63.3622 47.0328 63.3279 46.9898 63.3049C46.9683 63.2933 46.9525 63.2846 46.9427 63.2792L46.9325 63.2734L46.9315 63.2728L46.9316 63.2728L46.9245 63.2688C46.2989 62.9181 45.9834 62.6346 45.795 62.3696C45.6066 62.1046 45.514 61.8165 45.4059 61.372L53.2549 60.0412ZM52.7974 63.3894L52.7978 63.3895L52.7974 63.3894ZM52.3029 63.308C52.3034 63.3081 52.304 63.3082 52.3048 63.3084L52.3019 63.3078C52.3021 63.3078 52.3024 63.3079 52.3029 63.308Z" fill="#F4F5F7" stroke="#5C8C24"/>
<mask id="path-41-inside-1_1650_3020" fill="white">
<path d="M52.7998 57.21C52.7998 57.21 52.8198 56.18 52.4948 55.18L52.8548 55.115C52.8548 55.115 53.1098 55.825 53.1998 56.875C53.2148 57.045 53.2198 57.2 53.2198 57.35L53.5398 57.33L55.6848 57.21C55.6848 57.21 55.5248 57.24 55.5248 57.48C55.5248 57.58 55.5848 57.645 55.6298 57.685C55.5398 57.675 55.4398 57.665 55.3398 57.67L53.2098 57.725C53.2048 57.785 53.2048 57.845 53.1998 57.91C53.1498 58.78 52.9448 59.615 52.4598 59.935C54.0698 60.125 55.4998 60.22 55.4998 60.22C55.2198 60.335 55.3398 60.675 55.3398 60.675C54.2548 60.38 51.6248 60.225 51.6248 60.225C50.5148 60.13 50.3648 60.88 50.3648 60.88C50.1598 61.785 51.1448 62.2 51.1448 62.2C51.2748 62.275 52.4498 62.51 53.2898 62.67L54.1298 62.825L54.3648 62.87C54.3398 62.865 54.2398 62.86 54.1998 63.025C54.1798 63.105 54.1998 63.16 54.2148 63.195C54.0898 63.14 53.9398 63.09 53.7648 63.055C53.3698 62.975 52.1748 62.78 52.0848 62.765L51.7848 62.725C50.7948 62.595 50.5548 62.77 50.5548 62.77C50.0048 63.06 50.1648 63.76 50.1648 63.76C50.2848 64.435 51.0298 64.645 51.0298 64.645C51.3148 64.73 52.8248 65.095 52.8248 65.095L50.5398 64.795C50.3798 64.745 50.3198 64.67 50.2298 64.6C49.4248 63.94 49.7648 63.045 49.7648 63.045C49.8898 62.7 50.1498 62.545 50.1498 62.545C50.3048 62.45 50.4848 62.4 50.6698 62.38C49.7348 61.885 49.8848 60.885 49.8848 60.885C50.0048 60.27 50.4498 60.01 50.7998 59.9C50.7698 59.875 50.7348 59.85 50.7048 59.82C50.7048 59.82 50.1048 59.425 50.3248 57.73C50.3998 57.16 50.3898 57.08 50.3298 56.72C50.3298 56.72 50.1148 55.95 49.4748 56.195C49.4748 56.195 49.2598 56.25 48.9248 56.515C48.9248 56.515 48.6548 56.725 48.6598 56.395C48.6598 56.295 48.7298 56.115 48.8648 55.96C48.8648 55.96 49.0048 55.795 49.3498 55.7C49.3498 55.7 50.2448 55.345 50.6898 56.24C50.9248 56.71 50.8798 57.02 50.8048 57.5C50.8048 57.5 50.6648 59.015 51.0598 59.5C51.0598 59.5 51.4498 59.945 52.0748 59.67C52.0798 59.68 52.9298 59.21 52.7998 57.21Z"/>
</mask>
<path d="M52.7998 57.21C52.7998 57.21 52.8198 56.18 52.4948 55.18L52.8548 55.115C52.8548 55.115 53.1098 55.825 53.1998 56.875C53.2148 57.045 53.2198 57.2 53.2198 57.35L53.5398 57.33L55.6848 57.21C55.6848 57.21 55.5248 57.24 55.5248 57.48C55.5248 57.58 55.5848 57.645 55.6298 57.685C55.5398 57.675 55.4398 57.665 55.3398 57.67L53.2098 57.725C53.2048 57.785 53.2048 57.845 53.1998 57.91C53.1498 58.78 52.9448 59.615 52.4598 59.935C54.0698 60.125 55.4998 60.22 55.4998 60.22C55.2198 60.335 55.3398 60.675 55.3398 60.675C54.2548 60.38 51.6248 60.225 51.6248 60.225C50.5148 60.13 50.3648 60.88 50.3648 60.88C50.1598 61.785 51.1448 62.2 51.1448 62.2C51.2748 62.275 52.4498 62.51 53.2898 62.67L54.1298 62.825L54.3648 62.87C54.3398 62.865 54.2398 62.86 54.1998 63.025C54.1798 63.105 54.1998 63.16 54.2148 63.195C54.0898 63.14 53.9398 63.09 53.7648 63.055C53.3698 62.975 52.1748 62.78 52.0848 62.765L51.7848 62.725C50.7948 62.595 50.5548 62.77 50.5548 62.77C50.0048 63.06 50.1648 63.76 50.1648 63.76C50.2848 64.435 51.0298 64.645 51.0298 64.645C51.3148 64.73 52.8248 65.095 52.8248 65.095L50.5398 64.795C50.3798 64.745 50.3198 64.67 50.2298 64.6C49.4248 63.94 49.7648 63.045 49.7648 63.045C49.8898 62.7 50.1498 62.545 50.1498 62.545C50.3048 62.45 50.4848 62.4 50.6698 62.38C49.7348 61.885 49.8848 60.885 49.8848 60.885C50.0048 60.27 50.4498 60.01 50.7998 59.9C50.7698 59.875 50.7348 59.85 50.7048 59.82C50.7048 59.82 50.1048 59.425 50.3248 57.73C50.3998 57.16 50.3898 57.08 50.3298 56.72C50.3298 56.72 50.1148 55.95 49.4748 56.195C49.4748 56.195 49.2598 56.25 48.9248 56.515C48.9248 56.515 48.6548 56.725 48.6598 56.395C48.6598 56.295 48.7298 56.115 48.8648 55.96C48.8648 55.96 49.0048 55.795 49.3498 55.7C49.3498 55.7 50.2448 55.345 50.6898 56.24C50.9248 56.71 50.8798 57.02 50.8048 57.5C50.8048 57.5 50.6648 59.015 51.0598 59.5C51.0598 59.5 51.4498 59.945 52.0748 59.67C52.0798 59.68 52.9298 59.21 52.7998 57.21Z" fill="#F4F5F7"/>
<path d="M52.4948 55.18L52.3171 54.1959L51.1896 54.3994L51.5438 55.489L52.4948 55.18ZM52.8548 55.115L53.7959 54.7769L53.5099 53.9805L52.6771 54.1309L52.8548 55.115ZM53.1998 56.875L52.2034 56.9604L52.2037 56.9629L53.1998 56.875ZM53.2198 57.35H52.2198V58.4144L53.2822 58.348L53.2198 57.35ZM53.5398 57.33L53.4839 56.3315L53.4774 56.3319L53.5398 57.33ZM55.6848 57.21L55.8691 58.1928L55.6289 56.2115L55.6848 57.21ZM55.6298 57.685L55.5194 58.6788L58.6437 59.026L56.2942 56.9376L55.6298 57.685ZM55.3398 57.67L55.3656 58.6696L55.3777 58.6693L55.3897 58.6687L55.3398 57.67ZM53.2098 57.725L53.184 56.7253L52.2877 56.7484L52.2133 57.6419L53.2098 57.725ZM53.1998 57.91L52.2027 57.8333L52.202 57.8429L52.2014 57.8526L53.1998 57.91ZM52.4598 59.935L51.9091 59.1003L49.6249 60.6073L52.3426 60.9281L52.4598 59.935ZM55.4998 60.22L55.8797 61.145L55.5661 59.2222L55.4998 60.22ZM55.3398 60.675L55.0774 61.6399L56.9174 62.1402L56.2828 60.3421L55.3398 60.675ZM51.6248 60.225L51.5395 61.2213L51.5527 61.2224L51.566 61.2232L51.6248 60.225ZM50.3648 60.88L51.3401 61.1009L51.3429 61.0885L51.3454 61.0761L50.3648 60.88ZM51.1448 62.2L51.6445 61.3338L51.5905 61.3026L51.5331 61.2784L51.1448 62.2ZM53.2898 62.67L53.1027 63.6523L53.1083 63.6534L53.2898 62.67ZM54.1298 62.825L54.3179 61.8428L54.3113 61.8416L54.1298 62.825ZM54.3648 62.87L54.1767 63.8521L54.5609 61.8894L54.3648 62.87ZM54.1998 63.025L55.17 63.2675L55.1716 63.2606L54.1998 63.025ZM54.2148 63.195L53.8121 64.1103L56.1326 65.1313L55.1339 62.801L54.2148 63.195ZM53.7648 63.055L53.5663 64.0351L53.5687 64.0355L53.7648 63.055ZM52.0848 62.765L52.2492 61.7786L52.2331 61.7759L52.217 61.7737L52.0848 62.765ZM51.7848 62.725L51.917 61.7337L51.915 61.7335L51.7848 62.725ZM50.5548 62.77L51.0212 63.6545L51.0854 63.6207L51.144 63.578L50.5548 62.77ZM50.1648 63.76L51.1494 63.5849L51.1451 63.5609L51.1397 63.5371L50.1648 63.76ZM51.0298 64.645L51.3156 63.6867L51.3084 63.6845L51.3011 63.6825L51.0298 64.645ZM52.8248 65.095L52.6946 66.0865L53.0598 64.123L52.8248 65.095ZM50.5398 64.795L50.2415 65.7494L50.324 65.7752L50.4096 65.7865L50.5398 64.795ZM50.2298 64.6L49.5958 65.3733L49.6057 65.3814L49.6159 65.3893L50.2298 64.6ZM49.7648 63.045L50.6996 63.4001L50.7024 63.3929L50.705 63.3856L49.7648 63.045ZM50.1498 62.545L50.6619 63.404L50.6724 63.3976L50.1498 62.545ZM50.6698 62.38L50.7773 63.3742L54.0223 63.0234L51.1377 61.4962L50.6698 62.38ZM49.8848 60.885L48.9033 60.6934L48.8991 60.715L48.8959 60.7366L49.8848 60.885ZM50.7998 59.9L51.0996 60.854L52.8475 60.3046L51.44 59.1317L50.7998 59.9ZM50.7048 59.82L51.4119 59.1129L51.3398 59.0408L51.2547 58.9847L50.7048 59.82ZM50.3248 57.73L49.3333 57.5995L49.3331 57.6012L50.3248 57.73ZM50.3298 56.72L51.3162 56.5556L51.3074 56.5027L51.293 56.451L50.3298 56.72ZM49.4748 56.195L49.7226 57.1638L49.7785 57.1495L49.8323 57.1289L49.4748 56.195ZM48.9248 56.515L49.5388 57.3043L49.5452 57.2992L48.9248 56.515ZM48.6598 56.395L49.6597 56.4101L49.6598 56.4025V56.395H48.6598ZM48.8648 55.96L49.6189 56.6168L49.6273 56.6069L48.8648 55.96ZM49.3498 55.7L49.6153 56.6641L49.6678 56.6496L49.7185 56.6295L49.3498 55.7ZM50.6898 56.24L49.7944 56.6852L49.7954 56.6872L50.6898 56.24ZM50.8048 57.5L49.8168 57.3456L49.8119 57.3766L49.809 57.4079L50.8048 57.5ZM51.0598 59.5L50.2844 60.1315L50.2958 60.1455L50.3077 60.1591L51.0598 59.5ZM52.0748 59.67L52.9692 59.2227L52.5435 58.3712L51.6721 58.7546L52.0748 59.67ZM52.7998 57.21C53.7996 57.2294 53.7996 57.2292 53.7996 57.229C53.7996 57.229 53.7996 57.2288 53.7996 57.2287C53.7996 57.2284 53.7996 57.2282 53.7996 57.2279C53.7996 57.2273 53.7997 57.2267 53.7997 57.226C53.7997 57.2246 53.7997 57.223 53.7997 57.2211C53.7998 57.2173 53.7999 57.2125 53.7999 57.2068C53.8 57.1953 53.8001 57.1799 53.8 57.1608C53.7999 57.1228 53.7993 57.0701 53.7974 57.0049C53.7937 56.8747 53.785 56.693 53.7649 56.4772C53.7252 56.0516 53.639 55.4652 53.4458 54.8709L51.5438 55.489C51.6756 55.8947 51.7419 56.3233 51.7735 56.6627C51.789 56.8294 51.7956 56.9677 51.7983 57.0619C51.7996 57.1089 51.8 57.1445 51.8 57.1667C51.8001 57.1777 51.8 57.1855 51.8 57.1895C51.8 57.1916 51.7999 57.1927 51.7999 57.1929C51.7999 57.193 51.7999 57.1928 51.8 57.1924C51.8 57.1922 51.8 57.192 51.8 57.1917C51.8 57.1915 51.8 57.1913 51.8 57.1912C51.8 57.1911 51.8 57.1909 51.8 57.1909C51.8 57.1907 51.8 57.1905 52.7998 57.21ZM52.6725 56.164L53.0325 56.099L52.6771 54.1309L52.3171 54.1959L52.6725 56.164ZM52.8548 55.115C51.9137 55.453 51.9136 55.4528 51.9135 55.4527C51.9135 55.4526 51.9135 55.4524 51.9134 55.4524C51.9134 55.4522 51.9133 55.452 51.9132 55.4518C51.9131 55.4514 51.913 55.4511 51.9129 55.4508C51.9127 55.4503 51.9126 55.4499 51.9125 55.4497C51.9123 55.4493 51.9124 55.4495 51.9127 55.4504C51.9134 55.4522 51.9149 55.4566 51.9172 55.4635C51.9218 55.4773 51.9295 55.5011 51.9396 55.5341C51.9598 55.6003 51.9892 55.7032 52.0218 55.8373C52.0871 56.1062 52.1636 56.4952 52.2035 56.9604L54.1961 56.7896C54.146 56.2047 54.05 55.7137 53.9653 55.3652C53.9228 55.1904 53.883 55.0502 53.8525 54.9505C53.8373 54.9006 53.8244 54.8607 53.8147 54.8315C53.8098 54.817 53.8058 54.8051 53.8026 54.7959C53.801 54.7914 53.7997 54.7875 53.7986 54.7843C53.798 54.7828 53.7975 54.7813 53.7971 54.7801C53.7968 54.7795 53.7966 54.7789 53.7965 54.7784C53.7964 54.7781 53.7963 54.7779 53.7962 54.7776C53.7961 54.7775 53.7961 54.7773 53.7961 54.7773C53.796 54.7771 53.7959 54.7769 52.8548 55.115ZM52.2037 56.9629C52.2156 57.0981 52.2198 57.2232 52.2198 57.35H54.2198C54.2198 57.1767 54.214 56.9918 54.1959 56.7871L52.2037 56.9629ZM53.2822 58.348L53.6022 58.328L53.4774 56.3319L53.1574 56.3519L53.2822 58.348ZM53.5957 58.3284L55.7407 58.2084L55.6289 56.2115L53.4839 56.3315L53.5957 58.3284ZM55.6848 57.21C55.5005 56.2271 55.4998 56.2272 55.4991 56.2273C55.4989 56.2274 55.4982 56.2275 55.4977 56.2276C55.4968 56.2278 55.4958 56.228 55.4949 56.2282C55.493 56.2285 55.4911 56.2289 55.4891 56.2293C55.4852 56.2301 55.4813 56.2309 55.4772 56.2317C55.4691 56.2334 55.4607 56.2353 55.4519 56.2374C55.4344 56.2416 55.4155 56.2465 55.3953 56.2525C55.3551 56.2643 55.309 56.2804 55.259 56.3022C55.1594 56.3458 55.0383 56.4153 54.9209 56.5254C54.659 56.7709 54.5248 57.1125 54.5248 57.48H56.5248C56.5248 57.6074 56.4706 57.814 56.2887 57.9845C56.2113 58.0571 56.1302 58.1041 56.0606 58.1346C56.0256 58.1499 55.992 58.1617 55.9606 58.1709C55.9448 58.1756 55.9292 58.1797 55.9141 58.1833C55.9065 58.1851 55.8989 58.1868 55.8914 58.1884C55.8877 58.1892 55.884 58.1899 55.8802 58.1907C55.8784 58.191 55.8765 58.1914 55.8747 58.1918C55.8737 58.1919 55.8728 58.1921 55.8719 58.1923C55.8714 58.1924 55.8707 58.1925 55.8705 58.1926C55.8698 58.1927 55.8691 58.1928 55.6848 57.21ZM54.5248 57.48C54.5248 58.024 54.8642 58.3423 54.9654 58.4324L56.2942 56.9376C56.3054 56.9476 56.5248 57.136 56.5248 57.48H54.5248ZM55.7402 56.6911C55.6511 56.6812 55.4789 56.6618 55.2899 56.6712L55.3897 58.6687C55.3911 58.6686 55.4013 58.6683 55.4246 58.6698C55.4486 58.6713 55.4767 58.6741 55.5194 58.6788L55.7402 56.6911ZM55.314 56.6703L53.184 56.7253L53.2356 58.7246L55.3656 58.6696L55.314 56.6703ZM52.2133 57.6419C52.2087 57.6963 52.2068 57.747 52.2056 57.7748C52.2043 57.8086 52.2036 57.8217 52.2027 57.8333L54.1969 57.9867C54.201 57.9332 54.2028 57.8838 54.204 57.8564C54.2053 57.823 54.2059 57.8136 54.2063 57.808L52.2133 57.6419ZM52.2014 57.8526C52.1793 58.2375 52.1245 58.5695 52.0434 58.815C51.9559 59.0799 51.8797 59.1196 51.9091 59.1003L53.0105 60.7696C53.5249 60.4303 53.7937 59.8926 53.9424 59.4424C54.0976 58.9729 54.1703 58.4525 54.1982 57.9673L52.2014 57.8526ZM52.3426 60.9281C53.1616 61.0247 53.933 61.097 54.4988 61.1451C54.7821 61.1692 55.0146 61.1873 55.1768 61.1994C55.2579 61.2054 55.3215 61.21 55.3651 61.213C55.3869 61.2146 55.4037 61.2157 55.4152 61.2165C55.421 61.2169 55.4254 61.2172 55.4284 61.2174C55.43 61.2175 55.4312 61.2176 55.432 61.2177C55.4324 61.2177 55.4328 61.2177 55.433 61.2177C55.4331 61.2177 55.4333 61.2177 55.4333 61.2177C55.4334 61.2178 55.4334 61.2178 55.4334 61.2178C55.4335 61.2178 55.4335 61.2178 55.4998 60.22C55.5661 59.2222 55.5661 59.2222 55.5661 59.2222C55.5661 59.2222 55.5661 59.2222 55.5661 59.2222C55.5661 59.2222 55.5661 59.2222 55.5661 59.2222C55.566 59.2222 55.5658 59.2221 55.5655 59.2221C55.565 59.2221 55.5641 59.222 55.5628 59.2219C55.5604 59.2218 55.5566 59.2215 55.5515 59.2212C55.5413 59.2205 55.5258 59.2194 55.5053 59.218C55.4644 59.2151 55.4037 59.2107 55.3256 59.2049C55.1693 59.1933 54.9438 59.1757 54.6683 59.1523C54.1166 59.1054 53.368 59.0352 52.577 58.9419L52.3426 60.9281ZM55.1199 59.2949C54.5045 59.5477 54.3332 60.0989 54.3161 60.4403C54.3081 60.5989 54.3278 60.7329 54.3456 60.8201C54.355 60.866 54.3652 60.9053 54.374 60.9362C54.3785 60.9517 54.3828 60.9656 54.3866 60.9775C54.3885 60.9835 54.3904 60.989 54.3921 60.994C54.3929 60.9966 54.3937 60.999 54.3945 61.0013C54.3949 61.0024 54.3953 61.0035 54.3957 61.0046C54.3959 61.0051 54.3961 61.0057 54.3963 61.0062C54.3963 61.0065 54.3965 61.0069 54.3965 61.007C54.3967 61.0074 54.3968 61.0078 55.3398 60.675C56.2828 60.3421 56.2829 60.3425 56.2831 60.3429C56.2831 60.343 56.2832 60.3434 56.2833 60.3437C56.2835 60.3442 56.2837 60.3447 56.2839 60.3452C56.2842 60.3462 56.2846 60.3472 56.2849 60.3482C56.2856 60.3501 56.2862 60.3521 56.2869 60.3539C56.2881 60.3577 56.2893 60.3613 56.2904 60.3647C56.2926 60.3716 56.2946 60.378 56.2963 60.3841C56.2997 60.396 56.3027 60.4078 56.3052 60.42C56.3093 60.4398 56.3165 60.4816 56.3135 60.5408C56.3106 60.5993 56.2955 60.7152 56.2197 60.8448C56.1348 60.9897 56.0081 61.0922 55.8797 61.145L55.1199 59.2949ZM55.6022 59.71C54.9647 59.5367 53.9527 59.4184 53.1703 59.3438C52.7643 59.3051 52.3939 59.2759 52.1251 59.2564C51.9906 59.2466 51.8811 59.2393 51.8048 59.2343C51.7667 59.2318 51.7368 59.2299 51.7163 59.2287C51.706 59.228 51.6981 59.2276 51.6926 59.2272C51.6899 59.2271 51.6877 59.2269 51.6862 59.2268C51.6855 59.2268 51.6849 59.2268 51.6845 59.2267C51.6842 59.2267 51.6841 59.2267 51.6839 59.2267C51.6839 59.2267 51.6838 59.2267 51.6837 59.2267C51.6837 59.2267 51.6836 59.2267 51.6248 60.225C51.566 61.2232 51.5659 61.2232 51.5659 61.2232C51.5659 61.2232 51.5659 61.2232 51.5659 61.2232C51.5659 61.2232 51.566 61.2232 51.5661 61.2232C51.5663 61.2232 51.5667 61.2233 51.5672 61.2233C51.5682 61.2234 51.5699 61.2235 51.5721 61.2236C51.5767 61.2239 51.5836 61.2243 51.5929 61.2249C51.6114 61.226 51.6391 61.2278 51.675 61.2301C51.7468 61.2348 51.8513 61.2418 51.9802 61.2512C52.2385 61.2699 52.5934 61.2979 52.9805 61.3348C53.7844 61.4115 54.6299 61.5182 55.0774 61.6399L55.6022 59.71ZM51.7101 59.2286C50.9012 59.1594 50.2839 59.3988 49.8727 59.8085C49.6834 59.9971 49.5666 60.194 49.4958 60.3491C49.4602 60.4271 49.4353 60.4967 49.4179 60.5531C49.4091 60.5815 49.4022 60.6068 49.3967 60.6287C49.394 60.6396 49.3916 60.6497 49.3895 60.6589C49.3885 60.6635 49.3875 60.6679 49.3866 60.6721C49.3862 60.6741 49.3858 60.6762 49.3854 60.6781C49.3852 60.6791 49.385 60.6801 49.3848 60.681C49.3847 60.6815 49.3845 60.6822 49.3845 60.6825C49.3844 60.6832 49.3842 60.6838 50.3648 60.88C51.3454 61.0761 51.3452 61.0768 51.3451 61.0775C51.3451 61.0777 51.3449 61.0784 51.3448 61.0788C51.3446 61.0797 51.3445 61.0806 51.3443 61.0815C51.3439 61.0833 51.3435 61.0851 51.3432 61.0868C51.3425 61.0902 51.3417 61.0935 51.341 61.0967C51.3396 61.1031 51.3382 61.109 51.3368 61.1145C51.3341 61.1254 51.3314 61.1347 51.329 61.1427C51.3241 61.1585 51.3195 61.1703 51.3153 61.1794C51.3074 61.1968 51.2975 61.2122 51.2844 61.2252C51.2257 61.2837 51.2384 61.1955 51.5395 61.2213L51.7101 59.2286ZM49.3895 60.659C49.1856 61.5592 49.6018 62.2238 49.9769 62.5925C50.1599 62.7724 50.3465 62.8993 50.4827 62.9803C50.5524 63.0218 50.6132 63.0538 50.6598 63.0768C50.6832 63.0884 50.7033 63.0979 50.7196 63.1053C50.7277 63.109 50.7349 63.1122 50.7411 63.1149C50.7442 63.1162 50.747 63.1174 50.7496 63.1186C50.7509 63.1191 50.7521 63.1196 50.7533 63.1201C50.7538 63.1204 50.7544 63.1206 50.7549 63.1208C50.7552 63.121 50.7556 63.1211 50.7558 63.1212C50.7561 63.1213 50.7565 63.1215 51.1448 62.2C51.5331 61.2784 51.5334 61.2786 51.5338 61.2787C51.5339 61.2788 51.5343 61.2789 51.5346 61.279C51.535 61.2793 51.5355 61.2795 51.536 61.2796C51.5369 61.28 51.5378 61.2804 51.5386 61.2808C51.5402 61.2815 51.5416 61.2821 51.5429 61.2826C51.5453 61.2837 51.547 61.2845 51.548 61.2849C51.5499 61.2858 51.5491 61.2854 51.546 61.2839C51.5395 61.2807 51.5249 61.2732 51.5055 61.2616C51.4634 61.2366 51.4165 61.2031 51.3789 61.1662C51.3412 61.129 51.3335 61.1089 51.3343 61.111C51.3396 61.1248 51.3335 61.1301 51.3401 61.1009L49.3895 60.659ZM50.6451 63.0661C50.7766 63.142 50.9185 63.1827 50.9515 63.1927C51.0204 63.2134 51.0982 63.2339 51.1762 63.2532C51.3339 63.2923 51.5319 63.3364 51.7433 63.3813C52.1684 63.4715 52.68 63.5718 53.1027 63.6523L53.4769 61.6876C53.0596 61.6081 52.5637 61.5109 52.1588 61.4249C51.9552 61.3817 51.7826 61.343 51.6572 61.3119C51.5936 61.2961 51.5517 61.2847 51.5282 61.2776C51.4688 61.2597 51.5455 61.2766 51.6445 61.3338L50.6451 63.0661ZM53.1083 63.6534L53.9483 63.8084L54.3113 61.8416L53.4713 61.6866L53.1083 63.6534ZM53.9417 63.8071L54.1767 63.8521L54.5529 61.8878L54.3179 61.8428L53.9417 63.8071ZM54.5609 61.8894C54.3956 61.8563 54.1005 61.8407 53.7953 62.0135C53.4619 62.2022 53.295 62.5129 53.2279 62.7894L55.1716 63.2606C55.1446 63.372 55.0477 63.6028 54.7805 63.754C54.5416 63.8892 54.309 63.8786 54.1687 63.8505L54.5609 61.8894ZM53.2297 62.7824C53.1341 63.1647 53.2403 63.4597 53.2957 63.5889L55.1339 62.801C55.1391 62.813 55.1678 62.8797 55.1823 62.9731C55.1976 63.0717 55.1936 63.1729 55.1699 63.2675L53.2297 62.7824ZM54.6175 62.2796C54.4271 62.1959 54.2079 62.1238 53.9609 62.0744L53.5687 64.0355C53.6717 64.0561 53.7525 64.0841 53.8121 64.1103L54.6175 62.2796ZM53.9633 62.0749C53.5458 61.9903 52.3214 61.7906 52.2492 61.7786L51.9204 63.7514C52.0282 63.7693 53.1938 63.9596 53.5663 64.0351L53.9633 62.0749ZM52.217 61.7737L51.917 61.7337L51.6526 63.7162L51.9526 63.7562L52.217 61.7737ZM51.915 61.7335C51.3571 61.6602 50.9519 61.6646 50.6505 61.7097C50.4981 61.7325 50.367 61.7665 50.2537 61.8094C50.1969 61.8309 50.1446 61.8547 50.0965 61.8803C50.0724 61.8932 50.0495 61.9064 50.0276 61.9201C50.0167 61.9269 50.0061 61.9338 49.9958 61.9408C49.9906 61.9443 49.9855 61.9478 49.9805 61.9513C49.978 61.9531 49.9755 61.9549 49.973 61.9566C49.9718 61.9575 49.9705 61.9584 49.9693 61.9593C49.9687 61.9597 49.9678 61.9604 49.9675 61.9606C49.9665 61.9613 49.9656 61.962 50.5548 62.77C51.144 63.578 51.1431 63.5786 51.1421 63.5793C51.1418 63.5795 51.1409 63.5802 51.1403 63.5806C51.1391 63.5815 51.1379 63.5824 51.1367 63.5832C51.1343 63.585 51.1319 63.5867 51.1295 63.5883C51.1247 63.5917 51.12 63.595 51.1153 63.5981C51.1059 63.6045 51.0967 63.6104 51.0878 63.616C51.07 63.6271 51.0532 63.6367 51.0376 63.645C51.0065 63.6617 50.9807 63.6727 50.9618 63.6799C50.9245 63.694 50.9152 63.6924 50.9466 63.6877C51.0127 63.6778 51.2225 63.6597 51.6546 63.7164L51.915 61.7335ZM50.0884 61.8854C49.4296 62.2328 49.2175 62.8364 49.1627 63.2389C49.1355 63.4388 49.1413 63.6141 49.1525 63.737C49.1583 63.8 49.1658 63.8534 49.1727 63.8945C49.1762 63.9152 49.1795 63.933 49.1825 63.9478C49.184 63.9552 49.1853 63.9618 49.1866 63.9676C49.1872 63.9706 49.1878 63.9733 49.1884 63.9758C49.1887 63.9771 49.1889 63.9783 49.1892 63.9794C49.1893 63.98 49.1894 63.9806 49.1896 63.9812C49.1896 63.9814 49.1897 63.9818 49.1898 63.982C49.1898 63.9824 49.1899 63.9828 50.1648 63.76C51.1397 63.5371 51.1397 63.5375 51.1398 63.5379C51.1399 63.5381 51.14 63.5384 51.14 63.5387C51.1401 63.5392 51.1402 63.5397 51.1404 63.5402C51.1406 63.5412 51.1408 63.5422 51.141 63.5431C51.1414 63.5449 51.1418 63.5467 51.1421 63.5482C51.1428 63.5514 51.1434 63.5541 51.1438 63.5563C51.1447 63.5606 51.1451 63.5632 51.1453 63.5641C51.1455 63.5658 51.1449 63.5623 51.1442 63.5551C51.1427 63.5377 51.1429 63.5199 51.1444 63.5086C51.1471 63.4885 51.13 63.5972 51.0212 63.6545L50.0884 61.8854ZM49.1802 63.935C49.3043 64.6327 49.7507 65.0585 50.0799 65.2825C50.2479 65.3967 50.4063 65.4739 50.5231 65.5231C50.5824 65.5481 50.6336 65.567 50.6734 65.5806C50.6934 65.5875 50.7107 65.5931 50.7249 65.5975C50.7321 65.5997 50.7385 65.6016 50.7441 65.6033C50.7469 65.6041 50.7495 65.6049 50.7519 65.6056C50.7531 65.6059 50.7542 65.6062 50.7553 65.6066C50.7559 65.6067 50.7564 65.6069 50.757 65.607C50.7572 65.6071 50.7576 65.6072 50.7577 65.6072C50.7581 65.6073 50.7585 65.6075 51.0298 64.645C51.3011 63.6825 51.3015 63.6826 51.3018 63.6827C51.302 63.6827 51.3023 63.6828 51.3026 63.6829C51.3031 63.683 51.3035 63.6832 51.304 63.6833C51.3049 63.6835 51.3058 63.6838 51.3066 63.684C51.3083 63.6845 51.3099 63.685 51.3112 63.6854C51.314 63.6862 51.3162 63.6869 51.3179 63.6874C51.3211 63.6884 51.3223 63.6888 51.3217 63.6886C51.3203 63.6881 51.3124 63.6854 51.3 63.6801C51.2733 63.6689 51.2379 63.6513 51.2047 63.6287C51.1709 63.6057 51.1541 63.5876 51.148 63.5796C51.1457 63.5765 51.1461 63.5765 51.1474 63.5793C51.1488 63.5824 51.1494 63.585 51.1494 63.5849L49.1802 63.935ZM50.744 65.6032C50.9158 65.6545 51.3956 65.7743 51.7947 65.8728C52.0026 65.924 52.2012 65.9725 52.3479 66.0082C52.4212 66.0261 52.4816 66.0407 52.5237 66.051C52.5448 66.0561 52.5612 66.06 52.5725 66.0628C52.5781 66.0641 52.5824 66.0652 52.5853 66.0659C52.5868 66.0662 52.5879 66.0665 52.5887 66.0667C52.589 66.0668 52.5893 66.0668 52.5895 66.0669C52.5896 66.0669 52.5897 66.0669 52.5898 66.0669C52.5898 66.067 52.5898 66.067 52.5898 66.067C52.5898 66.067 52.5898 66.067 52.8248 65.095C53.0598 64.123 53.0598 64.123 53.0597 64.123C53.0597 64.123 53.0597 64.1229 53.0597 64.1229C53.0597 64.1229 53.0596 64.1229 53.0595 64.1229C53.0593 64.1229 53.0591 64.1228 53.0587 64.1227C53.058 64.1225 53.057 64.1223 53.0556 64.1219C53.0528 64.1213 53.0486 64.1202 53.0431 64.1189C53.032 64.1162 53.0158 64.1123 52.995 64.1073C52.9534 64.0972 52.8936 64.0827 52.8209 64.065C52.6755 64.0296 52.4789 63.9815 52.2736 63.9309C51.8465 63.8256 51.4287 63.7204 51.3156 63.6867L50.744 65.6032ZM52.955 64.1035L50.67 63.8035L50.4096 65.7865L52.6946 66.0865L52.955 64.1035ZM50.8381 63.8405C50.8436 63.8422 50.8515 63.8449 50.8613 63.8489C50.8711 63.8529 50.8818 63.8578 50.8931 63.8636C50.9045 63.8694 50.9152 63.8755 50.925 63.8817C50.9348 63.8878 50.9426 63.8932 50.948 63.8972C50.9533 63.901 50.956 63.9032 50.9549 63.9024C50.9534 63.9012 50.9501 63.8984 50.9412 63.8908C50.939 63.889 50.9368 63.8871 50.9342 63.8849C50.9317 63.8828 50.9287 63.8803 50.9258 63.8777C50.9197 63.8726 50.9124 63.8664 50.9044 63.8597C50.8884 63.8463 50.8677 63.8292 50.8437 63.8106L49.6159 65.3893C49.5772 65.3592 49.8546 65.6285 50.2415 65.7494L50.8381 63.8405ZM50.8638 63.8266C50.7184 63.7074 50.6982 63.6037 50.6941 63.524C50.6915 63.4734 50.6975 63.4272 50.7039 63.3958C50.7069 63.381 50.7095 63.3724 50.7096 63.3719C50.7097 63.3717 50.7091 63.3738 50.7075 63.3784C50.7067 63.3806 50.7057 63.3836 50.7044 63.3872C50.7038 63.389 50.703 63.3909 50.7022 63.3931C50.7018 63.3942 50.7014 63.3953 50.701 63.3965C50.7008 63.397 50.7005 63.3976 50.7003 63.3982C50.7002 63.3985 50.7 63.399 50.7 63.3992C50.6998 63.3996 50.6996 63.4001 49.7648 63.045C48.83 62.6898 48.8298 62.6903 48.8296 62.6908C48.8296 62.691 48.8294 62.6914 48.8292 62.6918C48.829 62.6924 48.8287 62.6931 48.8285 62.6938C48.828 62.6952 48.8274 62.6966 48.8269 62.6981C48.8258 62.7011 48.8246 62.7044 48.8233 62.7079C48.8207 62.715 48.8179 62.723 48.8148 62.732C48.8087 62.75 48.8016 62.7719 48.7939 62.7975C48.7786 62.8485 48.7609 62.915 48.7446 62.9945C48.7124 63.1514 48.6837 63.3703 48.6967 63.6259C48.7239 64.1587 48.9362 64.8325 49.5958 65.3733L50.8638 63.8266ZM50.705 63.3856C50.7077 63.3781 50.7123 63.3717 50.7167 63.3672C50.7184 63.3655 50.7174 63.3669 50.7106 63.372C50.7071 63.3747 50.7017 63.3786 50.6938 63.3838C50.6899 63.3865 50.6853 63.3894 50.6801 63.3928C50.6774 63.3944 50.6746 63.3962 50.6715 63.3981C50.67 63.399 50.6685 63.3999 50.6669 63.4009C50.666 63.4014 50.6652 63.4019 50.6644 63.4024C50.664 63.4026 50.6636 63.4029 50.6631 63.4031C50.6629 63.4033 50.6626 63.4035 50.6625 63.4035C50.6622 63.4037 50.6619 63.4039 50.1498 62.545C49.6377 61.686 49.6374 61.6862 49.6371 61.6864C49.637 61.6865 49.6367 61.6867 49.6364 61.6868C49.636 61.687 49.6356 61.6873 49.6351 61.6876C49.6342 61.6881 49.6333 61.6887 49.6324 61.6892C49.6305 61.6904 49.6286 61.6915 49.6266 61.6928C49.6225 61.6952 49.6182 61.6979 49.6136 61.7008C49.6045 61.7066 49.5942 61.7132 49.5829 61.7208C49.5604 61.7358 49.5337 61.7545 49.5038 61.7771C49.4444 61.8221 49.3705 61.8838 49.2917 61.9639C49.1348 62.1232 48.9469 62.3668 48.8246 62.7043L50.705 63.3856ZM50.6724 63.3976C50.6678 63.4004 50.6947 63.3831 50.7773 63.3742L50.5623 61.3858C50.2749 61.4168 49.9418 61.4996 49.6272 61.6924L50.6724 63.3976ZM51.1377 61.4962C50.9728 61.4089 50.9219 61.3027 50.8958 61.2002C50.8806 61.1405 50.8762 61.0838 50.876 61.0436C50.8759 61.0245 50.8767 61.0122 50.877 61.009C50.8771 61.0075 50.877 61.0085 50.8766 61.0124C50.8763 61.0144 50.876 61.0171 50.8756 61.0205C50.8753 61.0222 50.8751 61.0242 50.8748 61.0263C50.8746 61.0274 50.8744 61.0285 50.8743 61.0296C50.8742 61.0302 50.8741 61.0308 50.874 61.0314C50.874 61.0317 50.8739 61.0322 50.8739 61.0324C50.8738 61.0328 50.8737 61.0333 49.8848 60.885C48.8959 60.7366 48.8958 60.7371 48.8957 60.7376C48.8957 60.7378 48.8956 60.7382 48.8956 60.7386C48.8955 60.7392 48.8954 60.7399 48.8953 60.7406C48.8951 60.742 48.8948 60.7435 48.8946 60.7451C48.8942 60.7482 48.8937 60.7515 48.8932 60.7552C48.8923 60.7624 48.8912 60.7708 48.8901 60.7802C48.8879 60.799 48.8855 60.822 48.8834 60.8488C48.8791 60.9022 48.8755 60.9719 48.876 61.0543C48.8769 61.2171 48.8934 61.4413 48.9576 61.6935C49.0902 62.2148 49.4318 62.856 50.2019 63.2637L51.1377 61.4962ZM50.8663 61.0765C50.8762 61.0256 50.8896 60.9969 50.8983 60.9816C50.9072 60.9661 50.9176 60.9532 50.9313 60.9407C50.9624 60.9122 51.0174 60.8798 51.0996 60.854L50.5 58.946C49.9604 59.1156 49.1207 59.5792 48.9033 60.6934L50.8663 61.0765ZM51.44 59.1317C51.4229 59.1175 51.4073 59.1051 51.3984 59.098C51.396 59.0962 51.3937 59.0943 51.3918 59.0928C51.3898 59.0912 51.3882 59.0899 51.3866 59.0887C51.3836 59.0863 51.3818 59.0849 51.3807 59.0839C51.3782 59.0819 51.3806 59.0838 51.3856 59.0881C51.3906 59.0925 51.4 59.1009 51.4119 59.1129L49.9977 60.5271C50.0498 60.5792 50.0979 60.6187 50.1239 60.6398C50.1363 60.6498 50.1502 60.6608 50.1546 60.6642C50.1616 60.6698 50.1617 60.6699 50.1596 60.6682L51.44 59.1317ZM50.7048 59.82C51.2547 58.9847 51.2555 58.9853 51.2564 58.9859C51.2567 58.986 51.2576 58.9866 51.2581 58.987C51.2593 58.9878 51.2604 58.9885 51.2615 58.9893C51.2638 58.9908 51.266 58.9923 51.2682 58.9938C51.2726 58.9968 51.2769 58.9997 51.281 59.0027C51.2892 59.0085 51.2969 59.0142 51.3041 59.0196C51.3185 59.0306 51.3309 59.0409 51.3414 59.0502C51.3626 59.0689 51.376 59.0835 51.3834 59.0924C51.3992 59.1114 51.3853 59.1013 51.3626 59.0437C51.3171 58.9285 51.2223 58.5843 51.3165 57.8587L49.3331 57.6012C49.2073 58.5706 49.3025 59.2715 49.502 59.7775C49.6018 60.0305 49.7241 60.225 49.8456 60.3711C49.9058 60.4435 49.9643 60.5022 50.0174 60.5492C50.044 60.5726 50.069 60.593 50.0921 60.6106C50.1037 60.6194 50.1147 60.6275 50.1252 60.6349C50.1304 60.6386 50.1356 60.6422 50.1405 60.6455C50.143 60.6472 50.1454 60.6489 50.1478 60.6505C50.149 60.6513 50.1502 60.6521 50.1514 60.6529C50.152 60.6533 50.1529 60.6539 50.1532 60.6541C50.1541 60.6546 50.1549 60.6552 50.7048 59.82ZM51.3163 57.8604C51.3534 57.5784 51.3789 57.3539 51.3779 57.1416C51.3769 56.9138 51.345 56.7285 51.3162 56.5556L49.3434 56.8844C49.3746 57.0714 49.3777 57.1061 49.3779 57.1508C49.3782 57.211 49.3712 57.3115 49.3333 57.5995L51.3163 57.8604ZM50.3298 56.72C51.293 56.451 51.2928 56.4506 51.2927 56.4502C51.2927 56.4501 51.2926 56.4497 51.2925 56.4494C51.2923 56.4488 51.2922 56.4482 51.292 56.4476C51.2917 56.4465 51.2913 56.4452 51.291 56.4439C51.2902 56.4414 51.2894 56.4386 51.2885 56.4356C51.2868 56.4296 51.2847 56.4227 51.2823 56.4151C51.2776 56.3998 51.2716 56.3813 51.2642 56.36C51.2496 56.3177 51.2289 56.2627 51.2011 56.1999C51.1482 56.0798 51.0575 55.9032 50.9132 55.7286C50.7688 55.5539 50.5385 55.3427 50.2025 55.2276C49.8474 55.106 49.4718 55.1253 49.1173 55.261L49.8323 57.1289C49.7978 57.1421 49.6891 57.1658 49.5543 57.1197C49.4386 57.08 49.382 57.0154 49.3714 57.0025C49.3609 56.9898 49.3639 56.9904 49.3713 57.0071C49.3737 57.0126 49.3748 57.0159 49.3744 57.0147C49.3742 57.014 49.3734 57.0118 49.3721 57.0077C49.3715 57.0056 49.3707 57.003 49.3698 56.9999C49.3693 56.9984 49.3689 56.9967 49.3683 56.9949C49.3681 56.9939 49.3678 56.993 49.3675 56.992C49.3674 56.9915 49.3672 56.991 49.3671 56.9905C49.367 56.9902 49.3669 56.9898 49.3669 56.9897C49.3668 56.9893 49.3666 56.9889 50.3298 56.72ZM49.4748 56.195C49.227 55.2262 49.2266 55.2263 49.2262 55.2263C49.2261 55.2264 49.2257 55.2265 49.2255 55.2265C49.225 55.2267 49.2245 55.2268 49.224 55.2269C49.2229 55.2272 49.2219 55.2275 49.2209 55.2277C49.2188 55.2283 49.2167 55.2288 49.2145 55.2294C49.2101 55.2306 49.2055 55.2319 49.2007 55.2332C49.1911 55.236 49.1806 55.239 49.1693 55.2425C49.1468 55.2495 49.121 55.2581 49.0921 55.2687C49.0345 55.2898 48.9649 55.3186 48.8853 55.3577C48.7255 55.436 48.5276 55.5541 48.3044 55.7307L49.5452 57.2992C49.657 57.2108 49.7341 57.1689 49.7656 57.1535C49.7815 57.1457 49.7867 57.1442 49.7798 57.1467C49.7764 57.148 49.77 57.1502 49.7605 57.1532C49.7557 57.1546 49.7502 57.1563 49.7439 57.158C49.7408 57.1589 49.7374 57.1599 49.7339 57.1608C49.7321 57.1613 49.7303 57.1618 49.7284 57.1623C49.7275 57.1625 49.7265 57.1628 49.7256 57.163C49.7251 57.1631 49.7246 57.1633 49.7241 57.1634C49.7239 57.1634 49.7235 57.1635 49.7234 57.1636C49.723 57.1637 49.7226 57.1638 49.4748 56.195ZM48.9248 56.515C48.3109 55.7256 48.3111 55.7254 48.3114 55.7252C48.3115 55.7251 48.3118 55.7249 48.312 55.7247C48.3124 55.7244 48.3128 55.7241 48.3132 55.7238C48.3139 55.7232 48.3147 55.7227 48.3154 55.7221C48.3169 55.7209 48.3184 55.7198 48.3198 55.7187C48.3227 55.7166 48.3255 55.7145 48.3282 55.7124C48.3337 55.7084 48.3391 55.7045 48.3445 55.7008C48.3548 55.6937 48.3678 55.6852 48.3837 55.676C48.3985 55.6675 48.4857 55.6159 48.6245 55.5926C48.7009 55.5797 48.8273 55.5695 48.979 55.6066C49.1428 55.6466 49.3054 55.7351 49.4346 55.8755C49.557 56.0083 49.6117 56.1463 49.6359 56.2367C49.6594 56.3249 49.66 56.389 49.6597 56.4101L47.6599 56.3798C47.6573 56.551 47.6779 56.9203 47.9635 57.2304C48.3019 57.5978 48.7353 57.602 48.9563 57.5649C49.162 57.5302 49.3165 57.4468 49.3817 57.4092C49.4228 57.3855 49.4569 57.3632 49.4819 57.3459C49.4947 57.337 49.5059 57.329 49.5153 57.322C49.52 57.3186 49.5243 57.3153 49.5282 57.3124C49.5302 57.3109 49.532 57.3095 49.5338 57.3081C49.5347 57.3075 49.5355 57.3068 49.5363 57.3062C49.5368 57.3058 49.5372 57.3055 49.5376 57.3052C49.5378 57.3051 49.5381 57.3048 49.5382 57.3048C49.5384 57.3045 49.5387 57.3043 48.9248 56.515ZM49.6598 56.395C49.6598 56.4785 49.6465 56.5359 49.6407 56.5582C49.6337 56.585 49.6271 56.6007 49.6246 56.6063C49.6217 56.6127 49.62 56.6152 49.62 56.6153C49.6199 56.6155 49.6197 56.6158 49.6189 56.6167L48.1107 55.3032C47.9758 55.458 47.872 55.6262 47.7988 55.7899C47.734 55.9347 47.6598 56.1504 47.6598 56.395H49.6598ZM48.8648 55.96C49.6273 56.6069 49.627 56.6073 49.6267 56.6076C49.6266 56.6077 49.6263 56.6081 49.6261 56.6083C49.6257 56.6088 49.6254 56.6092 49.625 56.6097C49.6242 56.6106 49.6234 56.6115 49.6227 56.6124C49.6211 56.6141 49.6196 56.6159 49.6181 56.6176C49.6151 56.621 49.6122 56.6243 49.6094 56.6274C49.6038 56.6337 49.5985 56.6394 49.5934 56.6446C49.5834 56.6551 49.5747 56.6635 49.5674 56.6702C49.5526 56.6837 49.5433 56.6904 49.5402 56.6925C49.5327 56.6976 49.5544 56.6808 49.6153 56.6641L49.0843 54.7358C48.8002 54.8141 48.5794 54.9273 48.4156 55.0387C48.3344 55.0939 48.2685 55.1477 48.2168 55.1952C48.1909 55.2188 48.1685 55.2409 48.1495 55.2607C48.14 55.2707 48.1314 55.28 48.1235 55.2888C48.1196 55.2931 48.1158 55.2973 48.1123 55.3014C48.1105 55.3034 48.1088 55.3054 48.1071 55.3073C48.1063 55.3083 48.1055 55.3092 48.1047 55.3102C48.1043 55.3107 48.1039 55.3111 48.1035 55.3116C48.1033 55.3118 48.103 55.3122 48.1029 55.3123C48.1026 55.3126 48.1023 55.313 48.8648 55.96ZM49.3498 55.7C49.7185 56.6295 49.718 56.6297 49.7176 56.6299C49.7174 56.6299 49.717 56.6301 49.7167 56.6302C49.716 56.6305 49.7155 56.6307 49.7149 56.6309C49.7137 56.6314 49.7126 56.6318 49.7115 56.6322C49.7094 56.6331 49.7074 56.6338 49.7055 56.6345C49.7019 56.6359 49.6989 56.637 49.6965 56.6379C49.6917 56.6396 49.6892 56.6404 49.6888 56.6405C49.6881 56.6407 49.6939 56.6389 49.7043 56.6367C49.7289 56.6314 49.7536 56.6295 49.7704 56.6309C49.7834 56.632 49.7743 56.6333 49.7584 56.6233C49.7376 56.6102 49.7577 56.6115 49.7944 56.6852L51.5852 55.7947C51.1855 54.9908 50.5128 54.6855 49.9354 54.6377C49.6729 54.616 49.446 54.6469 49.2888 54.6803C49.2084 54.6974 49.1409 54.7163 49.0895 54.7324C49.0637 54.7405 49.0415 54.7481 49.0234 54.7545C49.0144 54.7578 49.0063 54.7607 48.9992 54.7634C48.9957 54.7647 48.9924 54.766 48.9894 54.7672C48.9879 54.7677 48.9864 54.7683 48.985 54.7689C48.9844 54.7691 48.9837 54.7694 48.983 54.7696C48.9827 54.7698 48.9822 54.77 48.982 54.77C48.9816 54.7702 48.9811 54.7704 49.3498 55.7ZM49.7954 56.6872C49.8558 56.808 49.8626 56.8666 49.8645 56.9108C49.8681 56.9895 49.8573 57.0864 49.8168 57.3456L51.7928 57.6543C51.8273 57.4335 51.8765 57.1354 51.8626 56.8217C51.847 56.4733 51.7588 56.1419 51.5842 55.7927L49.7954 56.6872ZM50.8048 57.5C49.809 57.4079 49.809 57.4081 49.809 57.4082C49.809 57.4083 49.809 57.4085 49.809 57.4086C49.809 57.4088 49.8089 57.4091 49.8089 57.4093C49.8089 57.4099 49.8088 57.4106 49.8087 57.4113C49.8086 57.4128 49.8084 57.4147 49.8082 57.4169C49.8078 57.4214 49.8073 57.4273 49.8067 57.4345C49.8055 57.4491 49.8039 57.4691 49.8021 57.4941C49.7986 57.5438 49.7941 57.6135 49.7902 57.6978C49.7824 57.8651 49.7764 58.0972 49.7847 58.3508C49.7929 58.5998 49.8155 58.8953 49.8731 59.1806C49.9251 59.4385 50.0298 59.8188 50.2844 60.1315L51.8352 58.8685C51.8923 58.9386 51.8664 58.9476 51.8336 58.7851C51.8063 58.6499 51.7899 58.4757 51.7836 58.2854C51.7776 58.0996 51.7819 57.9227 51.788 57.7907C51.791 57.7254 51.7944 57.6729 51.797 57.638C51.7982 57.6205 51.7993 57.6075 51.7999 57.5996C51.8002 57.5957 51.8005 57.593 51.8006 57.5917C51.8006 57.5911 51.8007 57.5908 51.8007 57.5908C51.8007 57.5908 51.8007 57.5909 51.8006 57.5911C51.8006 57.5912 51.8006 57.5913 51.8006 57.5915C51.8006 57.5916 51.8006 57.5917 51.8006 57.5917C51.8006 57.5918 51.8006 57.592 50.8048 57.5ZM51.0598 59.5C50.3077 60.1591 50.3081 60.1595 50.3085 60.1599C50.3086 60.16 50.3089 60.1604 50.3092 60.1607C50.3097 60.1613 50.3102 60.1618 50.3107 60.1624C50.3117 60.1635 50.3127 60.1647 50.3138 60.1659C50.3159 60.1683 50.3182 60.1709 50.3206 60.1735C50.3255 60.1788 50.3308 60.1846 50.3367 60.1908C50.3484 60.2033 50.3623 60.2175 50.3783 60.2332C50.4103 60.2645 50.4516 60.3023 50.5021 60.3431C50.6018 60.4236 50.7456 60.5226 50.9319 60.6042C51.3289 60.7779 51.8761 60.8499 52.4775 60.5853L51.6721 58.7546C51.6485 58.765 51.6882 58.752 51.7339 58.772C51.7446 58.7767 51.7519 58.7817 51.7589 58.7873C51.763 58.7906 51.769 58.7958 51.7772 58.8038C51.7814 58.8079 51.7863 58.8129 51.792 58.819C51.7949 58.822 51.7979 58.8253 51.8012 58.829C51.8029 58.8308 51.8046 58.8327 51.8064 58.8347C51.8073 58.8356 51.8081 58.8367 51.8091 58.8377C51.8095 58.8382 51.81 58.8387 51.8104 58.8393C51.8107 58.8395 51.811 58.8399 51.8111 58.8401C51.8115 58.8405 51.8119 58.8409 51.0598 59.5ZM51.1804 60.1172C51.4033 60.5631 51.8245 60.6454 51.9416 60.6612C52.0877 60.6808 52.2028 60.6628 52.243 60.656C52.3376 60.6399 52.4084 60.6134 52.429 60.6057C52.4856 60.5845 52.5289 60.5624 52.5485 60.5522C52.5957 60.5275 52.6373 60.5015 52.6712 60.4786C52.7423 60.4308 52.8178 60.3709 52.8946 60.2985C53.0502 60.1518 53.2189 59.9459 53.3687 59.6672C53.6713 59.1043 53.8723 58.2924 53.7977 57.1451L51.8019 57.2748C51.8573 58.1275 51.6983 58.5507 51.6071 58.7202C51.5601 58.8078 51.5235 58.8425 51.5223 58.8436C51.5208 58.8451 51.5301 58.8359 51.5542 58.8197C51.5646 58.8126 51.5876 58.7977 51.6219 58.7797C51.635 58.7729 51.6733 58.7531 51.7264 58.7332C51.7452 58.7261 51.8147 58.7001 51.9083 58.6842C51.9481 58.6774 52.0627 58.6594 52.2085 58.679C52.3254 58.6948 52.7464 58.777 52.9692 59.2227L51.1804 60.1172Z" fill="#5C8C24" mask="url(#path-41-inside-1_1650_3020)"/>
<path d="M55.4452 60.225H55.5002C55.9952 60.195 56.6802 59.82 56.6852 59.025C56.6852 58.155 56.2402 57.705 55.4452 57.68L55.4102 57.495L55.6702 57.48C56.1102 57.375 56.3402 57.11 56.4202 56.77C56.4502 56.72 56.4602 56.15 56.4552 56.085C56.4152 55.55 56.2202 55.3 56.2202 55.3C56.0202 54.79 54.7902 54.905 54.7902 54.905L52.5452 55.205C52.4652 55.18 52.3852 55.155 52.3102 55.13C51.9852 54.62 51.5502 54.225 50.9252 54.07C50.4252 53.95 49.7102 53.91 49.2052 53.97C47.9102 54.12 47.3252 54.585 46.9252 54.85C46.8402 54.905 46.7702 54.965 46.6952 55.025C47.1502 55.85 47.8402 56.715 48.6852 56.57C48.7402 56.445 48.8302 56.315 48.8702 56.27C49.0502 56.075 49.3002 55.935 49.5652 55.905C49.9802 55.855 50.4102 56.06 50.6352 56.41C50.9852 56.95 50.5802 57.665 50.5552 58.31C50.5452 58.615 50.7952 58.91 50.8552 59.21C50.9102 59.495 51.0202 59.795 51.2652 59.95C51.2802 59.96 51.3052 59.96 51.3202 59.97C51.3052 60.02 51.2702 60.12 51.2302 60.25C51.0702 60.26 50.9152 60.29 50.7802 60.365C50.4702 60.535 50.3102 60.91 50.3502 61.255C50.3802 61.51 50.5152 61.745 50.7052 61.92C50.5852 62.31 50.4852 62.66 50.4352 62.865C50.0902 63.13 50.0552 63.695 50.2952 64.07C50.5452 64.465 51.0052 64.68 51.4602 64.795C51.9152 64.91 52.3852 64.95 52.8302 65.1C52.8052 65.095 52.7852 65.095 52.7602 65.09C52.9852 65.13 53.1752 65.16 53.2952 65.17C53.7452 65.21 54.6052 65.02 54.7352 64.175C54.8102 63.69 54.6302 63.375 54.1652 63.185C54.1302 63.06 54.0702 62.92 54.0352 62.815C54.1202 62.83 54.2102 62.85 54.2952 62.865C54.4602 62.885 54.6002 62.9 54.6852 62.9C55.1802 62.915 55.9002 62.695 56.0102 61.895C56.0852 61.365 55.8402 60.91 55.3102 60.67C55.1152 60.63 54.9152 60.6 54.7202 60.565C54.8002 60.435 54.8802 60.305 54.9602 60.18L55.4452 60.225Z" fill="#5C8C24"/>
<path d="M55.6649 57.695C55.5949 57.605 55.5799 57.46 55.5799 57.46H55.5649C55.3849 57.445 53.2299 57.355 53.2299 57.355C53.2199 56.66 52.9349 55.83 52.7399 55.165C52.6099 55.15 52.4549 55.165 52.3199 55.12C52.4899 55.775 52.8049 56.54 52.8249 57.21C52.8399 57.66 52.8099 58.105 52.7149 58.545C52.6399 58.9 52.5199 59.26 52.2599 59.515C51.9999 59.77 51.5749 59.875 51.2699 59.68C51.0249 59.525 50.9199 59.225 50.8599 58.94C50.7999 58.64 50.7749 58.335 50.7899 58.035C50.8149 57.39 50.9899 56.685 50.6449 56.145C50.4199 55.795 49.9849 55.59 49.5749 55.64C49.3099 55.67 49.0599 55.81 48.8799 56.005C48.7949 56.1 48.4649 56.57 48.8049 56.58C48.8999 56.58 48.9849 56.515 49.0599 56.455C49.2899 56.27 49.5799 56.1 49.8649 56.185C50.2149 56.29 50.3499 56.715 50.3649 57.08C50.3849 57.58 50.2799 58.075 50.2799 58.57C50.2799 59.07 50.4149 59.605 50.7999 59.92C50.2799 60.035 49.8949 60.55 49.8799 61.085C49.8649 61.62 50.1999 62.13 50.6649 62.39C50.2299 62.4 49.8499 62.75 49.7349 63.17C49.6199 63.59 49.7499 64.05 50.0149 64.395C50.1299 64.545 50.2699 64.675 50.4399 64.755C50.4749 64.77 50.5149 64.78 50.5549 64.79L50.7149 64.56L50.6599 64.635L50.5499 64.79C50.6649 64.825 50.7899 64.845 50.9099 64.865C50.9799 64.875 51.0499 64.885 51.1249 64.89C51.6699 64.96 52.2149 65.03 52.7599 65.095C52.7849 65.1 52.8049 65.1 52.8299 65.105C52.3849 64.955 51.9149 64.915 51.4599 64.8C51.0049 64.685 50.5499 64.47 50.2949 64.075C50.0449 63.68 50.0899 63.075 50.4849 62.83C50.7249 62.68 51.0199 62.69 51.2999 62.71C51.7449 62.74 52.1849 62.795 52.6249 62.865C52.7449 62.885 52.8649 62.905 52.9799 62.925L53.0699 62.94C53.0949 62.945 53.1149 62.95 53.1399 62.95C53.1899 62.96 53.2399 62.97 53.2849 62.975L53.3599 62.99C53.4099 63 53.4549 63.01 53.4999 63.015L53.5699 63.03C53.6349 63.045 53.7049 63.055 53.7649 63.07C53.8999 63.1 54.0099 63.135 54.1149 63.17C54.1449 63.18 54.1799 63.185 54.2099 63.195C54.1399 63.08 54.2249 62.905 54.3549 62.885L54.2849 62.87L51.8399 62.39C51.5199 62.325 51.1899 62.26 50.9149 62.095C50.6149 61.915 50.3849 61.605 50.3399 61.255C50.2949 60.905 50.4599 60.53 50.7699 60.365C51.0049 60.235 51.2849 60.24 51.5549 60.245C52.8099 60.285 54.0649 60.43 55.2999 60.675C55.3099 60.675 55.3249 60.68 55.3349 60.68C55.2549 60.525 55.3349 60.305 55.4949 60.235C55.4749 60.235 55.4549 60.23 55.4399 60.23C54.4499 60.14 53.4599 60.045 52.4699 59.955C53.0749 59.425 53.1649 58.53 53.2099 57.73C53.2099 57.725 55.5649 57.695 55.6649 57.695Z" fill="#F4F5F7"/>
<path d="M11.6449 23.565C11.6449 23.565 11.4749 47.44 26.1349 47.44" stroke="#5C8C24" stroke-miterlimit="10" stroke-linecap="round" stroke-linejoin="round"/>
<path d="M40.8148 23.565C40.8148 23.565 40.9848 47.44 26.3248 47.44" stroke="#5C8C24" stroke-miterlimit="10" stroke-linecap="round" stroke-linejoin="round"/>
<path d="M26.5552 47.865C26.5552 47.865 26.0652 49.34 24.8402 49.98C23.6152 50.62 22.4002 50.71 22.1252 50.185C21.8502 49.66 22.6152 48.71 23.8402 48.07C25.0652 47.43 26.5552 47.865 26.5552 47.865Z" stroke="#5C8C24" stroke-width="0.76" stroke-miterlimit="10" stroke-linecap="round" stroke-linejoin="round"/>
<path d="M26.1353 47.715C26.1353 47.715 26.7453 49.25 27.9703 49.89C29.1953 50.53 30.2903 50.56 30.5653 50.035C30.8403 49.51 30.0753 48.56 28.8503 47.92C27.6253 47.28 26.1353 47.715 26.1353 47.715Z" stroke="#5C8C24" stroke-width="0.76" stroke-miterlimit="10" stroke-linecap="round" stroke-linejoin="round"/>
<path d="M50.985 13.71C50.985 14.9259 50.416 16.1955 49.2175 17.4579C48.0172 18.7221 46.2341 19.9228 43.958 20.9615C39.4087 23.0375 33.0577 24.39 25.995 24.39C18.9325 24.39 12.5801 23.0363 8.02954 20.9596C5.75275 19.9206 3.96891 18.7197 2.76808 17.4556C1.56902 16.1933 1 14.9243 1 13.71C1 12.5058 1.55943 11.315 2.74012 10.1646C3.92897 9.00624 5.70268 7.93867 7.98146 7.0323C12.535 5.22116 18.8994 4.13498 25.99 4.13498C33.0807 4.13498 39.4464 5.21995 44.0012 7.0305C46.2806 7.93657 48.0549 9.004 49.2442 10.1625C50.4252 11.3131 50.985 12.5045 50.985 13.71Z" fill="#F4F5F7" stroke="#5C8C24" stroke-width="2"/>
<path d="M33.6494 2.52937C33.6495 2.52955 33.6495 2.52973 33.6496 2.52991L36.7754 12.7301C36.6719 12.8538 36.4326 13.0774 35.9135 13.3325C34.6396 13.9584 31.8628 14.685 25.9901 14.685C20.1173 14.685 17.3419 13.9584 16.0695 13.3326C15.5498 13.077 15.3113 12.8532 15.2086 12.7299L18.297 2.53522C18.2971 2.53512 18.2971 2.53503 18.2971 2.53493C18.5303 1.76653 19.2986 1.185 20.2301 1.185H31.7151C32.6472 1.185 33.4125 1.76273 33.6494 2.52937Z" fill="#F4F5F7" stroke="#5C8C24" stroke-width="2"/>
</g>
<defs>
<clipPath id="clip0_1650_3020">
<rect width="64" height="64" fill="white"/>
</clipPath>
</defs>
</svg>
