<svg width="64" height="64" viewBox="0 0 64 64" fill="none" xmlns="http://www.w3.org/2000/svg">
<g clip-path="url(#clip0_1652_1726)">
<path d="M1.18478 64H47.6462C48.2609 64 48.6957 63.4326 48.6957 62.8174V38.7995L63.5717 23.9223C64.0098 23.4918 64.0163 22.788 63.5864 22.3495L57.6669 16.4223C57.2217 15.988 56.5114 15.9875 56.0658 16.4212L48.6957 23.7467V12.4451C48.7076 12.1538 48.6011 11.8701 48.4011 11.6576L37.1544 0.360326C36.9554 0.141848 36.6777 0.0119565 36.3826 0H1.18478C0.570651 0 0.13913 0.567391 0.13913 1.18207V62.8179C0.13913 63.4326 0.570651 64 1.18478 64ZM36.7185 39.8766L40.1478 43.306L34.9962 45.0283L36.7185 39.8766ZM42.206 42.2158L37.8082 37.8185L51.9321 23.7261L56.2984 28.0924L42.206 42.2158ZM56.887 18.7826L61.2419 23.1375L57.8701 26.5168L53.5082 22.1538L56.887 18.7826ZM37.5652 3.86902L44.9592 11.2696H37.5652V3.86902ZM2.36522 2.22609H35.3391V12.4451C35.3261 12.7266 35.431 13.0005 35.6299 13.2C35.8283 13.4 36.1011 13.5071 36.3826 13.4957H46.4696V25.9679L35.4152 37.0288C35.2984 37.1429 35.2114 37.2837 35.162 37.4391L33.5924 42.1565H9.55815C8.94348 42.1565 8.44511 42.6549 8.44511 43.2696C8.44511 43.8842 8.94348 44.3826 9.55815 44.3826H32.8489L32.1783 46.4141C32.0446 46.8098 32.1489 47.2478 32.4467 47.5408C32.525 47.619 32.6136 47.7217 32.7076 47.7217H9.55815C8.94348 47.7217 8.44511 48.2201 8.44511 48.8348C8.44511 49.4495 8.94348 49.9478 9.55815 49.9478H39.1935C39.8087 49.9478 40.3065 49.4495 40.3065 48.8348C40.3065 48.2201 39.8087 47.7217 39.1935 47.7217H33.8103L42.5598 44.8212C42.7136 44.7706 42.8527 44.6821 42.9636 44.5647L46.4696 41.0304V61.7739H2.36522V2.22609Z" fill="#5C8C24"/>
<path d="M39.1935 53.287H9.55816C8.94348 53.287 8.44511 53.7853 8.44511 54.4C8.44511 55.0147 8.94348 55.513 9.55816 55.513H39.1935C39.8087 55.513 40.3065 55.0147 40.3065 54.4C40.3065 53.7853 39.8087 53.287 39.1935 53.287Z" fill="#5C8C24"/>
<path d="M9.55816 38.8174H25.2804C25.8957 38.8174 26.3935 38.319 26.3935 37.7043C26.3935 37.0897 25.8957 36.5913 25.2804 36.5913H9.55816C8.94348 36.5913 8.44511 37.0897 8.44511 37.7043C8.44511 38.319 8.94348 38.8174 9.55816 38.8174Z" fill="#5C8C24"/>
</g>
<defs>
<clipPath id="clip0_1652_1726">
<rect width="64" height="64" fill="white"/>
</clipPath>
</defs>
</svg>
