<svg width="64" height="64" viewBox="0 0 64 64" fill="none" xmlns="http://www.w3.org/2000/svg">
<path d="M59.651 33.4353C56.7101 30.5075 53.3102 33.2478 53.3102 33.2478V17.8351C53.3102 17.3175 52.8907 16.8976 52.3732 16.8976C51.8551 16.8976 51.4356 17.3175 51.4356 17.8351V34.5666C51.4356 34.5666 46.9654 38.0906 45.044 38.9519V11.2008C45.044 9.91072 46.0933 8.8614 47.3834 8.8614H49.0963C50.3863 8.8614 51.4356 9.91072 51.4356 11.2008V13.9972C51.4356 14.5152 51.8551 14.9347 52.3732 14.9347C52.8907 14.9347 53.3102 14.5152 53.3102 13.9972V11.2008C53.3102 8.87703 51.42 6.98688 49.0963 6.98688H47.3834C45.0596 6.98688 43.169 8.87703 43.169 11.2008V39.6951C42.6099 39.8518 42.0362 39.9583 41.4532 40.0144V20.2501C41.4532 17.9147 39.5533 16.0148 37.2183 16.0148H35.5469C33.2119 16.0148 31.312 17.9147 31.312 20.2501V29.802L29.5957 30.7131V27.5344C29.5957 25.4318 27.8852 23.7213 25.7832 23.7213H23.2675C21.165 23.7213 19.455 25.4318 19.455 27.5344V36.0959L16.3939 37.7205L7.79818 40.177C6.30257 40.6043 5.05354 41.5838 4.28205 42.9344C3.51007 44.2854 3.3006 45.8587 3.6922 47.3641L4.65363 51.0633C4.78351 51.5643 5.29524 51.8646 5.7967 51.7347C6.29768 51.6043 6.59847 51.0926 6.46809 50.5911L5.50666 46.8924C4.94904 44.7469 6.18196 42.5886 8.31381 41.9798L16.1727 39.7337L22.0795 55.4984C22.475 56.5541 22.4125 59.5658 19.288 60.6757L13.349 62.0248C11.2792 62.4945 9.2396 61.2538 8.70541 59.1991L7.49984 54.5599C7.36947 54.0589 6.85775 53.7581 6.35677 53.888C5.8553 54.0184 5.555 54.5301 5.68489 55.0316L6.89095 59.6713C7.56869 62.2777 9.88413 63.9999 12.4618 63.9999C14.3558 63.9999 19.7035 62.5038 19.7035 62.5038C21.331 62.1347 22.7187 61.08 23.5102 59.6112C24.1635 58.3993 24.3574 57.0047 24.0771 55.6761L44.6241 50.6458C46.3233 50.2293 47.9366 49.4222 49.2882 48.3113L59.2873 40.0955C62.3356 37.3918 60.5475 34.3274 59.651 33.4353ZM35.5469 17.8898H37.2183C38.5196 17.8898 39.5782 18.9489 39.5782 20.2501V40.0613L33.6626 40.0588C33.1191 40.054 33.4951 39.6951 33.5249 39.6707L35.2285 38.2908C36.8179 37.0032 37.856 35.2131 38.3135 32.9695C38.604 31.5461 38.0611 30.1213 36.8975 29.2512C35.8106 28.4387 34.4126 28.2824 33.187 28.8195V20.2501C33.187 18.9489 34.2456 17.8898 35.5469 17.8898ZM21.33 27.5344C21.33 26.466 22.1991 25.5964 23.2675 25.5964H25.7832C26.8515 25.5964 27.7212 26.466 27.7212 27.5344V31.7082L21.3295 35.1008V27.5344H21.33ZM58.0973 38.6472L48.0977 46.8631C46.962 47.7967 45.6065 48.4749 44.1783 48.8245L23.4799 53.8924L17.9135 39.0374L33.8071 30.6008C34.4531 30.2575 35.189 30.3146 35.7744 30.7526C36.3599 31.1906 36.6226 31.8791 36.4766 32.5949C36.1079 34.4011 35.291 35.8274 34.0483 36.8337L32.3447 38.2141C31.6465 38.7795 31.3891 39.6921 31.6889 40.5393C31.9888 41.386 32.7632 41.9339 33.6616 41.9339L40.4922 41.9368H40.4971C42.9288 41.9368 45.2657 41.1975 47.255 39.7986L54.8888 34.4304C55.9576 33.6784 57.3966 33.8113 58.3097 34.7458C58.8356 35.2829 59.8649 36.8791 58.0973 38.6472Z" fill="#5C8C24"/>
<path d="M18.4891 56.099C18.4891 54.0623 16.8323 52.4051 14.7957 52.4051C12.7591 52.4051 11.1023 54.0623 11.1023 56.099C11.1023 58.1351 12.7591 59.7923 14.7957 59.7923C16.8323 59.7923 18.4891 58.1351 18.4891 56.099ZM12.9773 56.099C12.9773 55.096 13.7928 54.2801 14.7957 54.2801C15.7981 54.2801 16.6141 55.096 16.6141 56.099C16.6141 57.1014 15.7986 57.9173 14.7957 57.9173C13.7928 57.9173 12.9773 57.1014 12.9773 56.099Z" fill="#5C8C24"/>
<path d="M8.05404 29.4352L21.682 15.7022L24.7475 17.2877C25.8456 17.8556 27.1821 17.6612 28.0727 16.8038L35.4907 9.66314C35.4907 9.66314 35.2866 13.3306 38.375 13.3306C39.9649 13.3306 41.2588 12.0367 41.2588 10.4464V2.88381C41.2588 2.87502 41.2583 2.86574 41.2583 2.85646C41.2481 0.883306 39.8052 0 38.375 0H30.8784C29.288 0 27.9946 1.29395 27.9946 2.88381C27.9946 6.05375 31.2207 5.76761 31.2207 5.76761L25.5615 11.2149L22.4516 9.6065C21.3271 9.02447 19.9721 9.23785 19.0795 10.1363L3.96026 25.3722C2.84014 26.5011 2.84697 28.3307 3.97589 29.4509C4.51984 29.9904 6.37727 31.112 8.05404 29.4352ZM5.29084 26.693L20.4101 11.4571C20.6054 11.2608 20.9189 10.9171 21.5903 11.272L25.2968 13.189C25.6537 13.3736 26.0883 13.3106 26.3779 13.0318L34.1963 5.50589C34.4717 5.24075 34.5586 4.8345 34.4155 4.48001C34.2725 4.12502 33.9287 3.89309 33.5459 3.89309H30.8784C30.3222 3.89309 29.8696 3.44045 29.8696 2.88381C29.8696 2.32765 30.3222 1.87501 30.8784 1.87501H38.375C38.6509 1.87501 39.3833 1.87501 39.3833 2.87795C39.3833 2.88625 39.3838 2.89455 39.3838 2.90334V10.4464C39.3838 11.0025 38.9312 11.4551 38.375 11.4551C37.8184 11.4551 37.3657 11.0025 37.3657 10.4464V7.45952C37.3657 7.08354 37.1411 6.74369 36.7954 6.59672C36.4497 6.44926 36.0493 6.52348 35.7783 6.78422L26.7724 15.4532C26.4609 15.753 25.9931 15.8214 25.6093 15.6227L21.9325 13.7208C21.5688 13.5328 21.1249 13.6026 20.8363 13.8931L6.72346 28.1144C6.10822 28.7297 5.48664 28.3088 5.29621 28.1198C4.90167 27.7277 4.89923 27.0876 5.29084 26.693Z" fill="#5C8C24"/>
</svg>
