<svg width="64" height="64" viewBox="0 0 64 64" fill="none" xmlns="http://www.w3.org/2000/svg">
<path d="M9.42948 37.7914L9.36022 34.4769C9.34138 33.5752 9.33333 32.6374 9.33333 31.6667C9.33333 25.7435 11.6863 20.0629 15.8746 15.8746C20.0629 11.6863 25.7435 9.33333 31.6667 9.33333C32.8238 9.33333 33.5015 9.41858 36.5537 9.87773L9.42948 37.7914ZM9.42948 37.7914L11.2046 34.9914M9.42948 37.7914L11.2046 34.9914M11.2046 34.9914C14.2859 30.1311 18.7548 26.2068 24.6423 22.7229M11.2046 34.9914L24.6423 22.7229M24.6423 22.7229L26.2956 25.6162C19.0289 29.9241 14.0597 34.9153 11.4639 41.9888L10.9705 43.3333H12.4027H21C29.2512 43.3333 36.1249 40.6001 40.9658 35.154C45.7908 29.7257 48.488 21.7243 48.6585 11.3845L48.677 10.2646L47.5622 10.3727C44.0136 10.7167 40.7017 10.5001 36.5541 9.87779L24.6423 22.7229ZM52 6.26277V10.3333C52 22.9854 48.4721 32.0475 42.9004 37.9399C37.3313 43.8296 29.6132 46.6667 21 46.6667H10.9813H10.1377L9.99561 47.4983C9.59092 49.8676 9.3707 52.2643 9.3367 54.6667H6.00807C6.05986 51.4835 6.36078 48.5807 6.90264 45.9138L6.94056 45.7272L6.90723 45.5397C6.30873 42.1724 6 37.5562 6 31.6667C6 17.491 17.491 6 31.6667 6C32.9222 6 34.1943 6.15698 35.6045 6.36436C35.8958 6.40719 36.1933 6.45224 36.4972 6.49826C37.6482 6.67255 38.8912 6.86078 40.2338 6.99504C43.3989 7.31154 47.149 7.33377 52 6.26277Z" fill="black" stroke="#5C8C24" stroke-width="2"/>
</svg>
