<svg width="64" height="64" viewBox="0 0 64 64" fill="none" xmlns="http://www.w3.org/2000/svg">
<path d="M14.9333 42.1333C11.4037 42.1333 8.53329 45.0037 8.53329 48.5333C8.53329 52.063 11.4037 54.9333 14.9333 54.9333C18.4629 54.9333 21.3333 52.063 21.3333 48.5333C21.3333 45.0037 18.4628 42.1333 14.9333 42.1333ZM14.9333 52.8C12.5802 52.8 10.6667 50.8863 10.6667 48.5333C10.6667 46.1802 12.5803 44.2667 14.9333 44.2667C17.2863 44.2667 19.1999 46.1803 19.1999 48.5333C19.1999 50.8863 17.2863 52.8 14.9333 52.8Z" fill="#5C8C24"/>
<path d="M51.2001 42.1333C47.6705 42.1333 44.8001 45.0037 44.8001 48.5333C44.8001 52.063 47.6705 54.9333 51.2001 54.9333C54.7297 54.9333 57.6001 52.063 57.6001 48.5333C57.6001 45.0037 54.7297 42.1333 51.2001 42.1333ZM51.2001 52.8C48.847 52.8 46.9335 50.8863 46.9335 48.5333C46.9335 46.1802 48.8471 44.2667 51.2001 44.2667C53.5532 44.2667 55.4667 46.1803 55.4667 48.5333C55.4667 50.8863 53.5532 52.8 51.2001 52.8Z" fill="#5C8C24"/>
<path d="M63.8303 36.223L54.2303 21.2896C54.034 20.9845 53.6959 20.8 53.3332 20.8H41.5999C41.01 20.8 40.5333 21.2778 40.5333 21.8666V48.5332C40.5333 49.1231 41.01 49.5998 41.5999 49.5998H45.8665V47.4665H42.6665V22.9333H52.7508L61.8665 37.1136V47.4667H56.5332V49.6H62.9332C63.523 49.6 63.9998 49.1232 63.9998 48.5333V36.8C63.9999 36.5962 63.9413 36.3946 63.8303 36.223Z" fill="#5C8C24"/>
<path d="M46.9335 34.6667V27.2H55.4669V25.0667H45.8669C45.277 25.0667 44.8002 25.5445 44.8002 26.1333V35.7333C44.8002 36.3232 45.277 36.7999 45.8669 36.7999H61.8669V34.6666H46.9335V34.6667Z" fill="#5C8C24"/>
<path d="M41.6 13.3334H1.06662C0.477875 13.3334 0 13.8113 0 14.4V48.5334C0 49.1233 0.477875 49.6 1.06662 49.6H9.6V47.4666H2.13337V15.4666H40.5334V47.4666H20.2666V49.6H41.6C42.1899 49.6 42.6666 49.1233 42.6666 48.5334V14.4C42.6666 13.8113 42.1899 13.3334 41.6 13.3334Z" fill="#5C8C24"/>
<path d="M7.46667 43.2H1.06667V45.3334H7.46667V43.2Z" fill="#5C8C24"/>
<path d="M40.5334 43.2H22.4V45.3334H40.5334V43.2Z" fill="#5C8C24"/>
<path d="M62.9333 43.2H58.6666V45.3334H62.9333V43.2Z" fill="#5C8C24"/>
<path d="M41.5999 17.6H4.26657V19.7333H41.5999V17.6Z" fill="#5C8C24"/>
<path d="M15.9999 47.4666H13.8665V49.6H15.9999V47.4666Z" fill="#5C8C24"/>
<path d="M52.2668 47.4666H50.1335V49.6H52.2668V47.4666Z" fill="#5C8C24"/>
<path d="M19.1999 9.06666H4.26657V11.2H19.1999V9.06666Z" fill="#5C8C24"/>
<path d="M2.13337 9.06666H0V11.2H2.13337V9.06666Z" fill="#5C8C24"/>
</svg>
