<svg width="57" height="57" viewBox="0 0 57 57" fill="none" xmlns="http://www.w3.org/2000/svg">
<path d="M4.9375 24.9526L4.7734 26.0948H5.92733H8.5C8.98623 26.0948 9.45255 26.288 9.79636 26.6318C10.1402 26.9756 10.3333 27.4419 10.3333 27.9282V42.5C10.3333 42.9862 10.1402 43.4526 9.79636 43.7964C9.45255 44.1402 8.98623 44.3333 8.5 44.3333H5.66667C3.02268 44.3333 1 42.3524 1 40.0718V28.3333C1 13.2626 13.2626 1 28.3333 1C43.4041 1 55.6667 13.2626 55.6667 28.3333V40.0718C55.6667 42.3524 53.644 44.3333 51 44.3333H50V45.3333C50 51.0314 45.3647 55.6667 39.6667 55.6667H23.6667V49.1667H33V51V52H34H39.6667C43.3441 52 46.3333 49.0108 46.3333 45.3333V27.9282C46.3333 27.4419 46.5265 26.9756 46.8703 26.6318C47.2141 26.288 47.6804 26.0948 48.1667 26.0948H50.7393H51.8933L51.7292 24.9526C50.0845 13.5047 40.2357 4.66667 28.3333 4.66667C16.431 4.66667 6.58222 13.5047 4.9375 24.9526Z" stroke="#5C8C24" stroke-width="2"/>
</svg>
